<?xml version="1.0" encoding="UTF-8" standalone="no"?>
<svg width="437.0px" height="360.0px" version="1.1" xmlns="http://www.w3.org/2000/svg" xmlns:xlink="http://www.w3.org/1999/xlink">
<g>
<rect x="0.0px" y="0.0px" width="437.0px" height="360.0px" rx="0.0px" ry="0.0px" style="fill:rgb(255,255,255);"/>
<rect x="1.5px" y="26.5px" width="151.0px" height="51.0px" rx="0.0px" ry="0.0px" style="fill:rgb(255,255,255); stroke:rgb(0,0,0); stroke-width:1.0px;"/>
<text transform="translate(5.0,36.0), rotate(-0.0)" x="0px" y="0px" textLength="143.0px"
 style="font-family:Arial; font-size:13.0px; fill:rgb(0,0,0); stroke:none; baseline-shift:-13.0px; ">
   Customers who acquires
</text>
<text transform="translate(9.0,52.0), rotate(-0.0)" x="0px" y="0px" textLength="135.0px"
 style="font-family:Arial; font-size:13.0px; fill:rgb(0,0,0); stroke:none; baseline-shift:-13.0px; ">
   manufacturing oroducts
</text>
<polygon points=" 152.0,17.0 144.0,9.0 144.0,12.0 129.0,12.0 129.0,22.0 144.0,22.0 144.0,25.0 " style="fill:rgb(255,255,255); stroke:rgb(0,0,0); stroke-width:1.0px;"/>
<rect x="71.5px" y="66.5px" width="11.0px" height="11.0px" rx="0.0px" ry="0.0px" style="fill:rgb(255,255,255); stroke:rgb(0,0,0); stroke-width:1.0px;"/>
<text transform="translate(73.0,64.0), rotate(-0.0)" x="0px" y="0px" textLength="8.0px"
 style="font-family:Arial; font-size:13.0px; fill:rgb(0,0,0); stroke:none; baseline-shift:-13.0px; ">
   +
</text>
<rect x="256.5px" y="27.5px" width="132.0px" height="50.0px" rx="0.0px" ry="0.0px" style="fill:rgb(255,255,255); stroke:rgb(0,0,0); stroke-width:1.0px;"/>
<text transform="translate(298.0,36.0), rotate(-0.0)" x="0px" y="0px" textLength="48.0px"
 style="font-family:Arial; font-size:13.0px; fill:rgb(0,0,0); stroke:none; baseline-shift:-13.0px; ">
   Stock of
</text>
<text transform="translate(262.0,52.0), rotate(-0.0)" x="0px" y="0px" textLength="121.0px"
 style="font-family:Arial; font-size:13.0px; fill:rgb(0,0,0); stroke:none; baseline-shift:-13.0px; ">
   manufacturing orders
</text>
<polygon points=" 388.0,18.0 381.0,10.0 381.0,13.0 365.0,13.0 365.0,22.0 381.0,22.0 381.0,25.0 " style="fill:rgb(255,255,255); stroke:rgb(0,0,0); stroke-width:1.0px;"/>
<rect x="316.5px" y="65.5px" width="12.0px" height="12.0px" rx="0.0px" ry="0.0px" style="fill:rgb(255,255,255); stroke:rgb(0,0,0); stroke-width:1.0px;"/>
<text transform="translate(319.0,63.0), rotate(-0.0)" x="0px" y="0px" textLength="8.0px"
 style="font-family:Arial; font-size:13.0px; fill:rgb(0,0,0); stroke:none; baseline-shift:-13.0px; ">
   +
</text>
<rect x="43.5px" y="128.5px" width="387.0px" height="103.0px" rx="8.0px" ry="8.0px" style="fill:rgb(255,247,242); stroke:rgb(0,0,0); stroke-dasharray:5 3; stroke-width:1.0px;"/>
<text transform="translate(220.0,133.0), rotate(-0.0)" x="0px" y="0px" textLength="33.0px"
 style="font-family:Arial; font-size:13.0px; fill:rgb(0,0,0); stroke:none; baseline-shift:-13.0px; ">
   Sales
</text>
<line x1="217.0px" y1="122.0px" x2="229.0px" y2="128.0px" style="stroke:rgb(0,0,0); stroke-dasharray:5 3; stroke-width:1.0px;"/>
<line x1="217.0px" y1="133.0px" x2="229.0px" y2="128.0px" style="stroke:rgb(0,0,0); stroke-dasharray:5 3; stroke-width:1.0px;"/>
<line x1="259.0px" y1="226.0px" x2="248.0px" y2="231.0px" style="stroke:rgb(0,0,0); stroke-dasharray:5 3; stroke-width:1.0px;"/>
<line x1="259.0px" y1="237.0px" x2="248.0px" y2="231.0px" style="stroke:rgb(0,0,0); stroke-dasharray:5 3; stroke-width:1.0px;"/>
<polygon points=" 430.0,137.0 423.0,130.0 423.0,133.0 407.0,133.0 407.0,142.0 423.0,142.0 423.0,145.0 " style="fill:rgb(255,247,242); stroke:rgb(0,0,0); stroke-width:1.0px;"/>
<rect x="231.5px" y="220.5px" width="11.0px" height="11.0px" rx="0.0px" ry="0.0px" style="fill:rgb(255,255,255); stroke:rgb(0,0,0); stroke-width:1.0px;"/>
<text transform="translate(233.0,218.0), rotate(-0.0)" x="0px" y="0px" textLength="8.0px"
 style="font-family:Arial; font-size:13.0px; fill:rgb(0,0,0); stroke:none; baseline-shift:-13.0px; ">
   +
</text>
<ellipse cx="321.5px" cy="180.5px" rx="75.0px" ry="38.5px" style="fill:rgb(255,255,255); stroke:rgb(0,0,0); stroke-width:1.0px;"/>
<text transform="translate(284.0,163.0), rotate(-0.0)" x="0px" y="0px" textLength="75.0px"
 style="font-family:Arial; font-size:13.0px; fill:rgb(0,0,0); stroke:none; baseline-shift:-13.0px; ">
   Sales to new
</text>
<text transform="translate(291.0,180.0), rotate(-0.0)" x="0px" y="0px" textLength="61.0px"
 style="font-family:Arial; font-size:13.0px; fill:rgb(0,0,0); stroke:none; baseline-shift:-13.0px; ">
   customers
</text>
<line x1="303.0px" y1="135.0px" x2="314.0px" y2="141.0px" style="stroke:rgb(0,0,0); stroke-width:1.0px;"/>
<line x1="303.0px" y1="146.0px" x2="314.0px" y2="141.0px" style="stroke:rgb(0,0,0); stroke-width:1.0px;"/>
<line x1="345.0px" y1="213.0px" x2="333.0px" y2="218.0px" style="stroke:rgb(0,0,0); stroke-width:1.0px;"/>
<line x1="345.0px" y1="224.0px" x2="333.0px" y2="218.0px" style="stroke:rgb(0,0,0); stroke-width:1.0px;"/>
<rect x="316.5px" y="207.5px" width="12.0px" height="11.0px" rx="0.0px" ry="0.0px" style="fill:rgb(255,255,255); stroke:rgb(0,0,0); stroke-width:1.0px;"/>
<text transform="translate(319.0,205.0), rotate(-0.0)" x="0px" y="0px" textLength="8.0px"
 style="font-family:Arial; font-size:13.0px; fill:rgb(0,0,0); stroke:none; baseline-shift:-13.0px; ">
   +
</text>
<ellipse cx="123.5px" cy="180.5px" rx="75.0px" ry="38.5px" style="fill:rgb(255,255,255); stroke:rgb(0,0,0); stroke-width:1.0px;"/>
<text transform="translate(74.0,163.0), rotate(-0.0)" x="0px" y="0px" textLength="97.0px"
 style="font-family:Arial; font-size:13.0px; fill:rgb(0,0,0); stroke:none; baseline-shift:-13.0px; ">
   Sales to existing
</text>
<text transform="translate(93.0,180.0), rotate(-0.0)" x="0px" y="0px" textLength="61.0px"
 style="font-family:Arial; font-size:13.0px; fill:rgb(0,0,0); stroke:none; baseline-shift:-13.0px; ">
   customers
</text>
<line x1="105.0px" y1="135.0px" x2="116.0px" y2="141.0px" style="stroke:rgb(0,0,0); stroke-width:1.0px;"/>
<line x1="105.0px" y1="146.0px" x2="116.0px" y2="141.0px" style="stroke:rgb(0,0,0); stroke-width:1.0px;"/>
<line x1="146.0px" y1="213.0px" x2="135.0px" y2="218.0px" style="stroke:rgb(0,0,0); stroke-width:1.0px;"/>
<line x1="146.0px" y1="224.0px" x2="135.0px" y2="218.0px" style="stroke:rgb(0,0,0); stroke-width:1.0px;"/>
<rect x="118.5px" y="207.5px" width="11.0px" height="11.0px" rx="0.0px" ry="0.0px" style="fill:rgb(255,255,255); stroke:rgb(0,0,0); stroke-width:1.0px;"/>
<text transform="translate(120.0,205.0), rotate(-0.0)" x="0px" y="0px" textLength="8.0px"
 style="font-family:Arial; font-size:13.0px; fill:rgb(0,0,0); stroke:none; baseline-shift:-13.0px; ">
   +
</text>
<path d="M 106.0 129.0 L 91.0 83.0" style="fill:none; stroke:rgb(0,0,0); stroke-dasharray:5 3; stroke-width:1.0px;"/>
<polyline points=" 91.0,96.0 91.0,83.0 99.0,94.0 " style="fill:none; stroke:rgb(0,0,0); stroke-width:1.0px;"/>
<text transform="translate(78.0,106.0), rotate(-0.0)" x="0px" y="0px" textLength="41.0px"
 style="font-family:Arial; font-style:italic;font-size:10.0px; fill:rgb(0,0,0); stroke:none; baseline-shift:-10.0px; ">
   Maintain
</text>
<path d="M 142.0 135.0 L 142.0 121.0 C 142.0 117.0 145.0 112.0 149.0 110.0 L 215.0 82.0 L 226.0 77.0 L 250.0 68.0" style="fill:none; stroke:rgb(0,0,0); stroke-dasharray:5 3; stroke-width:1.0px;"/>
<polyline points=" 237.0,69.0 250.0,68.0 240.0,76.0 " style="fill:none; stroke:rgb(0,0,0); stroke-width:1.0px;"/>
<text transform="translate(153.0,101.0), rotate(-0.0)" x="0px" y="0px" textLength="36.0px"
 style="font-family:Arial; font-style:italic;font-size:10.0px; fill:rgb(0,0,0); stroke:none; baseline-shift:-10.0px; ">
   Acquire
</text>
<path d="M 19.0 83.0 L 19.0 248.0 C 19.0 251.0 23.0 255.0 26.0 255.0 L 115.0 255.0 C 119.0 255.0 123.0 251.0 123.0 248.0 L 123.0 226.0" style="fill:none; stroke:rgb(0,0,0); stroke-width:1.0px;"/>
<polyline points=" 119.0,239.0 123.0,226.0 127.0,239.0 " style="fill:none; stroke:rgb(0,0,0); stroke-width:1.0px;"/>
<text transform="translate(71.0,255.0), rotate(-0.0)" x="0px" y="0px" textLength="34.0px"
 style="font-family:Arial; font-style:italic;font-size:10.0px; fill:rgb(0,0,0); stroke:none; baseline-shift:-10.0px; ">
   Partner
</text>
<path d="M 321.0 135.0 L 321.0 85.0" style="fill:none; stroke:rgb(0,0,0); stroke-dasharray:5 3; stroke-width:1.0px;"/>
<polyline points=" 317.0,97.0 321.0,85.0 325.0,97.0 " style="fill:none; stroke:rgb(0,0,0); stroke-width:1.0px;"/>
<text transform="translate(303.0,110.0), rotate(-0.0)" x="0px" y="0px" textLength="36.0px"
 style="font-family:Arial; font-style:italic;font-size:10.0px; fill:rgb(0,0,0); stroke:none; baseline-shift:-10.0px; ">
   Acquire
</text>
<path d="M 302.0 129.0 L 302.0 111.0 C 302.0 108.0 299.0 103.0 295.0 102.0 L 226.0 81.0 C 225.0 84.0 222.0 86.0 219.0 85.0 217.0 84.0 215.0 81.0 215.0 78.0 L 158.0 62.0" style="fill:none; stroke:rgb(0,0,0); stroke-dasharray:5 3; stroke-width:1.0px;"/>
<polyline points=" 169.0,69.0 158.0,62.0 171.0,61.0 " style="fill:none; stroke:rgb(0,0,0); stroke-width:1.0px;"/>
<text transform="translate(245.0,93.0), rotate(-0.0)" x="0px" y="0px" textLength="36.0px"
 style="font-family:Arial; font-style:italic;font-size:10.0px; fill:rgb(0,0,0); stroke:none; baseline-shift:-10.0px; ">
   Acquire
</text>
</g>
</svg>
