<?xml version="1.0" encoding="UTF-8" standalone="no"?>
<svg width="689.0px" height="799.0px" version="1.1" xmlns="http://www.w3.org/2000/svg" xmlns:xlink="http://www.w3.org/1999/xlink">
<g>
<rect x="0.0px" y="0.0px" width="689.0px" height="799.0px" rx="0.0px" ry="0.0px" style="fill:rgb(255,255,255);"/>
<rect x="76.5px" y="131.5px" width="150.0px" height="59.0px" rx="0.0px" ry="0.0px" style="fill:rgb(255,255,255); stroke:rgb(0,0,0); stroke-width:1.0px;"/>
<text transform="translate(106.0,136.0), rotate(-0.0)" x="0px" y="0px" textLength="90.0px"
 style="font-family:Arial; font-size:13.0px; fill:rgb(0,0,0); stroke:none; baseline-shift:-13.0px; ">
   Customers who
</text>
<text transform="translate(84.0,153.0), rotate(-0.0)" x="0px" y="0px" textLength="134.0px"
 style="font-family:Arial; font-size:13.0px; fill:rgb(0,0,0); stroke:none; baseline-shift:-13.0px; ">
   acquires manufacturing
</text>
<text transform="translate(126.0,169.0), rotate(-0.0)" x="0px" y="0px" textLength="50.0px"
 style="font-family:Arial; font-size:13.0px; fill:rgb(0,0,0); stroke:none; baseline-shift:-13.0px; ">
   oroducts
</text>
<rect x="146.5px" y="179.5px" width="12.0px" height="11.0px" rx="0.0px" ry="0.0px" style="fill:rgb(255,255,255); stroke:rgb(0,0,0); stroke-width:1.0px;"/>
<text transform="translate(149.0,177.0), rotate(-0.0)" x="0px" y="0px" textLength="8.0px"
 style="font-family:Arial; font-size:13.0px; fill:rgb(0,0,0); stroke:none; baseline-shift:-13.0px; ">
   +
</text>
<rect x="256.5px" y="131.5px" width="131.0px" height="59.0px" rx="0.0px" ry="0.0px" style="fill:rgb(255,255,255); stroke:rgb(0,0,0); stroke-width:1.0px;"/>
<text transform="translate(297.0,144.0), rotate(-0.0)" x="0px" y="0px" textLength="48.0px"
 style="font-family:Arial; font-size:13.0px; fill:rgb(0,0,0); stroke:none; baseline-shift:-13.0px; ">
   Stock of
</text>
<text transform="translate(261.0,161.0), rotate(-0.0)" x="0px" y="0px" textLength="121.0px"
 style="font-family:Arial; font-size:13.0px; fill:rgb(0,0,0); stroke:none; baseline-shift:-13.0px; ">
   manufacturing orders
</text>
<rect x="316.5px" y="179.5px" width="12.0px" height="11.0px" rx="0.0px" ry="0.0px" style="fill:rgb(255,255,255); stroke:rgb(0,0,0); stroke-width:1.0px;"/>
<text transform="translate(319.0,177.0), rotate(-0.0)" x="0px" y="0px" textLength="8.0px"
 style="font-family:Arial; font-size:13.0px; fill:rgb(0,0,0); stroke:none; baseline-shift:-13.0px; ">
   +
</text>
<rect x="445.5px" y="122.5px" width="168.0px" height="58.0px" rx="0.0px" ry="0.0px" style="fill:rgb(255,255,255); stroke:rgb(0,0,0); stroke-width:1.0px;"/>
<text transform="translate(453.0,135.0), rotate(-0.0)" x="0px" y="0px" textLength="153.0px"
 style="font-family:Arial; font-size:13.0px; fill:rgb(0,0,0); stroke:none; baseline-shift:-13.0px; ">
   Sofisticated manufacturing
</text>
<text transform="translate(496.0,151.0), rotate(-0.0)" x="0px" y="0px" textLength="67.0px"
 style="font-family:Arial; font-size:13.0px; fill:rgb(0,0,0); stroke:none; baseline-shift:-13.0px; ">
   equipments
</text>
<rect x="525.5px" y="169.5px" width="11.0px" height="11.0px" rx="0.0px" ry="0.0px" style="fill:rgb(255,255,255); stroke:rgb(0,0,0); stroke-width:1.0px;"/>
<text transform="translate(527.0,167.0), rotate(-0.0)" x="0px" y="0px" textLength="8.0px"
 style="font-family:Arial; font-size:13.0px; fill:rgb(0,0,0); stroke:none; baseline-shift:-13.0px; ">
   +
</text>
<rect x="341.5px" y="401.5px" width="112.0px" height="48.0px" rx="0.0px" ry="0.0px" style="fill:rgb(134,195,244); stroke:rgb(0,0,0); stroke-width:1.0px;"/>
<text transform="translate(345.0,417.0), rotate(-0.0)" x="0px" y="0px" textLength="103.0px"
 style="font-family:Arial; font-size:13.0px; fill:rgb(0,0,0); stroke:none; baseline-shift:-13.0px; ">
   Equipment vendor
</text>
<rect x="392.5px" y="438.5px" width="11.0px" height="11.0px" rx="0.0px" ry="0.0px" style="fill:rgb(255,255,255); stroke:rgb(0,0,0); stroke-width:1.0px;"/>
<text transform="translate(394.0,435.0), rotate(-0.0)" x="0px" y="0px" textLength="8.0px"
 style="font-family:Arial; font-size:13.0px; fill:rgb(0,0,0); stroke:none; baseline-shift:-13.0px; ">
   +
</text>
<rect x="426.5px" y="531.5px" width="131.0px" height="53.0px" rx="0.0px" ry="0.0px" style="fill:rgb(134,195,244); stroke:rgb(0,0,0); stroke-width:1.0px;"/>
<text transform="translate(455.0,541.0), rotate(-0.0)" x="0px" y="0px" textLength="74.0px"
 style="font-family:Arial; font-size:13.0px; fill:rgb(0,0,0); stroke:none; baseline-shift:-13.0px; ">
   Diagnostic &amp;
</text>
<text transform="translate(438.0,557.0), rotate(-0.0)" x="0px" y="0px" textLength="108.0px"
 style="font-family:Arial; font-size:13.0px; fill:rgb(0,0,0); stroke:none; baseline-shift:-13.0px; ">
   Predictive software
</text>
<rect x="486.5px" y="573.5px" width="12.0px" height="11.0px" rx="0.0px" ry="0.0px" style="fill:rgb(255,255,255); stroke:rgb(0,0,0); stroke-width:1.0px;"/>
<text transform="translate(489.0,571.0), rotate(-0.0)" x="0px" y="0px" textLength="8.0px"
 style="font-family:Arial; font-size:13.0px; fill:rgb(0,0,0); stroke:none; baseline-shift:-13.0px; ">
   +
</text>
<rect x="246.5px" y="532.5px" width="131.0px" height="51.0px" rx="0.0px" ry="0.0px" style="fill:rgb(134,195,244); stroke:rgb(0,0,0); stroke-width:1.0px;"/>
<text transform="translate(257.0,550.0), rotate(-0.0)" x="0px" y="0px" textLength="109.0px"
 style="font-family:Arial; font-size:13.0px; fill:rgb(0,0,0); stroke:none; baseline-shift:-13.0px; ">
   Service technitians
</text>
<rect x="307.5px" y="572.5px" width="11.0px" height="11.0px" rx="0.0px" ry="0.0px" style="fill:rgb(255,255,255); stroke:rgb(0,0,0); stroke-width:1.0px;"/>
<text transform="translate(309.0,570.0), rotate(-0.0)" x="0px" y="0px" textLength="8.0px"
 style="font-family:Arial; font-size:13.0px; fill:rgb(0,0,0); stroke:none; baseline-shift:-13.0px; ">
   +
</text>
<rect x="86.5px" y="534.5px" width="131.0px" height="47.0px" rx="0.0px" ry="0.0px" style="fill:rgb(134,195,244); stroke:rgb(0,0,0); stroke-width:1.0px;"/>
<text transform="translate(104.0,550.0), rotate(-0.0)" x="0px" y="0px" textLength="95.0px"
 style="font-family:Arial; font-size:13.0px; fill:rgb(0,0,0); stroke:none; baseline-shift:-13.0px; ">
   Process experts
</text>
<rect x="146.5px" y="570.5px" width="12.0px" height="11.0px" rx="0.0px" ry="0.0px" style="fill:rgb(255,255,255); stroke:rgb(0,0,0); stroke-width:1.0px;"/>
<text transform="translate(149.0,568.0), rotate(-0.0)" x="0px" y="0px" textLength="8.0px"
 style="font-family:Arial; font-size:13.0px; fill:rgb(0,0,0); stroke:none; baseline-shift:-13.0px; ">
   +
</text>
<rect x="142.5px" y="735.5px" width="131.0px" height="60.0px" rx="0.0px" ry="0.0px" style="fill:rgb(134,195,244); stroke:rgb(0,0,0); stroke-width:1.0px;"/>
<text transform="translate(164.0,757.0), rotate(-0.0)" x="0px" y="0px" textLength="87.0px"
 style="font-family:Arial; font-size:13.0px; fill:rgb(0,0,0); stroke:none; baseline-shift:-13.0px; ">
   Data scientists
</text>
<rect x="203.5px" y="784.5px" width="11.0px" height="11.0px" rx="0.0px" ry="0.0px" style="fill:rgb(255,255,255); stroke:rgb(0,0,0); stroke-width:1.0px;"/>
<text transform="translate(205.0,782.0), rotate(-0.0)" x="0px" y="0px" textLength="8.0px"
 style="font-family:Arial; font-size:13.0px; fill:rgb(0,0,0); stroke:none; baseline-shift:-13.0px; ">
   +
</text>
<rect x="464.5px" y="401.5px" width="93.0px" height="48.0px" rx="0.0px" ry="0.0px" style="fill:rgb(255,255,255); stroke:rgb(0,0,0); stroke-width:1.0px;"/>
<text transform="translate(472.0,409.0), rotate(-0.0)" x="0px" y="0px" textLength="76.0px"
 style="font-family:Arial; font-size:13.0px; fill:rgb(0,0,0); stroke:none; baseline-shift:-13.0px; ">
   Contract with
</text>
<text transform="translate(481.0,425.0), rotate(-0.0)" x="0px" y="0px" textLength="59.0px"
 style="font-family:Arial; font-size:13.0px; fill:rgb(0,0,0); stroke:none; baseline-shift:-13.0px; ">
   the vendor
</text>
<rect x="505.5px" y="438.5px" width="12.0px" height="11.0px" rx="0.0px" ry="0.0px" style="fill:rgb(255,255,255); stroke:rgb(0,0,0); stroke-width:1.0px;"/>
<text transform="translate(508.0,435.0), rotate(-0.0)" x="0px" y="0px" textLength="8.0px"
 style="font-family:Arial; font-size:13.0px; fill:rgb(0,0,0); stroke:none; baseline-shift:-13.0px; ">
   +
</text>
<rect x="520.5px" y="612.5px" width="131.0px" height="62.0px" rx="0.0px" ry="0.0px" style="fill:rgb(134,195,244); stroke:rgb(0,0,0); stroke-dasharray:5 3 2 3; stroke-width:1.0px;"/>
<text transform="translate(540.0,626.0), rotate(-0.0)" x="0px" y="0px" textLength="91.0px"
 style="font-family:Arial; font-size:13.0px; fill:rgb(0,0,0); stroke:none; baseline-shift:-13.0px; ">
   Reputation as a
</text>
<text transform="translate(532.0,643.0), rotate(-0.0)" x="0px" y="0px" textLength="108.0px"
 style="font-family:Arial; font-size:13.0px; fill:rgb(0,0,0); stroke:none; baseline-shift:-13.0px; ">
   trustworthy partner
</text>
<rect x="581.5px" y="662.5px" width="11.0px" height="12.0px" rx="0.0px" ry="0.0px" style="fill:rgb(255,255,255); stroke:rgb(0,0,0); stroke-width:1.0px;"/>
<text transform="translate(583.0,660.0), rotate(-0.0)" x="0px" y="0px" textLength="8.0px"
 style="font-family:Arial; font-size:13.0px; fill:rgb(0,0,0); stroke:none; baseline-shift:-13.0px; ">
   +
</text>
<rect x="492.5px" y="22.5px" width="150.0px" height="51.0px" rx="0.0px" ry="0.0px" style="fill:rgb(255,255,255); stroke:rgb(0,0,0); stroke-dasharray:5 3 2 3; stroke-width:1.0px;"/>
<text transform="translate(513.0,31.0), rotate(-0.0)" x="0px" y="0px" textLength="108.0px"
 style="font-family:Arial; font-size:13.0px; fill:rgb(0,0,0); stroke:none; baseline-shift:-13.0px; ">
   Reputation of good
</text>
<text transform="translate(548.0,47.0), rotate(-0.0)" x="0px" y="0px" textLength="38.0px"
 style="font-family:Arial; font-size:13.0px; fill:rgb(0,0,0); stroke:none; baseline-shift:-13.0px; ">
   quality
</text>
<rect x="562.5px" y="62.5px" width="11.0px" height="11.0px" rx="0.0px" ry="0.0px" style="fill:rgb(255,255,255); stroke:rgb(0,0,0); stroke-width:1.0px;"/>
<text transform="translate(564.0,59.0), rotate(-0.0)" x="0px" y="0px" textLength="8.0px"
 style="font-family:Arial; font-size:13.0px; fill:rgb(0,0,0); stroke:none; baseline-shift:-13.0px; ">
   +
</text>
<rect x="180.5px" y="376.5px" width="151.0px" height="51.0px" rx="0.0px" ry="0.0px" style="fill:rgb(255,255,255); stroke:rgb(0,0,0); stroke-dasharray:5 3 2 3; stroke-width:1.0px;"/>
<text transform="translate(181.0,393.0), rotate(-0.0)" x="0px" y="0px" textLength="150.0px"
 style="font-family:Arial; font-size:13.0px; fill:rgb(0,0,0); stroke:none; baseline-shift:-13.0px; ">
   Reputation of good quality
</text>
<polygon points=" 331.0,366.0 324.0,359.0 324.0,362.0 309.0,362.0 309.0,371.0 324.0,371.0 324.0,374.0 " style="fill:rgb(255,255,255); stroke:rgb(0,0,0); stroke-width:1.0px;"/>
<rect x="250.5px" y="416.5px" width="12.0px" height="11.0px" rx="0.0px" ry="0.0px" style="fill:rgb(255,255,255); stroke:rgb(0,0,0); stroke-width:1.0px;"/>
<text transform="translate(252.0,414.0), rotate(-0.0)" x="0px" y="0px" textLength="8.0px"
 style="font-family:Arial; font-size:13.0px; fill:rgb(0,0,0); stroke:none; baseline-shift:-13.0px; ">
   +
</text>
<ellipse cx="340.5px" cy="47.5px" rx="76.0px" ry="31.0px" style="fill:rgb(253,205,172); stroke:rgb(0,0,0); stroke-width:1.0px;"/>
<ellipse cx="340.5px" cy="47.5px" rx="72.5px" ry="27.5px" style="fill:rgb(253,205,172); stroke:rgb(0,0,0); stroke-width:1.0px;"/>
<text transform="translate(300.0,39.0), rotate(-0.0)" x="0px" y="0px" textLength="81.0px"
 style="font-family:Arial; font-size:13.0px; fill:rgb(0,0,0); stroke:none; baseline-shift:-13.0px; ">
   Manufacturing
</text>
<line x1="322.0px" y1="10.0px" x2="333.0px" y2="16.0px" style="stroke:rgb(0,0,0); stroke-width:1.0px;"/>
<line x1="322.0px" y1="22.0px" x2="333.0px" y2="16.0px" style="stroke:rgb(0,0,0); stroke-width:1.0px;"/>
<line x1="364.0px" y1="73.0px" x2="352.0px" y2="79.0px" style="stroke:rgb(0,0,0); stroke-width:1.0px;"/>
<line x1="364.0px" y1="84.0px" x2="352.0px" y2="79.0px" style="stroke:rgb(0,0,0); stroke-width:1.0px;"/>
<rect x="335.5px" y="67.5px" width="12.0px" height="12.0px" rx="0.0px" ry="0.0px" style="fill:rgb(255,255,255); stroke:rgb(0,0,0); stroke-width:1.0px;"/>
<text transform="translate(338.0,65.0), rotate(-0.0)" x="0px" y="0px" textLength="8.0px"
 style="font-family:Arial; font-size:13.0px; fill:rgb(0,0,0); stroke:none; baseline-shift:-13.0px; ">
   +
</text>
<path d="M 132.0 125.0 L 132.0 64.0 C 132.0 60.0 136.0 57.0 140.0 57.0 L 258.0 57.0" style="fill:none; stroke:rgb(0,0,0); stroke-width:1.0px;"/>
<polyline points=" 246.0,53.0 258.0,57.0 246.0,61.0 " style="fill:none; stroke:rgb(0,0,0); stroke-width:1.0px;"/>
<text transform="translate(135.0,57.0), rotate(-0.0)" x="0px" y="0px" textLength="53.0px"
 style="font-family:Arial; font-style:italic;font-size:10.0px; fill:rgb(0,0,0); stroke:none; baseline-shift:-10.0px; ">
   Beneficiary
</text>
<line x1="333.0px" y1="118.0px" x2="332.0px" y2="126.0px" style="stroke:rgb(0,0,0); stroke-width:3.0px;"/>
<line x1="324.0px" y1="117.0px" x2="323.0px" y2="124.0px" style="stroke:rgb(0,0,0); stroke-width:3.0px;"/>
<path d="M 327.0 125.0 L 334.0 87.0" style="fill:none; stroke:rgb(0,0,0); stroke-width:1.0px;"/>
<polyline points=" 328.0,98.0 334.0,87.0 336.0,99.0 " style="fill:none; stroke:rgb(0,0,0); stroke-width:1.0px;"/>
<text transform="translate(318.0,106.0), rotate(-0.0)" x="0px" y="0px" textLength="26.0px"
 style="font-family:Arial; font-style:italic;font-size:10.0px; fill:rgb(0,0,0); stroke:none; baseline-shift:-10.0px; ">
   Stock
</text>
<path d="M 466.0 116.0 L 407.0 84.0" style="fill:none; stroke:rgb(0,0,0); stroke-width:1.0px;"/>
<polyline points=" 417.0,94.0 407.0,84.0 420.0,87.0 " style="fill:none; stroke:rgb(0,0,0); stroke-width:1.0px;"/>
<text transform="translate(406.0,98.0), rotate(-0.0)" x="0px" y="0px" textLength="53.0px"
 style="font-family:Arial; font-style:italic;font-size:10.0px; fill:rgb(0,0,0); stroke:none; baseline-shift:-10.0px; ">
   Tech &amp; Info
</text>
<text transform="translate(403.0,111.0), rotate(-0.0)" x="0px" y="0px" textLength="60.0px"
 style="font-family:Arial; font-style:italic;font-size:10.0px; fill:rgb(0,0,0); stroke:none; baseline-shift:-10.0px; ">
   Infrastructure
</text>
<ellipse cx="454.5px" cy="274.5px" rx="75.0px" ry="39.5px" style="fill:rgb(255,255,255); stroke:rgb(0,0,0); stroke-width:1.0px;"/>
<text transform="translate(421.0,258.0), rotate(-0.0)" x="0px" y="0px" textLength="65.0px"
 style="font-family:Arial; font-size:13.0px; fill:rgb(0,0,0); stroke:none; baseline-shift:-13.0px; ">
   Purchasing
</text>
<text transform="translate(424.0,274.0), rotate(-0.0)" x="0px" y="0px" textLength="60.0px"
 style="font-family:Arial; font-size:13.0px; fill:rgb(0,0,0); stroke:none; baseline-shift:-13.0px; ">
   equipment
</text>
<line x1="435.0px" y1="229.0px" x2="447.0px" y2="234.0px" style="stroke:rgb(0,0,0); stroke-width:1.0px;"/>
<line x1="435.0px" y1="240.0px" x2="447.0px" y2="234.0px" style="stroke:rgb(0,0,0); stroke-width:1.0px;"/>
<line x1="477.0px" y1="308.0px" x2="466.0px" y2="314.0px" style="stroke:rgb(0,0,0); stroke-width:1.0px;"/>
<line x1="477.0px" y1="319.0px" x2="466.0px" y2="314.0px" style="stroke:rgb(0,0,0); stroke-width:1.0px;"/>
<rect x="449.5px" y="302.5px" width="11.0px" height="12.0px" rx="0.0px" ry="0.0px" style="fill:rgb(255,255,255); stroke:rgb(0,0,0); stroke-width:1.0px;"/>
<text transform="translate(451.0,300.0), rotate(-0.0)" x="0px" y="0px" textLength="8.0px"
 style="font-family:Arial; font-size:13.0px; fill:rgb(0,0,0); stroke:none; baseline-shift:-13.0px; ">
   +
</text>
<ellipse cx="605.5px" cy="274.5px" rx="65.5px" ry="39.0px" style="fill:rgb(251,224,70); stroke:rgb(0,0,0); stroke-width:1.0px;"/>
<text transform="translate(579.0,258.0), rotate(-0.0)" x="0px" y="0px" textLength="52.0px"
 style="font-family:Arial; font-size:13.0px; fill:rgb(0,0,0); stroke:none; baseline-shift:-13.0px; ">
   Servicing
</text>
<text transform="translate(574.0,274.0), rotate(-0.0)" x="0px" y="0px" textLength="61.0px"
 style="font-family:Arial; font-size:13.0px; fill:rgb(0,0,0); stroke:none; baseline-shift:-13.0px; ">
   robots XXX
</text>
<line x1="587.0px" y1="229.0px" x2="598.0px" y2="235.0px" style="stroke:rgb(0,0,0); stroke-width:1.0px;"/>
<line x1="587.0px" y1="240.0px" x2="598.0px" y2="235.0px" style="stroke:rgb(0,0,0); stroke-width:1.0px;"/>
<line x1="628.0px" y1="308.0px" x2="617.0px" y2="313.0px" style="stroke:rgb(0,0,0); stroke-width:1.0px;"/>
<line x1="628.0px" y1="319.0px" x2="617.0px" y2="313.0px" style="stroke:rgb(0,0,0); stroke-width:1.0px;"/>
<rect x="600.5px" y="302.5px" width="11.0px" height="11.0px" rx="0.0px" ry="0.0px" style="fill:rgb(255,255,255); stroke:rgb(0,0,0); stroke-width:1.0px;"/>
<text transform="translate(602.0,300.0), rotate(-0.0)" x="0px" y="0px" textLength="8.0px"
 style="font-family:Arial; font-size:13.0px; fill:rgb(0,0,0); stroke:none; baseline-shift:-13.0px; ">
   +
</text>
<path d="M 408.0 396.0 L 437.0 319.0" style="fill:none; stroke:rgb(0,0,0); stroke-width:1.0px;"/>
<polyline points=" 428.0,330.0 437.0,319.0 436.0,333.0 " style="fill:none; stroke:rgb(0,0,0); stroke-width:1.0px;"/>
<text transform="translate(413.0,337.0), rotate(-0.0)" x="0px" y="0px" textLength="34.0px"
 style="font-family:Arial; font-style:italic;font-size:10.0px; fill:rgb(0,0,0); stroke:none; baseline-shift:-10.0px; ">
   Partner
</text>
<path d="M 437.0 396.0 L 481.0 364.0 L 490.0 357.0 L 543.0 319.0" style="fill:none; stroke:rgb(0,0,0); stroke-width:1.0px;"/>
<polyline points=" 530.0,323.0 543.0,319.0 535.0,330.0 " style="fill:none; stroke:rgb(0,0,0); stroke-width:1.0px;"/>
<text transform="translate(497.0,340.0), rotate(-0.0)" x="0px" y="0px" textLength="34.0px"
 style="font-family:Arial; font-style:italic;font-size:10.0px; fill:rgb(0,0,0); stroke:none; baseline-shift:-10.0px; ">
   Partner
</text>
<path d="M 472.0 229.0 L 472.0 186.0" style="fill:none; stroke:rgb(0,0,0); stroke-dasharray:5 3; stroke-width:1.0px;"/>
<polyline points=" 468.0,198.0 472.0,186.0 477.0,198.0 " style="fill:none; stroke:rgb(0,0,0); stroke-width:1.0px;"/>
<text transform="translate(455.0,209.0), rotate(-0.0)" x="0px" y="0px" textLength="36.0px"
 style="font-family:Arial; font-style:italic;font-size:10.0px; fill:rgb(0,0,0); stroke:none; baseline-shift:-10.0px; ">
   Acquire
</text>
<path d="M 577.0 229.0 L 567.0 213.0 L 561.0 203.0 L 551.0 186.0" style="fill:none; stroke:rgb(0,0,0); stroke-dasharray:5 3; stroke-width:1.0px;"/>
<polyline points=" 554.0,199.0 551.0,186.0 561.0,194.0 " style="fill:none; stroke:rgb(0,0,0); stroke-width:1.0px;"/>
<text transform="translate(550.0,218.0), rotate(-0.0)" x="0px" y="0px" textLength="41.0px"
 style="font-family:Arial; font-style:italic;font-size:10.0px; fill:rgb(0,0,0); stroke:none; baseline-shift:-10.0px; ">
   Maintain
</text>
<path d="M 538.0 525.0 L 608.0 477.0 C 611.0 475.0 614.0 469.0 614.0 465.0 L 614.0 325.0" style="fill:none; stroke:rgb(0,0,0); stroke-width:1.0px;"/>
<polyline points=" 610.0,337.0 614.0,325.0 618.0,337.0 " style="fill:none; stroke:rgb(0,0,0); stroke-width:1.0px;"/>
<text transform="translate(538.0,507.0), rotate(-0.0)" x="0px" y="0px" textLength="53.0px"
 style="font-family:Arial; font-style:italic;font-size:10.0px; fill:rgb(0,0,0); stroke:none; baseline-shift:-10.0px; ">
   Tech &amp; Info
</text>
<text transform="translate(535.0,520.0), rotate(-0.0)" x="0px" y="0px" textLength="60.0px"
 style="font-family:Arial; font-style:italic;font-size:10.0px; fill:rgb(0,0,0); stroke:none; baseline-shift:-10.0px; ">
   Infrastructure
</text>
<path d="M 384.0 533.0 L 588.0 465.0 C 592.0 464.0 595.0 459.0 595.0 455.0 L 595.0 319.0" style="fill:none; stroke:rgb(0,0,0); stroke-width:1.0px;"/>
<polyline points=" 591.0,331.0 595.0,319.0 599.0,331.0 " style="fill:none; stroke:rgb(0,0,0); stroke-width:1.0px;"/>
<text transform="translate(516.0,482.0), rotate(-0.0)" x="0px" y="0px" textLength="46.0px"
 style="font-family:Arial; font-style:italic;font-size:10.0px; fill:rgb(0,0,0); stroke:none; baseline-shift:-10.0px; ">
   Workforce
</text>
<path d="M 198.0 528.0 L 220.0 514.0 C 224.0 513.0 231.0 509.0 234.0 509.0 L 578.0 446.0 C 582.0 445.0 586.0 440.0 586.0 437.0 L 586.0 319.0" style="fill:none; stroke:rgb(0,0,0); stroke-width:1.0px;"/>
<polyline points=" 582.0,331.0 586.0,319.0 590.0,331.0 " style="fill:none; stroke:rgb(0,0,0); stroke-width:1.0px;"/>
<text transform="translate(448.0,465.0), rotate(-0.0)" x="0px" y="0px" textLength="46.0px"
 style="font-family:Arial; font-style:italic;font-size:10.0px; fill:rgb(0,0,0); stroke:none; baseline-shift:-10.0px; ">
   Workforce
</text>
<ellipse cx="180.5px" cy="652.5px" rx="84.5px" ry="36.5px" style="fill:rgb(134,195,244); stroke:rgb(0,0,0); stroke-width:1.0px;"/>
<text transform="translate(117.0,644.0), rotate(-0.0)" x="0px" y="0px" textLength="126.0px"
 style="font-family:Arial; font-size:13.0px; fill:rgb(0,0,0); stroke:none; baseline-shift:-13.0px; ">
   Software development
</text>
<line x1="161.0px" y1="610.0px" x2="173.0px" y2="615.0px" style="stroke:rgb(0,0,0); stroke-width:1.0px;"/>
<line x1="161.0px" y1="621.0px" x2="173.0px" y2="615.0px" style="stroke:rgb(0,0,0); stroke-width:1.0px;"/>
<line x1="203.0px" y1="683.0px" x2="192.0px" y2="689.0px" style="stroke:rgb(0,0,0); stroke-width:1.0px;"/>
<line x1="203.0px" y1="694.0px" x2="192.0px" y2="689.0px" style="stroke:rgb(0,0,0); stroke-width:1.0px;"/>
<rect x="175.5px" y="677.5px" width="11.0px" height="12.0px" rx="0.0px" ry="0.0px" style="fill:rgb(255,255,255); stroke:rgb(0,0,0); stroke-width:1.0px;"/>
<text transform="translate(177.0,675.0), rotate(-0.0)" x="0px" y="0px" textLength="8.0px"
 style="font-family:Arial; font-size:13.0px; fill:rgb(0,0,0); stroke:none; baseline-shift:-13.0px; ">
   +
</text>
<path d="M 199.0 730.0 L 192.0 700.0" style="fill:none; stroke:rgb(0,0,0); stroke-width:1.0px;"/>
<polyline points=" 190.0,713.0 192.0,700.0 199.0,711.0 " style="fill:none; stroke:rgb(0,0,0); stroke-width:1.0px;"/>
<text transform="translate(173.0,715.0), rotate(-0.0)" x="0px" y="0px" textLength="46.0px"
 style="font-family:Arial; font-style:italic;font-size:10.0px; fill:rgb(0,0,0); stroke:none; baseline-shift:-10.0px; ">
   Workforce
</text>
<path d="M 271.0 624.0 L 420.0 579.0" style="fill:none; stroke:rgb(0,0,0); stroke-dasharray:5 3; stroke-width:1.0px;"/>
<polyline points=" 407.0,579.0 420.0,579.0 410.0,587.0 " style="fill:none; stroke:rgb(0,0,0); stroke-width:1.0px;"/>
<text transform="translate(333.0,600.0), rotate(-0.0)" x="0px" y="0px" textLength="36.0px"
 style="font-family:Arial; font-style:italic;font-size:10.0px; fill:rgb(0,0,0); stroke:none; baseline-shift:-10.0px; ">
   Acquire
</text>
<ellipse cx="406.5px" cy="690.5px" rx="84.5px" ry="36.5px" style="fill:rgb(134,195,244); stroke:rgb(0,0,0); stroke-width:1.0px;"/>
<text transform="translate(342.0,682.0), rotate(-0.0)" x="0px" y="0px" textLength="128.0px"
 style="font-family:Arial; font-size:13.0px; fill:rgb(0,0,0); stroke:none; baseline-shift:-13.0px; ">
   Software maintanance
</text>
<line x1="388.0px" y1="647.0px" x2="399.0px" y2="653.0px" style="stroke:rgb(0,0,0); stroke-width:1.0px;"/>
<line x1="388.0px" y1="659.0px" x2="399.0px" y2="653.0px" style="stroke:rgb(0,0,0); stroke-width:1.0px;"/>
<line x1="430.0px" y1="721.0px" x2="418.0px" y2="726.0px" style="stroke:rgb(0,0,0); stroke-width:1.0px;"/>
<line x1="430.0px" y1="732.0px" x2="418.0px" y2="726.0px" style="stroke:rgb(0,0,0); stroke-width:1.0px;"/>
<rect x="401.5px" y="715.5px" width="12.0px" height="11.0px" rx="0.0px" ry="0.0px" style="fill:rgb(255,255,255); stroke:rgb(0,0,0); stroke-width:1.0px;"/>
<text transform="translate(404.0,713.0), rotate(-0.0)" x="0px" y="0px" textLength="8.0px"
 style="font-family:Arial; font-size:13.0px; fill:rgb(0,0,0); stroke:none; baseline-shift:-13.0px; ">
   +
</text>
<path d="M 434.0 647.0 L 471.0 590.0" style="fill:none; stroke:rgb(0,0,0); stroke-dasharray:5 3; stroke-width:1.0px;"/>
<polyline points=" 460.0,598.0 471.0,590.0 467.0,603.0 " style="fill:none; stroke:rgb(0,0,0); stroke-width:1.0px;"/>
<text transform="translate(432.0,619.0), rotate(-0.0)" x="0px" y="0px" textLength="41.0px"
 style="font-family:Arial; font-style:italic;font-size:10.0px; fill:rgb(0,0,0); stroke:none; baseline-shift:-10.0px; ">
   Maintain
</text>
<path d="M 248.0 730.0 L 287.0 695.0 C 290.0 692.0 297.0 690.0 300.0 690.0 L 316.0 690.0" style="fill:none; stroke:rgb(0,0,0); stroke-width:1.0px;"/>
<polyline points=" 303.0,686.0 316.0,690.0 303.0,694.0 " style="fill:none; stroke:rgb(0,0,0); stroke-width:1.0px;"/>
<text transform="translate(256.0,702.0), rotate(-0.0)" x="0px" y="0px" textLength="46.0px"
 style="font-family:Arial; font-style:italic;font-size:10.0px; fill:rgb(0,0,0); stroke:none; baseline-shift:-10.0px; ">
   Workforce
</text>
<path d="M 499.0 396.0 L 488.0 365.0 C 485.0 367.0 482.0 365.0 480.0 362.0 480.0 359.0 481.0 356.0 484.0 355.0 L 473.0 325.0" style="fill:none; stroke:rgb(0,0,0); stroke-width:1.0px;"/>
<polyline points=" 473.0,338.0 473.0,325.0 481.0,335.0 " style="fill:none; stroke:rgb(0,0,0); stroke-width:1.0px;"/>
<text transform="translate(468.0,339.0), rotate(-0.0)" x="0px" y="0px" textLength="20.0px"
 style="font-family:Arial; font-style:italic;font-size:10.0px; fill:rgb(0,0,0); stroke:none; baseline-shift:-10.0px; ">
   EXT
</text>
<path d="M 529.0 396.0 L 577.0 319.0" style="fill:none; stroke:rgb(0,0,0); stroke-width:1.0px;"/>
<polyline points=" 567.0,327.0 577.0,319.0 574.0,332.0 " style="fill:none; stroke:rgb(0,0,0); stroke-width:1.0px;"/>
<text transform="translate(543.0,358.0), rotate(-0.0)" x="0px" y="0px" textLength="20.0px"
 style="font-family:Arial; font-style:italic;font-size:10.0px; fill:rgb(0,0,0); stroke:none; baseline-shift:-10.0px; ">
   EXT
</text>
<path d="M 633.0 325.0 L 633.0 446.0 C 633.0 450.0 632.0 457.0 631.0 461.0 L 588.0 588.0 C 587.0 592.0 586.0 599.0 586.0 603.0 L 586.0 606.0" style="fill:none; stroke:rgb(0,0,0); stroke-dasharray:5 3; stroke-width:1.0px;"/>
<polyline points=" 590.0,593.0 586.0,606.0 582.0,593.0 " style="fill:none; stroke:rgb(0,0,0); stroke-width:1.0px;"/>
<text transform="translate(602.0,494.0), rotate(-0.0)" x="0px" y="0px" textLength="36.0px"
 style="font-family:Arial; font-style:italic;font-size:10.0px; fill:rgb(0,0,0); stroke:none; baseline-shift:-10.0px; ">
   Acquire
</text>
<text transform="translate(599.0,508.0), rotate(-0.0)" x="0px" y="0px" textLength="41.0px"
 style="font-family:Arial; font-style:italic;font-size:10.0px; fill:rgb(0,0,0); stroke:none; baseline-shift:-10.0px; ">
   Maintain
</text>
<path d="M 491.0 229.0 L 491.0 215.0 C 491.0 212.0 495.0 208.0 499.0 208.0 L 558.0 208.0 C 558.0 205.0 561.0 202.0 564.0 202.0 567.0 202.0 570.0 205.0 570.0 208.0 L 673.0 208.0 C 677.0 208.0 680.0 212.0 680.0 215.0 L 680.0 437.0 C 680.0 440.0 679.0 447.0 677.0 451.0 L 603.0 606.0" style="fill:none; stroke:rgb(0,0,0); stroke-dasharray:5 3; stroke-width:1.0px;"/>
<polyline points=" 612.0,596.0 603.0,606.0 605.0,593.0 " style="fill:none; stroke:rgb(0,0,0); stroke-width:1.0px;"/>
<text transform="translate(618.0,538.0), rotate(-0.0)" x="0px" y="0px" textLength="36.0px"
 style="font-family:Arial; font-style:italic;font-size:10.0px; fill:rgb(0,0,0); stroke:none; baseline-shift:-10.0px; ">
   Acquire
</text>
<text transform="translate(615.0,551.0), rotate(-0.0)" x="0px" y="0px" textLength="41.0px"
 style="font-family:Arial; font-style:italic;font-size:10.0px; fill:rgb(0,0,0); stroke:none; baseline-shift:-10.0px; ">
   Maintain
</text>
<path d="M 423.0 47.0 L 486.0 47.0" style="fill:none; stroke:rgb(0,0,0); stroke-dasharray:5 3; stroke-width:1.0px;"/>
<polyline points=" 474.0,43.0 486.0,47.0 474.0,51.0 " style="fill:none; stroke:rgb(0,0,0); stroke-width:1.0px;"/>
<text transform="translate(437.0,47.0), rotate(-0.0)" x="0px" y="0px" textLength="36.0px"
 style="font-family:Arial; font-style:italic;font-size:10.0px; fill:rgb(0,0,0); stroke:none; baseline-shift:-10.0px; ">
   Acquire
</text>
<text transform="translate(435.0,60.0), rotate(-0.0)" x="0px" y="0px" textLength="41.0px"
 style="font-family:Arial; font-style:italic;font-size:10.0px; fill:rgb(0,0,0); stroke:none; baseline-shift:-10.0px; ">
   Maintain
</text>
<ellipse cx="246.5px" cy="274.5px" rx="65.5px" ry="34.0px" style="fill:rgb(255,255,255); stroke:rgb(0,0,0); stroke-width:1.0px;"/>
<text transform="translate(229.0,266.0), rotate(-0.0)" x="0px" y="0px" textLength="33.0px"
 style="font-family:Arial; font-size:13.0px; fill:rgb(0,0,0); stroke:none; baseline-shift:-13.0px; ">
   Sales
</text>
<line x1="228.0px" y1="234.0px" x2="239.0px" y2="240.0px" style="stroke:rgb(0,0,0); stroke-width:1.0px;"/>
<line x1="228.0px" y1="246.0px" x2="239.0px" y2="240.0px" style="stroke:rgb(0,0,0); stroke-width:1.0px;"/>
<line x1="269.0px" y1="302.0px" x2="258.0px" y2="308.0px" style="stroke:rgb(0,0,0); stroke-width:1.0px;"/>
<line x1="269.0px" y1="314.0px" x2="258.0px" y2="308.0px" style="stroke:rgb(0,0,0); stroke-width:1.0px;"/>
<rect x="241.5px" y="297.5px" width="11.0px" height="11.0px" rx="0.0px" ry="0.0px" style="fill:rgb(255,255,255); stroke:rgb(0,0,0); stroke-width:1.0px;"/>
<text transform="translate(243.0,294.0), rotate(-0.0)" x="0px" y="0px" textLength="8.0px"
 style="font-family:Arial; font-size:13.0px; fill:rgb(0,0,0); stroke:none; baseline-shift:-13.0px; ">
   +
</text>
<path d="M 213.0 234.0 L 181.0 196.0" style="fill:none; stroke:rgb(0,0,0); stroke-dasharray:5 3; stroke-width:1.0px;"/>
<polyline points=" 186.0,208.0 181.0,196.0 192.0,203.0 " style="fill:none; stroke:rgb(0,0,0); stroke-width:1.0px;"/>
<text transform="translate(176.0,211.0), rotate(-0.0)" x="0px" y="0px" textLength="36.0px"
 style="font-family:Arial; font-style:italic;font-size:10.0px; fill:rgb(0,0,0); stroke:none; baseline-shift:-10.0px; ">
   Acquire
</text>
<text transform="translate(173.0,225.0), rotate(-0.0)" x="0px" y="0px" textLength="41.0px"
 style="font-family:Arial; font-style:italic;font-size:10.0px; fill:rgb(0,0,0); stroke:none; baseline-shift:-10.0px; ">
   Maintain
</text>
<path d="M 272.0 234.0 L 297.0 196.0" style="fill:none; stroke:rgb(0,0,0); stroke-dasharray:5 3; stroke-width:1.0px;"/>
<polyline points=" 287.0,204.0 297.0,196.0 294.0,209.0 " style="fill:none; stroke:rgb(0,0,0); stroke-width:1.0px;"/>
<text transform="translate(267.0,215.0), rotate(-0.0)" x="0px" y="0px" textLength="36.0px"
 style="font-family:Arial; font-style:italic;font-size:10.0px; fill:rgb(0,0,0); stroke:none; baseline-shift:-10.0px; ">
   Acquire
</text>
<path d="M 252.0 351.0 L 249.0 316.0" style="fill:none; stroke:rgb(0,0,0); stroke-width:1.0px;"/>
<polyline points=" 246.0,329.0 249.0,316.0 254.0,328.0 " style="fill:none; stroke:rgb(0,0,0); stroke-width:1.0px;"/>
<text transform="translate(228.0,326.0), rotate(-0.0)" x="0px" y="0px" textLength="45.0px"
 style="font-family:Arial; font-style:italic;font-size:10.0px; fill:rgb(0,0,0); stroke:none; baseline-shift:-10.0px; ">
   Attraction
</text>
</g>
</svg>
