<?xml version="1.0" encoding="UTF-8" standalone="no"?>
<svg width="792.0px" height="1121.0px" version="1.1" xmlns="http://www.w3.org/2000/svg" xmlns:xlink="http://www.w3.org/1999/xlink">
<g>
<rect x="0.0px" y="0.0px" width="792.0px" height="1121.0px" rx="0.0px" ry="0.0px" style="fill:rgb(255,255,255);"/>
<rect x="217.5px" y="132.5px" width="114.0px" height="57.0px" rx="0.0px" ry="0.0px" style="fill:rgb(134,195,244); stroke:rgb(0,0,0); stroke-width:1.0px;"/>
<text transform="translate(227.0,144.0), rotate(-0.0)" x="0px" y="0px" textLength="94.0px"
 style="font-family:Arial; font-size:13.0px; fill:rgb(0,0,0); stroke:none; baseline-shift:-13.0px; ">
   Used in creating
</text>
<text transform="translate(224.0,161.0), rotate(-0.0)" x="0px" y="0px" textLength="101.0px"
 style="font-family:Arial; font-size:13.0px; fill:rgb(0,0,0); stroke:none; baseline-shift:-13.0px; ">
   the new business
</text>
<rect x="567.5px" y="85.5px" width="113.0px" height="57.0px" rx="11.0px" ry="10.0px" style="fill:rgb(134,195,244); stroke:rgb(0,0,0); stroke-linecap:round; stroke-linejoin:bevel; stroke-width:1.0px;"/>
<text transform="translate(577.0,97.0), rotate(-0.0)" x="0px" y="0px" textLength="94.0px"
 style="font-family:Arial; font-size:13.0px; fill:rgb(0,0,0); stroke:none; baseline-shift:-13.0px; ">
   Used in creating
</text>
<text transform="translate(573.0,113.0), rotate(-0.0)" x="0px" y="0px" textLength="101.0px"
 style="font-family:Arial; font-size:13.0px; fill:rgb(0,0,0); stroke:none; baseline-shift:-13.0px; ">
   the new business
</text>
<ellipse cx="104.5px" cy="151.5px" rx="75.5px" ry="43.0px" style="fill:rgb(134,195,244); stroke:rgb(0,0,0); stroke-width:1.0px;"/>
<text transform="translate(57.0,135.0), rotate(-0.0)" x="0px" y="0px" textLength="94.0px"
 style="font-family:Arial; font-size:13.0px; fill:rgb(0,0,0); stroke:none; baseline-shift:-13.0px; ">
   Used in creating
</text>
<text transform="translate(54.0,151.0), rotate(-0.0)" x="0px" y="0px" textLength="101.0px"
 style="font-family:Arial; font-size:13.0px; fill:rgb(0,0,0); stroke:none; baseline-shift:-13.0px; ">
   the new business
</text>
<line x1="85.0px" y1="104.0px" x2="96.0px" y2="108.0px" style="stroke:rgb(0,0,0); stroke-width:1.0px;"/>
<line x1="85.0px" y1="117.0px" x2="96.0px" y2="108.0px" style="stroke:rgb(0,0,0); stroke-width:1.0px;"/>
<line x1="130.0px" y1="185.0px" x2="119.0px" y2="193.0px" style="stroke:rgb(0,0,0); stroke-width:1.0px;"/>
<line x1="130.0px" y1="198.0px" x2="119.0px" y2="193.0px" style="stroke:rgb(0,0,0); stroke-width:1.0px;"/>
<ellipse cx="435.5px" cy="113.5px" rx="75.5px" ry="43.0px" style="fill:rgb(255,0,0); stroke:rgb(0,0,0); stroke-width:1.0px;"/>
<text transform="translate(402.0,97.0), rotate(-0.0)" x="0px" y="0px" textLength="66.0px"
 style="font-family:Arial; font-size:13.0px; fill:rgb(0,0,0); stroke:none; baseline-shift:-13.0px; ">
   Transitional
</text>
<text transform="translate(412.0,113.0), rotate(-0.0)" x="0px" y="0px" textLength="46.0px"
 style="font-family:Arial; font-size:13.0px; fill:rgb(0,0,0); stroke:none; baseline-shift:-13.0px; ">
   process
</text>
<line x1="416.0px" y1="66.0px" x2="427.0px" y2="70.0px" style="stroke:rgb(0,0,0); stroke-width:1.0px;"/>
<line x1="416.0px" y1="79.0px" x2="427.0px" y2="70.0px" style="stroke:rgb(0,0,0); stroke-width:1.0px;"/>
<line x1="461.0px" y1="147.0px" x2="450.0px" y2="155.0px" style="stroke:rgb(0,0,0); stroke-width:1.0px;"/>
<line x1="461.0px" y1="160.0px" x2="450.0px" y2="155.0px" style="stroke:rgb(0,0,0); stroke-width:1.0px;"/>
<ellipse cx="104.5px" cy="57.5px" rx="75.5px" ry="38.5px" style="fill:rgb(253,205,172); stroke:rgb(0,0,0); stroke-width:1.0px;"/>
<text transform="translate(57.0,49.0), rotate(-0.0)" x="0px" y="0px" textLength="95.0px"
 style="font-family:Arial; font-size:13.0px; fill:rgb(0,0,0); stroke:none; baseline-shift:-13.0px; ">
   Primary process
</text>
<line x1="85.0px" y1="14.0px" x2="96.0px" y2="18.0px" style="stroke:rgb(0,0,0); stroke-width:1.0px;"/>
<line x1="85.0px" y1="26.0px" x2="96.0px" y2="18.0px" style="stroke:rgb(0,0,0); stroke-width:1.0px;"/>
<line x1="130.0px" y1="87.0px" x2="119.0px" y2="94.0px" style="stroke:rgb(0,0,0); stroke-width:1.0px;"/>
<line x1="130.0px" y1="99.0px" x2="119.0px" y2="94.0px" style="stroke:rgb(0,0,0); stroke-width:1.0px;"/>
<ellipse cx="274.5px" cy="57.5px" rx="85.0px" ry="43.0px" style="fill:rgb(251,224,70); stroke:rgb(0,0,0); stroke-width:1.0px;"/>
<text transform="translate(226.0,40.0), rotate(-0.0)" x="0px" y="0px" textLength="97.0px"
 style="font-family:Arial; font-size:13.0px; fill:rgb(0,0,0); stroke:none; baseline-shift:-13.0px; ">
   A base for a new
</text>
<text transform="translate(253.0,57.0), rotate(-0.0)" x="0px" y="0px" textLength="43.0px"
 style="font-family:Arial; font-size:13.0px; fill:rgb(0,0,0); stroke:none; baseline-shift:-13.0px; ">
   primary
</text>
<line x1="253.0px" y1="9.0px" x2="266.0px" y2="14.0px" style="stroke:rgb(0,0,0); stroke-width:1.0px;"/>
<line x1="253.0px" y1="22.0px" x2="266.0px" y2="14.0px" style="stroke:rgb(0,0,0); stroke-width:1.0px;"/>
<line x1="304.0px" y1="91.0px" x2="291.0px" y2="99.0px" style="stroke:rgb(0,0,0); stroke-width:1.0px;"/>
<line x1="304.0px" y1="104.0px" x2="291.0px" y2="99.0px" style="stroke:rgb(0,0,0); stroke-width:1.0px;"/>
</g>
</svg>
