<?xml version="1.0" encoding="UTF-8" standalone="no"?>
<svg width="716.0px" height="673.0px" version="1.1" xmlns="http://www.w3.org/2000/svg" xmlns:xlink="http://www.w3.org/1999/xlink">
<g>
<rect x="0.0px" y="0.0px" width="716.0px" height="673.0px" rx="0.0px" ry="0.0px" style="fill:rgb(255,255,255);"/>
<rect x="265.5px" y="514.5px" width="133.0px" height="59.0px" rx="0.0px" ry="0.0px" style="fill:rgb(221,238,255); stroke:rgb(0,0,0); stroke-width:1.0px;"/>
<text transform="translate(280.0,535.0), rotate(-0.0)" x="0px" y="0px" textLength="103.0px"
 style="font-family:Arial; font-size:13.0px; fill:rgb(0,0,0); stroke:none; baseline-shift:-13.0px; ">
   Equipment vendor
</text>
<polygon points=" 398.0,504.0 390.0,497.0 390.0,500.0 375.0,500.0 375.0,509.0 390.0,509.0 390.0,512.0 " style="fill:rgb(221,238,255); stroke:rgb(0,0,0); stroke-width:1.0px;"/>
<rect x="326.5px" y="562.5px" width="11.0px" height="11.0px" rx="0.0px" ry="0.0px" style="fill:rgb(255,255,255); stroke:rgb(0,0,0); stroke-width:1.0px;"/>
<text transform="translate(328.0,559.0), rotate(-0.0)" x="0px" y="0px" textLength="8.0px"
 style="font-family:Arial; font-size:13.0px; fill:rgb(0,0,0); stroke:none; baseline-shift:-13.0px; ">
   +
</text>
<rect x="398.5px" y="156.5px" width="132.0px" height="57.0px" rx="0.0px" ry="0.0px" style="fill:rgb(221,238,255); stroke:rgb(0,0,0); stroke-width:1.0px;"/>
<text transform="translate(427.0,168.0), rotate(-0.0)" x="0px" y="0px" textLength="74.0px"
 style="font-family:Arial; font-size:13.0px; fill:rgb(0,0,0); stroke:none; baseline-shift:-13.0px; ">
   Diagnostic &amp;
</text>
<text transform="translate(410.0,184.0), rotate(-0.0)" x="0px" y="0px" textLength="108.0px"
 style="font-family:Arial; font-size:13.0px; fill:rgb(0,0,0); stroke:none; baseline-shift:-13.0px; ">
   Predictive software
</text>
<polygon points=" 530.0,146.0 522.0,139.0 522.0,142.0 507.0,142.0 507.0,151.0 522.0,151.0 522.0,154.0 " style="fill:rgb(221,238,255); stroke:rgb(0,0,0); stroke-width:1.0px;"/>
<rect x="458.5px" y="201.5px" width="11.0px" height="12.0px" rx="0.0px" ry="0.0px" style="fill:rgb(255,255,255); stroke:rgb(0,0,0); stroke-width:1.0px;"/>
<text transform="translate(460.0,199.0), rotate(-0.0)" x="0px" y="0px" textLength="8.0px"
 style="font-family:Arial; font-size:13.0px; fill:rgb(0,0,0); stroke:none; baseline-shift:-13.0px; ">
   +
</text>
<rect x="558.5px" y="400.5px" width="133.0px" height="60.0px" rx="0.0px" ry="0.0px" style="fill:rgb(221,238,255); stroke:rgb(0,0,0); stroke-width:1.0px;"/>
<text transform="translate(581.0,422.0), rotate(-0.0)" x="0px" y="0px" textLength="87.0px"
 style="font-family:Arial; font-size:13.0px; fill:rgb(0,0,0); stroke:none; baseline-shift:-13.0px; ">
   Data scientists
</text>
<polygon points=" 691.0,391.0 683.0,383.0 683.0,386.0 668.0,386.0 668.0,395.0 683.0,395.0 683.0,398.0 " style="fill:rgb(221,238,255); stroke:rgb(0,0,0); stroke-width:1.0px;"/>
<rect x="619.5px" y="448.5px" width="11.0px" height="12.0px" rx="0.0px" ry="0.0px" style="fill:rgb(255,255,255); stroke:rgb(0,0,0); stroke-width:1.0px;"/>
<text transform="translate(621.0,446.0), rotate(-0.0)" x="0px" y="0px" textLength="8.0px"
 style="font-family:Arial; font-size:13.0px; fill:rgb(0,0,0); stroke:none; baseline-shift:-13.0px; ">
   +
</text>
<rect x="209.5px" y="139.5px" width="149.0px" height="62.0px" rx="0.0px" ry="0.0px" style="fill:rgb(255,255,255); stroke:rgb(0,0,0); stroke-width:1.0px;"/>
<text transform="translate(216.0,154.0), rotate(-0.0)" x="0px" y="0px" textLength="135.0px"
 style="font-family:Arial; font-size:13.0px; fill:rgb(0,0,0); stroke:none; baseline-shift:-13.0px; ">
   Customers who licence
</text>
<text transform="translate(232.0,170.0), rotate(-0.0)" x="0px" y="0px" textLength="104.0px"
 style="font-family:Arial; font-size:13.0px; fill:rgb(0,0,0); stroke:none; baseline-shift:-13.0px; ">
   predivtive software
</text>
<rect x="279.5px" y="190.5px" width="11.0px" height="11.0px" rx="0.0px" ry="0.0px" style="fill:rgb(255,255,255); stroke:rgb(0,0,0); stroke-width:1.0px;"/>
<text transform="translate(281.0,188.0), rotate(-0.0)" x="0px" y="0px" textLength="8.0px"
 style="font-family:Arial; font-size:13.0px; fill:rgb(0,0,0); stroke:none; baseline-shift:-13.0px; ">
   +
</text>
<rect x="132.5px" y="394.5px" width="151.0px" height="63.0px" rx="0.0px" ry="0.0px" style="fill:rgb(255,255,255); stroke:rgb(0,0,0); stroke-width:1.0px;"/>
<text transform="translate(146.0,409.0), rotate(-0.0)" x="0px" y="0px" textLength="125.0px"
 style="font-family:Arial; font-size:13.0px; fill:rgb(0,0,0); stroke:none; baseline-shift:-13.0px; ">
   New contract with the
</text>
<text transform="translate(190.0,425.0), rotate(-0.0)" x="0px" y="0px" textLength="37.0px"
 style="font-family:Arial; font-size:13.0px; fill:rgb(0,0,0); stroke:none; baseline-shift:-13.0px; ">
   vendor
</text>
<rect x="203.5px" y="445.5px" width="11.0px" height="12.0px" rx="0.0px" ry="0.0px" style="fill:rgb(255,255,255); stroke:rgb(0,0,0); stroke-width:1.0px;"/>
<text transform="translate(205.0,443.0), rotate(-0.0)" x="0px" y="0px" textLength="8.0px"
 style="font-family:Arial; font-size:13.0px; fill:rgb(0,0,0); stroke:none; baseline-shift:-13.0px; ">
   +
</text>
<rect x="573.5px" y="142.5px" width="139.0px" height="56.0px" rx="0.0px" ry="0.0px" style="fill:rgb(255,255,255); stroke:rgb(0,0,0); stroke-width:1.0px;"/>
<text transform="translate(582.0,162.0), rotate(-0.0)" x="0px" y="0px" textLength="122.0px"
 style="font-family:Arial; font-size:13.0px; fill:rgb(0,0,0); stroke:none; baseline-shift:-13.0px; ">
   Installation engineers
</text>
<rect x="638.5px" y="186.5px" width="11.0px" height="12.0px" rx="0.0px" ry="0.0px" style="fill:rgb(255,255,255); stroke:rgb(0,0,0); stroke-width:1.0px;"/>
<text transform="translate(640.0,184.0), rotate(-0.0)" x="0px" y="0px" textLength="8.0px"
 style="font-family:Arial; font-size:13.0px; fill:rgb(0,0,0); stroke:none; baseline-shift:-13.0px; ">
   +
</text>
<rect x="478.5px" y="592.5px" width="140.0px" height="63.0px" rx="0.0px" ry="0.0px" style="fill:rgb(255,255,255); stroke:rgb(0,0,0); stroke-width:1.0px;"/>
<text transform="translate(496.0,616.0), rotate(-0.0)" x="0px" y="0px" textLength="105.0px"
 style="font-family:Arial; font-size:13.0px; fill:rgb(0,0,0); stroke:none; baseline-shift:-13.0px; ">
   Support engineers
</text>
<rect x="543.5px" y="644.5px" width="11.0px" height="11.0px" rx="0.0px" ry="0.0px" style="fill:rgb(255,255,255); stroke:rgb(0,0,0); stroke-width:1.0px;"/>
<text transform="translate(545.0,641.0), rotate(-0.0)" x="0px" y="0px" textLength="8.0px"
 style="font-family:Arial; font-size:13.0px; fill:rgb(0,0,0); stroke:none; baseline-shift:-13.0px; ">
   +
</text>
<rect x="5.5px" y="456.5px" width="104.0px" height="43.0px" rx="0.0px" ry="0.0px" style="fill:rgb(221,238,255); stroke:rgb(0,0,0); stroke-width:1.0px;"/>
<text transform="translate(36.0,461.0), rotate(-0.0)" x="0px" y="0px" textLength="42.0px"
 style="font-family:Arial; font-size:13.0px; fill:rgb(0,0,0); stroke:none; baseline-shift:-13.0px; ">
   Service
</text>
<text transform="translate(26.0,477.0), rotate(-0.0)" x="0px" y="0px" textLength="63.0px"
 style="font-family:Arial; font-size:13.0px; fill:rgb(0,0,0); stroke:none; baseline-shift:-13.0px; ">
   technitians
</text>
<polygon points=" 109.0,446.0 102.0,439.0 102.0,442.0 87.0,442.0 87.0,451.0 102.0,451.0 102.0,454.0 " style="fill:rgb(221,238,255); stroke:rgb(0,0,0); stroke-width:1.0px;"/>
<rect x="51.5px" y="487.5px" width="12.0px" height="12.0px" rx="0.0px" ry="0.0px" style="fill:rgb(255,255,255); stroke:rgb(0,0,0); stroke-width:1.0px;"/>
<text transform="translate(54.0,485.0), rotate(-0.0)" x="0px" y="0px" textLength="8.0px"
 style="font-family:Arial; font-size:13.0px; fill:rgb(0,0,0); stroke:none; baseline-shift:-13.0px; ">
   +
</text>
<rect x="5.5px" y="588.5px" width="104.0px" height="43.0px" rx="0.0px" ry="0.0px" style="fill:rgb(221,238,255); stroke:rgb(0,0,0); stroke-width:1.0px;"/>
<text transform="translate(10.0,601.0), rotate(-0.0)" x="0px" y="0px" textLength="95.0px"
 style="font-family:Arial; font-size:13.0px; fill:rgb(0,0,0); stroke:none; baseline-shift:-13.0px; ">
   Process experts
</text>
<polygon points=" 109.0,579.0 102.0,571.0 102.0,574.0 87.0,574.0 87.0,583.0 102.0,583.0 102.0,586.0 " style="fill:rgb(221,238,255); stroke:rgb(0,0,0); stroke-width:1.0px;"/>
<rect x="51.5px" y="619.5px" width="12.0px" height="12.0px" rx="0.0px" ry="0.0px" style="fill:rgb(255,255,255); stroke:rgb(0,0,0); stroke-width:1.0px;"/>
<text transform="translate(54.0,617.0), rotate(-0.0)" x="0px" y="0px" textLength="8.0px"
 style="font-family:Arial; font-size:13.0px; fill:rgb(0,0,0); stroke:none; baseline-shift:-13.0px; ">
   +
</text>
<rect x="20.5px" y="324.5px" width="132.0px" height="42.0px" rx="0.0px" ry="0.0px" style="fill:rgb(221,238,255); stroke:rgb(0,0,0); stroke-dasharray:5 3 2 3; stroke-width:1.0px;"/>
<text transform="translate(40.0,328.0), rotate(-0.0)" x="0px" y="0px" textLength="91.0px"
 style="font-family:Arial; font-size:13.0px; fill:rgb(0,0,0); stroke:none; baseline-shift:-13.0px; ">
   Reputation as a
</text>
<text transform="translate(32.0,345.0), rotate(-0.0)" x="0px" y="0px" textLength="108.0px"
 style="font-family:Arial; font-size:13.0px; fill:rgb(0,0,0); stroke:none; baseline-shift:-13.0px; ">
   trustworthy partner
</text>
<polygon points=" 152.0,314.0 144.0,307.0 144.0,310.0 129.0,310.0 129.0,319.0 144.0,319.0 144.0,322.0 " style="fill:rgb(221,238,255); stroke:rgb(0,0,0); stroke-width:1.0px;"/>
<rect x="80.5px" y="355.5px" width="11.0px" height="11.0px" rx="0.0px" ry="0.0px" style="fill:rgb(255,255,255); stroke:rgb(0,0,0); stroke-width:1.0px;"/>
<text transform="translate(82.0,353.0), rotate(-0.0)" x="0px" y="0px" textLength="8.0px"
 style="font-family:Arial; font-size:13.0px; fill:rgb(0,0,0); stroke:none; baseline-shift:-13.0px; ">
   +
</text>
<path d="M 463.0 258.0 L 463.0 221.0" style="fill:none; stroke:rgb(0,0,0); stroke-dasharray:5 3; stroke-width:1.0px;"/>
<polyline points=" 459.0,233.0 463.0,221.0 467.0,233.0 " style="fill:none; stroke:rgb(0,0,0); stroke-width:1.0px;"/>
<text transform="translate(445.0,239.0), rotate(-0.0)" x="0px" y="0px" textLength="36.0px"
 style="font-family:Arial; font-style:italic;font-size:10.0px; fill:rgb(0,0,0); stroke:none; baseline-shift:-10.0px; ">
   Acquire
</text>
<path d="M 570.0 258.0 L 522.0 218.0" style="fill:none; stroke:rgb(0,0,0); stroke-dasharray:5 3; stroke-width:1.0px;"/>
<polyline points=" 529.0,229.0 522.0,218.0 534.0,223.0 " style="fill:none; stroke:rgb(0,0,0); stroke-width:1.0px;"/>
<text transform="translate(525.0,238.0), rotate(-0.0)" x="0px" y="0px" textLength="41.0px"
 style="font-family:Arial; font-style:italic;font-size:10.0px; fill:rgb(0,0,0); stroke:none; baseline-shift:-10.0px; ">
   Maintain
</text>
<path d="M 567.0 376.0 L 526.0 347.0" style="fill:none; stroke:rgb(0,0,0); stroke-width:1.0px;"/>
<polyline points=" 534.0,358.0 526.0,347.0 539.0,351.0 " style="fill:none; stroke:rgb(0,0,0); stroke-width:1.0px;"/>
<text transform="translate(524.0,361.0), rotate(-0.0)" x="0px" y="0px" textLength="46.0px"
 style="font-family:Arial; font-style:italic;font-size:10.0px; fill:rgb(0,0,0); stroke:none; baseline-shift:-10.0px; ">
   Workforce
</text>
<path d="M 624.0 376.0 L 624.0 349.0" style="fill:none; stroke:rgb(0,0,0); stroke-width:1.0px;"/>
<polyline points=" 619.0,362.0 624.0,349.0 628.0,362.0 " style="fill:none; stroke:rgb(0,0,0); stroke-width:1.0px;"/>
<text transform="translate(601.0,362.0), rotate(-0.0)" x="0px" y="0px" textLength="46.0px"
 style="font-family:Arial; font-style:italic;font-size:10.0px; fill:rgb(0,0,0); stroke:none; baseline-shift:-10.0px; ">
   Workforce
</text>
<ellipse cx="463.5px" cy="302.5px" rx="75.0px" ry="38.5px" style="fill:rgb(221,238,255); stroke:rgb(0,0,0); stroke-width:1.0px;"/>
<text transform="translate(438.0,286.0), rotate(-0.0)" x="0px" y="0px" textLength="50.0px"
 style="font-family:Arial; font-size:13.0px; fill:rgb(0,0,0); stroke:none; baseline-shift:-13.0px; ">
   Software
</text>
<text transform="translate(427.0,302.0), rotate(-0.0)" x="0px" y="0px" textLength="72.0px"
 style="font-family:Arial; font-size:13.0px; fill:rgb(0,0,0); stroke:none; baseline-shift:-13.0px; ">
   development
</text>
<line x1="445.0px" y1="258.0px" x2="456.0px" y2="263.0px" style="stroke:rgb(0,0,0); stroke-width:1.0px;"/>
<line x1="445.0px" y1="269.0px" x2="456.0px" y2="263.0px" style="stroke:rgb(0,0,0); stroke-width:1.0px;"/>
<line x1="486.0px" y1="336.0px" x2="475.0px" y2="341.0px" style="stroke:rgb(0,0,0); stroke-width:1.0px;"/>
<line x1="486.0px" y1="347.0px" x2="475.0px" y2="341.0px" style="stroke:rgb(0,0,0); stroke-width:1.0px;"/>
<polygon points=" 539.0,271.0 531.0,263.0 531.0,266.0 516.0,266.0 516.0,276.0 531.0,276.0 531.0,279.0 " style="fill:rgb(221,238,255); stroke:rgb(0,0,0); stroke-width:1.0px;"/>
<rect x="458.5px" y="330.5px" width="11.0px" height="11.0px" rx="0.0px" ry="0.0px" style="fill:rgb(255,255,255); stroke:rgb(0,0,0); stroke-width:1.0px;"/>
<text transform="translate(460.0,328.0), rotate(-0.0)" x="0px" y="0px" textLength="8.0px"
 style="font-family:Arial; font-size:13.0px; fill:rgb(0,0,0); stroke:none; baseline-shift:-13.0px; ">
   +
</text>
<ellipse cx="406.5px" cy="57.5px" rx="75.0px" ry="38.5px" style="fill:rgb(253,205,172); stroke:rgb(0,0,0); stroke-width:1.0px;"/>
<text transform="translate(372.0,40.0), rotate(-0.0)" x="0px" y="0px" textLength="69.0px"
 style="font-family:Arial; font-size:13.0px; fill:rgb(0,0,0); stroke:none; baseline-shift:-13.0px; ">
   Licensing of
</text>
<text transform="translate(351.0,57.0), rotate(-0.0)" x="0px" y="0px" textLength="110.0px"
 style="font-family:Arial; font-size:13.0px; fill:rgb(0,0,0); stroke:none; baseline-shift:-13.0px; ">
   Predictive Software
</text>
<line x1="388.0px" y1="12.0px" x2="399.0px" y2="18.0px" style="stroke:rgb(0,0,0); stroke-width:1.0px;"/>
<line x1="388.0px" y1="23.0px" x2="399.0px" y2="18.0px" style="stroke:rgb(0,0,0); stroke-width:1.0px;"/>
<line x1="430.0px" y1="90.0px" x2="418.0px" y2="96.0px" style="stroke:rgb(0,0,0); stroke-width:1.0px;"/>
<line x1="430.0px" y1="101.0px" x2="418.0px" y2="96.0px" style="stroke:rgb(0,0,0); stroke-width:1.0px;"/>
<rect x="401.5px" y="84.5px" width="12.0px" height="12.0px" rx="0.0px" ry="0.0px" style="fill:rgb(255,255,255); stroke:rgb(0,0,0); stroke-width:1.0px;"/>
<text transform="translate(404.0,82.0), rotate(-0.0)" x="0px" y="0px" textLength="8.0px"
 style="font-family:Arial; font-size:13.0px; fill:rgb(0,0,0); stroke:none; baseline-shift:-13.0px; ">
   +
</text>
<ellipse cx="624.5px" cy="302.5px" rx="65.5px" ry="38.5px" style="fill:rgb(221,238,255); stroke:rgb(0,0,0); stroke-width:1.0px;"/>
<text transform="translate(599.0,286.0), rotate(-0.0)" x="0px" y="0px" textLength="50.0px"
 style="font-family:Arial; font-size:13.0px; fill:rgb(0,0,0); stroke:none; baseline-shift:-13.0px; ">
   Software
</text>
<text transform="translate(587.0,302.0), rotate(-0.0)" x="0px" y="0px" textLength="74.0px"
 style="font-family:Arial; font-size:13.0px; fill:rgb(0,0,0); stroke:none; baseline-shift:-13.0px; ">
   maintanance
</text>
<line x1="605.0px" y1="258.0px" x2="617.0px" y2="263.0px" style="stroke:rgb(0,0,0); stroke-width:1.0px;"/>
<line x1="605.0px" y1="269.0px" x2="617.0px" y2="263.0px" style="stroke:rgb(0,0,0); stroke-width:1.0px;"/>
<line x1="647.0px" y1="336.0px" x2="636.0px" y2="341.0px" style="stroke:rgb(0,0,0); stroke-width:1.0px;"/>
<line x1="647.0px" y1="347.0px" x2="636.0px" y2="341.0px" style="stroke:rgb(0,0,0); stroke-width:1.0px;"/>
<polygon points=" 690.0,271.0 683.0,263.0 683.0,266.0 667.0,266.0 667.0,276.0 683.0,276.0 683.0,279.0 " style="fill:rgb(221,238,255); stroke:rgb(0,0,0); stroke-width:1.0px;"/>
<rect x="619.5px" y="330.5px" width="11.0px" height="11.0px" rx="0.0px" ry="0.0px" style="fill:rgb(255,255,255); stroke:rgb(0,0,0); stroke-width:1.0px;"/>
<text transform="translate(621.0,328.0), rotate(-0.0)" x="0px" y="0px" textLength="8.0px"
 style="font-family:Arial; font-size:13.0px; fill:rgb(0,0,0); stroke:none; baseline-shift:-13.0px; ">
   +
</text>
<path d="M 444.0 131.0 L 432.0 107.0" style="fill:none; stroke:rgb(0,0,0); stroke-width:1.0px;"/>
<polyline points=" 434.0,120.0 432.0,107.0 441.0,116.0 " style="fill:none; stroke:rgb(0,0,0); stroke-width:1.0px;"/>
<text transform="translate(410.0,118.0), rotate(-0.0)" x="0px" y="0px" textLength="53.0px"
 style="font-family:Arial; font-style:italic;font-size:10.0px; fill:rgb(0,0,0); stroke:none; baseline-shift:-10.0px; ">
   Tech &amp; Info
</text>
<text transform="translate(407.0,131.0), rotate(-0.0)" x="0px" y="0px" textLength="60.0px"
 style="font-family:Arial; font-style:italic;font-size:10.0px; fill:rgb(0,0,0); stroke:none; baseline-shift:-10.0px; ">
   Infrastructure
</text>
<path d="M 324.0 133.0 L 358.0 101.0" style="fill:none; stroke:rgb(0,0,0); stroke-width:1.0px;"/>
<polyline points=" 346.0,107.0 358.0,101.0 351.0,113.0 " style="fill:none; stroke:rgb(0,0,0); stroke-width:1.0px;"/>
<text transform="translate(320.0,111.0), rotate(-0.0)" x="0px" y="0px" textLength="53.0px"
 style="font-family:Arial; font-style:italic;font-size:10.0px; fill:rgb(0,0,0); stroke:none; baseline-shift:-10.0px; ">
   Beneficiary
</text>
<ellipse cx="265.5px" cy="302.5px" rx="75.0px" ry="36.5px" style="fill:rgb(255,255,255); stroke:rgb(0,0,0); stroke-width:1.0px;"/>
<text transform="translate(225.0,294.0), rotate(-0.0)" x="0px" y="0px" textLength="80.0px"
 style="font-family:Arial; font-size:13.0px; fill:rgb(0,0,0); stroke:none; baseline-shift:-13.0px; ">
   License sales
</text>
<line x1="246.0px" y1="260.0px" x2="258.0px" y2="266.0px" style="stroke:rgb(0,0,0); stroke-width:1.0px;"/>
<line x1="246.0px" y1="271.0px" x2="258.0px" y2="266.0px" style="stroke:rgb(0,0,0); stroke-width:1.0px;"/>
<line x1="288.0px" y1="333.0px" x2="277.0px" y2="339.0px" style="stroke:rgb(0,0,0); stroke-width:1.0px;"/>
<line x1="288.0px" y1="345.0px" x2="277.0px" y2="339.0px" style="stroke:rgb(0,0,0); stroke-width:1.0px;"/>
<rect x="260.5px" y="328.5px" width="11.0px" height="11.0px" rx="0.0px" ry="0.0px" style="fill:rgb(255,255,255); stroke:rgb(0,0,0); stroke-width:1.0px;"/>
<text transform="translate(262.0,325.0), rotate(-0.0)" x="0px" y="0px" textLength="8.0px"
 style="font-family:Arial; font-size:13.0px; fill:rgb(0,0,0); stroke:none; baseline-shift:-13.0px; ">
   +
</text>
<path d="M 271.0 260.0 L 278.0 209.0" style="fill:none; stroke:rgb(0,0,0); stroke-dasharray:5 3; stroke-width:1.0px;"/>
<polyline points=" 272.0,221.0 278.0,209.0 280.0,222.0 " style="fill:none; stroke:rgb(0,0,0); stroke-width:1.0px;"/>
<text transform="translate(257.0,235.0), rotate(-0.0)" x="0px" y="0px" textLength="36.0px"
 style="font-family:Arial; font-style:italic;font-size:10.0px; fill:rgb(0,0,0); stroke:none; baseline-shift:-10.0px; ">
   Acquire
</text>
<path d="M 319.0 489.0 L 279.0 350.0" style="fill:none; stroke:rgb(0,0,0); stroke-width:1.0px;"/>
<polyline points=" 278.0,364.0 279.0,350.0 286.0,361.0 " style="fill:none; stroke:rgb(0,0,0); stroke-width:1.0px;"/>
<text transform="translate(292.0,452.0), rotate(-0.0)" x="0px" y="0px" textLength="34.0px"
 style="font-family:Arial; font-style:italic;font-size:10.0px; fill:rgb(0,0,0); stroke:none; baseline-shift:-10.0px; ">
   Partner
</text>
<path d="M 225.0 388.0 L 245.0 345.0" style="fill:none; stroke:rgb(0,0,0); stroke-width:1.0px;"/>
<polyline points=" 236.0,354.0 245.0,345.0 243.0,358.0 " style="fill:none; stroke:rgb(0,0,0); stroke-width:1.0px;"/>
<text transform="translate(225.0,367.0), rotate(-0.0)" x="0px" y="0px" textLength="20.0px"
 style="font-family:Arial; font-style:italic;font-size:10.0px; fill:rgb(0,0,0); stroke:none; baseline-shift:-10.0px; ">
   EXT
</text>
<ellipse cx="548.5px" cy="510.5px" rx="79.5px" ry="37.0px" style="fill:rgb(255,255,255); stroke:rgb(0,0,0); stroke-width:1.0px;"/>
<text transform="translate(497.0,502.0), rotate(-0.0)" x="0px" y="0px" textLength="103.0px"
 style="font-family:Arial; font-size:13.0px; fill:rgb(0,0,0); stroke:none; baseline-shift:-13.0px; ">
   Customer support
</text>
<line x1="530.0px" y1="468.0px" x2="541.0px" y2="473.0px" style="stroke:rgb(0,0,0); stroke-width:1.0px;"/>
<line x1="530.0px" y1="479.0px" x2="541.0px" y2="473.0px" style="stroke:rgb(0,0,0); stroke-width:1.0px;"/>
<line x1="571.0px" y1="542.0px" x2="560.0px" y2="547.0px" style="stroke:rgb(0,0,0); stroke-width:1.0px;"/>
<line x1="571.0px" y1="553.0px" x2="560.0px" y2="547.0px" style="stroke:rgb(0,0,0); stroke-width:1.0px;"/>
<rect x="543.5px" y="536.5px" width="11.0px" height="11.0px" rx="0.0px" ry="0.0px" style="fill:rgb(255,255,255); stroke:rgb(0,0,0); stroke-width:1.0px;"/>
<text transform="translate(545.0,534.0), rotate(-0.0)" x="0px" y="0px" textLength="8.0px"
 style="font-family:Arial; font-size:13.0px; fill:rgb(0,0,0); stroke:none; baseline-shift:-13.0px; ">
   +
</text>
<path d="M 539.0 462.0 L 539.0 414.0 C 539.0 410.0 535.0 405.0 532.0 403.0 L 404.0 343.0 C 400.0 342.0 394.0 338.0 392.0 334.0 L 298.0 232.0 C 296.0 230.0 293.0 223.0 293.0 219.0 L 293.0 209.0" style="fill:none; stroke:rgb(0,0,0); stroke-dasharray:5 3; stroke-width:1.0px;"/>
<polyline points=" 289.0,222.0 293.0,209.0 297.0,222.0 " style="fill:none; stroke:rgb(0,0,0); stroke-width:1.0px;"/>
<text transform="translate(303.0,260.0), rotate(-0.0)" x="0px" y="0px" textLength="41.0px"
 style="font-family:Arial; font-style:italic;font-size:10.0px; fill:rgb(0,0,0); stroke:none; baseline-shift:-10.0px; ">
   Maintain
</text>
<path d="M 573.0 137.0 L 488.0 96.0" style="fill:none; stroke:rgb(0,0,0); stroke-width:1.0px;"/>
<polyline points=" 497.0,105.0 488.0,96.0 501.0,98.0 " style="fill:none; stroke:rgb(0,0,0); stroke-width:1.0px;"/>
<text transform="translate(508.0,116.0), rotate(-0.0)" x="0px" y="0px" textLength="46.0px"
 style="font-family:Arial; font-style:italic;font-size:10.0px; fill:rgb(0,0,0); stroke:none; baseline-shift:-10.0px; ">
   Workforce
</text>
<path d="M 548.0 587.0 L 548.0 555.0" style="fill:none; stroke:rgb(0,0,0); stroke-width:1.0px;"/>
<polyline points=" 544.0,568.0 548.0,555.0 552.0,568.0 " style="fill:none; stroke:rgb(0,0,0); stroke-width:1.0px;"/>
<text transform="translate(525.0,571.0), rotate(-0.0)" x="0px" y="0px" textLength="46.0px"
 style="font-family:Arial; font-style:italic;font-size:10.0px; fill:rgb(0,0,0); stroke:none; baseline-shift:-10.0px; ">
   Workforce
</text>
<ellipse cx="104.5px" cy="217.5px" rx="76.0px" ry="38.5px" style="fill:rgb(255,0,0); stroke:rgb(0,0,0); stroke-width:1.0px;"/>
<text transform="translate(54.0,201.0), rotate(-0.0)" x="0px" y="0px" textLength="101.0px"
 style="font-family:Arial; font-size:13.0px; fill:rgb(0,0,0); stroke:none; baseline-shift:-13.0px; ">
   negotiating a new
</text>
<text transform="translate(81.0,217.0), rotate(-0.0)" x="0px" y="0px" textLength="47.0px"
 style="font-family:Arial; font-size:13.0px; fill:rgb(0,0,0); stroke:none; baseline-shift:-13.0px; ">
   contract
</text>
<line x1="86.0px" y1="173.0px" x2="97.0px" y2="178.0px" style="stroke:rgb(0,0,0); stroke-width:1.0px;"/>
<line x1="86.0px" y1="184.0px" x2="97.0px" y2="178.0px" style="stroke:rgb(0,0,0); stroke-width:1.0px;"/>
<line x1="127.0px" y1="251.0px" x2="116.0px" y2="256.0px" style="stroke:rgb(0,0,0); stroke-width:1.0px;"/>
<line x1="127.0px" y1="262.0px" x2="116.0px" y2="256.0px" style="stroke:rgb(0,0,0); stroke-width:1.0px;"/>
<rect x="99.5px" y="245.5px" width="11.0px" height="11.0px" rx="0.0px" ry="0.0px" style="fill:rgb(255,255,255); stroke:rgb(0,0,0); stroke-width:1.0px;"/>
<text transform="translate(101.0,243.0), rotate(-0.0)" x="0px" y="0px" textLength="8.0px"
 style="font-family:Arial; font-size:13.0px; fill:rgb(0,0,0); stroke:none; baseline-shift:-13.0px; ">
   +
</text>
<ellipse cx="161.5px" cy="539.5px" rx="75.0px" ry="31.0px" style="fill:rgb(255,0,0); stroke:rgb(0,0,0); stroke-width:1.0px;"/>
<text transform="translate(140.0,531.0), rotate(-0.0)" x="0px" y="0px" textLength="41.0px"
 style="font-family:Arial; font-size:13.0px; fill:rgb(0,0,0); stroke:none; baseline-shift:-13.0px; ">
   Retrain
</text>
<line x1="142.0px" y1="502.0px" x2="154.0px" y2="507.0px" style="stroke:rgb(0,0,0); stroke-width:1.0px;"/>
<line x1="142.0px" y1="513.0px" x2="154.0px" y2="507.0px" style="stroke:rgb(0,0,0); stroke-width:1.0px;"/>
<line x1="184.0px" y1="564.0px" x2="173.0px" y2="570.0px" style="stroke:rgb(0,0,0); stroke-width:1.0px;"/>
<line x1="184.0px" y1="576.0px" x2="173.0px" y2="570.0px" style="stroke:rgb(0,0,0); stroke-width:1.0px;"/>
<rect x="156.5px" y="559.5px" width="11.0px" height="11.0px" rx="0.0px" ry="0.0px" style="fill:rgb(255,255,255); stroke:rgb(0,0,0); stroke-width:1.0px;"/>
<text transform="translate(158.0,556.0), rotate(-0.0)" x="0px" y="0px" textLength="8.0px"
 style="font-family:Arial; font-size:13.0px; fill:rgb(0,0,0); stroke:none; baseline-shift:-13.0px; ">
   +
</text>
<line x1="122.0px" y1="477.0px" x2="115.0px" y2="477.0px" style="stroke:rgb(0,0,0); stroke-width:3.0px;"/>
<line x1="122.0px" y1="468.0px" x2="115.0px" y2="468.0px" style="stroke:rgb(0,0,0); stroke-width:3.0px;"/>
<path d="M 115.0 472.0 L 153.0 472.0 C 157.0 472.0 161.0 476.0 161.0 480.0 L 161.0 502.0" style="fill:none; stroke:rgb(0,0,0); stroke-width:1.0px;"/>
<polyline points=" 165.0,489.0 161.0,502.0 156.0,489.0 " style="fill:none; stroke:rgb(0,0,0); stroke-width:1.0px;"/>
<text transform="translate(139.0,472.0), rotate(-0.0)" x="0px" y="0px" textLength="26.0px"
 style="font-family:Arial; font-style:italic;font-size:10.0px; fill:rgb(0,0,0); stroke:none; baseline-shift:-10.0px; ">
   Stock
</text>
<line x1="122.0px" y1="619.0px" x2="115.0px" y2="619.0px" style="stroke:rgb(0,0,0); stroke-width:3.0px;"/>
<line x1="122.0px" y1="610.0px" x2="115.0px" y2="610.0px" style="stroke:rgb(0,0,0); stroke-width:3.0px;"/>
<path d="M 115.0 614.0 L 163.0 614.0 C 166.0 614.0 170.0 610.0 170.0 607.0 L 170.0 581.0" style="fill:none; stroke:rgb(0,0,0); stroke-width:1.0px;"/>
<polyline points=" 166.0,594.0 170.0,581.0 174.0,594.0 " style="fill:none; stroke:rgb(0,0,0); stroke-width:1.0px;"/>
<text transform="translate(146.0,614.0), rotate(-0.0)" x="0px" y="0px" textLength="26.0px"
 style="font-family:Arial; font-style:italic;font-size:10.0px; fill:rgb(0,0,0); stroke:none; baseline-shift:-10.0px; ">
   Stock
</text>
<path d="M 198.0 576.0 L 198.0 578.0 C 198.0 582.0 201.0 588.0 204.0 591.0 L 231.0 618.0 C 234.0 621.0 240.0 624.0 244.0 624.0 L 472.0 624.0" style="fill:none; stroke:rgb(0,0,0); stroke-dasharray:5 3; stroke-width:1.0px;"/>
<polyline points=" 460.0,619.0 472.0,624.0 460.0,628.0 " style="fill:none; stroke:rgb(0,0,0); stroke-width:1.0px;"/>
<text transform="translate(322.0,624.0), rotate(-0.0)" x="0px" y="0px" textLength="0.0px"
 style="font-family:Arial; font-style:italic;font-size:10.0px; fill:rgb(0,0,0); stroke:none; baseline-shift:-10.0px; ">
   
</text>
<path d="M 180.0 576.0 L 180.0 569.0 C 180.0 573.0 181.0 580.0 182.0 584.0 L 206.0 654.0 C 207.0 658.0 212.0 661.0 215.0 661.0 L 701.0 661.0 C 705.0 661.0 709.0 658.0 709.0 654.0 L 709.0 263.0 C 709.0 259.0 705.0 254.0 702.0 252.0 L 649.0 230.0 C 646.0 228.0 643.0 223.0 643.0 219.0 L 643.0 206.0" style="fill:none; stroke:rgb(0,0,0); stroke-dasharray:5 3; stroke-width:1.0px;"/>
<polyline points=" 638.0,218.0 643.0,206.0 647.0,218.0 " style="fill:none; stroke:rgb(0,0,0); stroke-width:1.0px;"/>
<text transform="translate(663.0,661.0), rotate(-0.0)" x="0px" y="0px" textLength="0.0px"
 style="font-family:Arial; font-style:italic;font-size:10.0px; fill:rgb(0,0,0); stroke:none; baseline-shift:-10.0px; ">
   
</text>
<path d="M 161.0 262.0 L 161.0 388.0" style="fill:none; stroke:rgb(0,0,0); stroke-dasharray:5 3; stroke-width:1.0px;"/>
<polyline points=" 165.0,376.0 161.0,388.0 156.0,376.0 " style="fill:none; stroke:rgb(0,0,0); stroke-width:1.0px;"/>
<text transform="translate(161.0,301.0), rotate(-0.0)" x="0px" y="0px" textLength="0.0px"
 style="font-family:Arial; font-style:italic;font-size:10.0px; fill:rgb(0,0,0); stroke:none; baseline-shift:-10.0px; ">
   
</text>
<path d="M 90.0 299.0 L 96.0 264.0" style="fill:none; stroke:rgb(0,0,0); stroke-width:1.0px;"/>
<polyline points=" 90.0,276.0 96.0,264.0 98.0,277.0 " style="fill:none; stroke:rgb(0,0,0); stroke-width:1.0px;"/>
<text transform="translate(71.0,282.0), rotate(-0.0)" x="0px" y="0px" textLength="45.0px"
 style="font-family:Arial; font-style:italic;font-size:10.0px; fill:rgb(0,0,0); stroke:none; baseline-shift:-10.0px; ">
   Attraction
</text>
</g>
</svg>
