<?xml version="1.0" encoding="UTF-8" standalone="no"?>
<svg width="595.0px" height="662.0px" version="1.1" xmlns="http://www.w3.org/2000/svg" xmlns:xlink="http://www.w3.org/1999/xlink">
<g>
<rect x="0.0px" y="0.0px" width="595.0px" height="662.0px" rx="0.0px" ry="0.0px" style="fill:rgb(255,255,255);"/>
<rect x="152.5px" y="552.5px" width="132.0px" height="58.0px" rx="0.0px" ry="0.0px" style="fill:rgb(221,238,255); stroke:rgb(0,0,0); stroke-width:1.0px;"/>
<text transform="translate(167.0,573.0), rotate(-0.0)" x="0px" y="0px" textLength="103.0px"
 style="font-family:Arial; font-size:13.0px; fill:rgb(0,0,0); stroke:none; baseline-shift:-13.0px; ">
   Equipment vendor
</text>
<polygon points=" 284.0,543.0 277.0,535.0 277.0,538.0 262.0,538.0 262.0,547.0 277.0,547.0 277.0,550.0 " style="fill:rgb(221,238,255); stroke:rgb(0,0,0); stroke-width:1.0px;"/>
<rect x="212.5px" y="599.5px" width="12.0px" height="11.0px" rx="0.0px" ry="0.0px" style="fill:rgb(255,255,255); stroke:rgb(0,0,0); stroke-width:1.0px;"/>
<text transform="translate(215.0,596.0), rotate(-0.0)" x="0px" y="0px" textLength="8.0px"
 style="font-family:Arial; font-size:13.0px; fill:rgb(0,0,0); stroke:none; baseline-shift:-13.0px; ">
   +
</text>
<rect x="265.5px" y="149.5px" width="133.0px" height="51.0px" rx="0.0px" ry="0.0px" style="fill:rgb(221,238,255); stroke:rgb(0,0,0); stroke-width:1.0px;"/>
<text transform="translate(295.0,158.0), rotate(-0.0)" x="0px" y="0px" textLength="74.0px"
 style="font-family:Arial; font-size:13.0px; fill:rgb(0,0,0); stroke:none; baseline-shift:-13.0px; ">
   Diagnostic &amp;
</text>
<text transform="translate(278.0,175.0), rotate(-0.0)" x="0px" y="0px" textLength="108.0px"
 style="font-family:Arial; font-size:13.0px; fill:rgb(0,0,0); stroke:none; baseline-shift:-13.0px; ">
   Predictive software
</text>
<polygon points=" 398.0,140.0 390.0,132.0 390.0,135.0 375.0,135.0 375.0,144.0 390.0,144.0 390.0,147.0 " style="fill:rgb(221,238,255); stroke:rgb(0,0,0); stroke-width:1.0px;"/>
<rect x="326.5px" y="189.5px" width="11.0px" height="11.0px" rx="0.0px" ry="0.0px" style="fill:rgb(255,255,255); stroke:rgb(0,0,0); stroke-width:1.0px;"/>
<text transform="translate(328.0,187.0), rotate(-0.0)" x="0px" y="0px" textLength="8.0px"
 style="font-family:Arial; font-size:13.0px; fill:rgb(0,0,0); stroke:none; baseline-shift:-13.0px; ">
   +
</text>
<rect x="445.5px" y="392.5px" width="132.0px" height="57.0px" rx="0.0px" ry="0.0px" style="fill:rgb(221,238,255); stroke:rgb(0,0,0); stroke-width:1.0px;"/>
<text transform="translate(468.0,412.0), rotate(-0.0)" x="0px" y="0px" textLength="87.0px"
 style="font-family:Arial; font-size:13.0px; fill:rgb(0,0,0); stroke:none; baseline-shift:-13.0px; ">
   Data scientists
</text>
<polygon points=" 577.0,383.0 570.0,375.0 570.0,378.0 554.0,378.0 554.0,387.0 570.0,387.0 570.0,390.0 " style="fill:rgb(221,238,255); stroke:rgb(0,0,0); stroke-width:1.0px;"/>
<rect x="505.5px" y="437.5px" width="12.0px" height="12.0px" rx="0.0px" ry="0.0px" style="fill:rgb(255,255,255); stroke:rgb(0,0,0); stroke-width:1.0px;"/>
<text transform="translate(508.0,435.0), rotate(-0.0)" x="0px" y="0px" textLength="8.0px"
 style="font-family:Arial; font-size:13.0px; fill:rgb(0,0,0); stroke:none; baseline-shift:-13.0px; ">
   +
</text>
<rect x="76.5px" y="129.5px" width="150.0px" height="63.0px" rx="0.0px" ry="0.0px" style="fill:rgb(255,255,255); stroke:rgb(0,0,0); stroke-width:1.0px;"/>
<text transform="translate(84.0,144.0), rotate(-0.0)" x="0px" y="0px" textLength="135.0px"
 style="font-family:Arial; font-size:13.0px; fill:rgb(0,0,0); stroke:none; baseline-shift:-13.0px; ">
   Customers who licence
</text>
<text transform="translate(99.0,161.0), rotate(-0.0)" x="0px" y="0px" textLength="104.0px"
 style="font-family:Arial; font-size:13.0px; fill:rgb(0,0,0); stroke:none; baseline-shift:-13.0px; ">
   predivtive software
</text>
<rect x="146.5px" y="181.5px" width="12.0px" height="11.0px" rx="0.0px" ry="0.0px" style="fill:rgb(255,255,255); stroke:rgb(0,0,0); stroke-width:1.0px;"/>
<text transform="translate(149.0,178.0), rotate(-0.0)" x="0px" y="0px" textLength="8.0px"
 style="font-family:Arial; font-size:13.0px; fill:rgb(0,0,0); stroke:none; baseline-shift:-13.0px; ">
   +
</text>
<rect x="9.5px" y="471.5px" width="152.0px" height="59.0px" rx="0.0px" ry="0.0px" style="fill:rgb(255,255,255); stroke:rgb(0,0,0); stroke-width:1.0px;"/>
<text transform="translate(23.0,485.0), rotate(-0.0)" x="0px" y="0px" textLength="125.0px"
 style="font-family:Arial; font-size:13.0px; fill:rgb(0,0,0); stroke:none; baseline-shift:-13.0px; ">
   New contract with the
</text>
<text transform="translate(67.0,501.0), rotate(-0.0)" x="0px" y="0px" textLength="37.0px"
 style="font-family:Arial; font-size:13.0px; fill:rgb(0,0,0); stroke:none; baseline-shift:-13.0px; ">
   vendor
</text>
<rect x="80.5px" y="519.5px" width="11.0px" height="11.0px" rx="0.0px" ry="0.0px" style="fill:rgb(255,255,255); stroke:rgb(0,0,0); stroke-width:1.0px;"/>
<text transform="translate(82.0,517.0), rotate(-0.0)" x="0px" y="0px" textLength="8.0px"
 style="font-family:Arial; font-size:13.0px; fill:rgb(0,0,0); stroke:none; baseline-shift:-13.0px; ">
   +
</text>
<rect x="440.5px" y="136.5px" width="140.0px" height="50.0px" rx="0.0px" ry="0.0px" style="fill:rgb(255,255,255); stroke:rgb(0,0,0); stroke-width:1.0px;"/>
<text transform="translate(449.0,153.0), rotate(-0.0)" x="0px" y="0px" textLength="122.0px"
 style="font-family:Arial; font-size:13.0px; fill:rgb(0,0,0); stroke:none; baseline-shift:-13.0px; ">
   Installation engineers
</text>
<rect x="505.5px" y="174.5px" width="12.0px" height="12.0px" rx="0.0px" ry="0.0px" style="fill:rgb(255,255,255); stroke:rgb(0,0,0); stroke-width:1.0px;"/>
<text transform="translate(508.0,172.0), rotate(-0.0)" x="0px" y="0px" textLength="8.0px"
 style="font-family:Arial; font-size:13.0px; fill:rgb(0,0,0); stroke:none; baseline-shift:-13.0px; ">
   +
</text>
<rect x="336.5px" y="594.5px" width="140.0px" height="59.0px" rx="0.0px" ry="0.0px" style="fill:rgb(255,255,255); stroke:rgb(0,0,0); stroke-width:1.0px;"/>
<text transform="translate(354.0,616.0), rotate(-0.0)" x="0px" y="0px" textLength="105.0px"
 style="font-family:Arial; font-size:13.0px; fill:rgb(0,0,0); stroke:none; baseline-shift:-13.0px; ">
   Support engineers
</text>
<rect x="401.5px" y="642.5px" width="12.0px" height="11.0px" rx="0.0px" ry="0.0px" style="fill:rgb(255,255,255); stroke:rgb(0,0,0); stroke-width:1.0px;"/>
<text transform="translate(404.0,639.0), rotate(-0.0)" x="0px" y="0px" textLength="8.0px"
 style="font-family:Arial; font-size:13.0px; fill:rgb(0,0,0); stroke:none; baseline-shift:-13.0px; ">
   +
</text>
<path d="M 331.0 247.0 L 331.0 208.0" style="fill:none; stroke:rgb(0,0,0); stroke-dasharray:5 3; stroke-width:1.0px;"/>
<polyline points=" 327.0,221.0 331.0,208.0 335.0,221.0 " style="fill:none; stroke:rgb(0,0,0); stroke-width:1.0px;"/>
<text transform="translate(313.0,228.0), rotate(-0.0)" x="0px" y="0px" textLength="36.0px"
 style="font-family:Arial; font-style:italic;font-size:10.0px; fill:rgb(0,0,0); stroke:none; baseline-shift:-10.0px; ">
   Acquire
</text>
<path d="M 450.0 248.0 L 392.0 206.0" style="fill:none; stroke:rgb(0,0,0); stroke-dasharray:5 3; stroke-width:1.0px;"/>
<polyline points=" 400.0,217.0 392.0,206.0 405.0,210.0 " style="fill:none; stroke:rgb(0,0,0); stroke-width:1.0px;"/>
<text transform="translate(401.0,227.0), rotate(-0.0)" x="0px" y="0px" textLength="41.0px"
 style="font-family:Arial; font-style:italic;font-size:10.0px; fill:rgb(0,0,0); stroke:none; baseline-shift:-10.0px; ">
   Maintain
</text>
<path d="M 449.0 368.0 L 403.0 339.0" style="fill:none; stroke:rgb(0,0,0); stroke-width:1.0px;"/>
<polyline points=" 412.0,349.0 403.0,339.0 416.0,342.0 " style="fill:none; stroke:rgb(0,0,0); stroke-width:1.0px;"/>
<text transform="translate(404.0,353.0), rotate(-0.0)" x="0px" y="0px" textLength="46.0px"
 style="font-family:Arial; font-style:italic;font-size:10.0px; fill:rgb(0,0,0); stroke:none; baseline-shift:-10.0px; ">
   Workforce
</text>
<path d="M 510.0 368.0 L 510.0 340.0" style="fill:none; stroke:rgb(0,0,0); stroke-width:1.0px;"/>
<polyline points=" 506.0,352.0 510.0,340.0 514.0,352.0 " style="fill:none; stroke:rgb(0,0,0); stroke-width:1.0px;"/>
<text transform="translate(488.0,354.0), rotate(-0.0)" x="0px" y="0px" textLength="46.0px"
 style="font-family:Arial; font-style:italic;font-size:10.0px; fill:rgb(0,0,0); stroke:none; baseline-shift:-10.0px; ">
   Workforce
</text>
<ellipse cx="331.5px" cy="293.5px" rx="75.0px" ry="40.0px" style="fill:rgb(221,238,255); stroke:rgb(0,0,0); stroke-width:1.0px;"/>
<text transform="translate(306.0,277.0), rotate(-0.0)" x="0px" y="0px" textLength="50.0px"
 style="font-family:Arial; font-size:13.0px; fill:rgb(0,0,0); stroke:none; baseline-shift:-13.0px; ">
   Software
</text>
<text transform="translate(295.0,293.0), rotate(-0.0)" x="0px" y="0px" textLength="72.0px"
 style="font-family:Arial; font-size:13.0px; fill:rgb(0,0,0); stroke:none; baseline-shift:-13.0px; ">
   development
</text>
<line x1="313.0px" y1="247.0px" x2="324.0px" y2="253.0px" style="stroke:rgb(0,0,0); stroke-width:1.0px;"/>
<line x1="313.0px" y1="259.0px" x2="324.0px" y2="253.0px" style="stroke:rgb(0,0,0); stroke-width:1.0px;"/>
<line x1="354.0px" y1="327.0px" x2="343.0px" y2="333.0px" style="stroke:rgb(0,0,0); stroke-width:1.0px;"/>
<line x1="354.0px" y1="339.0px" x2="343.0px" y2="333.0px" style="stroke:rgb(0,0,0); stroke-width:1.0px;"/>
<polygon points=" 407.0,260.0 399.0,253.0 399.0,256.0 384.0,256.0 384.0,265.0 399.0,265.0 399.0,268.0 " style="fill:rgb(221,238,255); stroke:rgb(0,0,0); stroke-width:1.0px;"/>
<rect x="326.5px" y="322.5px" width="11.0px" height="11.0px" rx="0.0px" ry="0.0px" style="fill:rgb(255,255,255); stroke:rgb(0,0,0); stroke-width:1.0px;"/>
<text transform="translate(328.0,319.0), rotate(-0.0)" x="0px" y="0px" textLength="8.0px"
 style="font-family:Arial; font-size:13.0px; fill:rgb(0,0,0); stroke:none; baseline-shift:-13.0px; ">
   +
</text>
<ellipse cx="331.5px" cy="47.5px" rx="79.5px" ry="38.5px" style="fill:rgb(253,205,172); stroke:rgb(0,0,0); stroke-width:1.0px;"/>
<text transform="translate(296.0,31.0), rotate(-0.0)" x="0px" y="0px" textLength="69.0px"
 style="font-family:Arial; font-size:13.0px; fill:rgb(0,0,0); stroke:none; baseline-shift:-13.0px; ">
   Licensing of
</text>
<text transform="translate(276.0,47.0), rotate(-0.0)" x="0px" y="0px" textLength="110.0px"
 style="font-family:Arial; font-size:13.0px; fill:rgb(0,0,0); stroke:none; baseline-shift:-13.0px; ">
   Predictive Software
</text>
<line x1="313.0px" y1="3.0px" x2="324.0px" y2="8.0px" style="stroke:rgb(0,0,0); stroke-width:1.0px;"/>
<line x1="313.0px" y1="14.0px" x2="324.0px" y2="8.0px" style="stroke:rgb(0,0,0); stroke-width:1.0px;"/>
<line x1="354.0px" y1="81.0px" x2="343.0px" y2="86.0px" style="stroke:rgb(0,0,0); stroke-width:1.0px;"/>
<line x1="354.0px" y1="92.0px" x2="343.0px" y2="86.0px" style="stroke:rgb(0,0,0); stroke-width:1.0px;"/>
<rect x="326.5px" y="75.5px" width="11.0px" height="11.0px" rx="0.0px" ry="0.0px" style="fill:rgb(255,255,255); stroke:rgb(0,0,0); stroke-width:1.0px;"/>
<text transform="translate(328.0,73.0), rotate(-0.0)" x="0px" y="0px" textLength="8.0px"
 style="font-family:Arial; font-size:13.0px; fill:rgb(0,0,0); stroke:none; baseline-shift:-13.0px; ">
   +
</text>
<ellipse cx="510.5px" cy="293.5px" rx="65.5px" ry="38.5px" style="fill:rgb(221,238,255); stroke:rgb(0,0,0); stroke-width:1.0px;"/>
<text transform="translate(485.0,277.0), rotate(-0.0)" x="0px" y="0px" textLength="50.0px"
 style="font-family:Arial; font-size:13.0px; fill:rgb(0,0,0); stroke:none; baseline-shift:-13.0px; ">
   Software
</text>
<text transform="translate(474.0,293.0), rotate(-0.0)" x="0px" y="0px" textLength="74.0px"
 style="font-family:Arial; font-size:13.0px; fill:rgb(0,0,0); stroke:none; baseline-shift:-13.0px; ">
   maintanance
</text>
<line x1="492.0px" y1="248.0px" x2="503.0px" y2="254.0px" style="stroke:rgb(0,0,0); stroke-width:1.0px;"/>
<line x1="492.0px" y1="260.0px" x2="503.0px" y2="254.0px" style="stroke:rgb(0,0,0); stroke-width:1.0px;"/>
<line x1="534.0px" y1="326.0px" x2="522.0px" y2="332.0px" style="stroke:rgb(0,0,0); stroke-width:1.0px;"/>
<line x1="534.0px" y1="338.0px" x2="522.0px" y2="332.0px" style="stroke:rgb(0,0,0); stroke-width:1.0px;"/>
<polygon points=" 577.0,262.0 569.0,254.0 569.0,257.0 554.0,257.0 554.0,266.0 569.0,266.0 569.0,269.0 " style="fill:rgb(221,238,255); stroke:rgb(0,0,0); stroke-width:1.0px;"/>
<rect x="505.5px" y="321.5px" width="12.0px" height="11.0px" rx="0.0px" ry="0.0px" style="fill:rgb(255,255,255); stroke:rgb(0,0,0); stroke-width:1.0px;"/>
<text transform="translate(508.0,318.0), rotate(-0.0)" x="0px" y="0px" textLength="8.0px"
 style="font-family:Arial; font-size:13.0px; fill:rgb(0,0,0); stroke:none; baseline-shift:-13.0px; ">
   +
</text>
<path d="M 331.0 125.0 L 331.0 94.0" style="fill:none; stroke:rgb(0,0,0); stroke-width:1.0px;"/>
<polyline points=" 327.0,107.0 331.0,94.0 335.0,107.0 " style="fill:none; stroke:rgb(0,0,0); stroke-width:1.0px;"/>
<text transform="translate(304.0,116.0), rotate(-0.0)" x="0px" y="0px" textLength="53.0px"
 style="font-family:Arial; font-style:italic;font-size:10.0px; fill:rgb(0,0,0); stroke:none; baseline-shift:-10.0px; ">
   Tech &amp; Info
</text>
<text transform="translate(301.0,129.0), rotate(-0.0)" x="0px" y="0px" textLength="60.0px"
 style="font-family:Arial; font-style:italic;font-size:10.0px; fill:rgb(0,0,0); stroke:none; baseline-shift:-10.0px; ">
   Infrastructure
</text>
<path d="M 210.0 124.0 L 260.0 92.0" style="fill:none; stroke:rgb(0,0,0); stroke-width:1.0px;"/>
<polyline points=" 247.0,95.0 260.0,92.0 252.0,102.0 " style="fill:none; stroke:rgb(0,0,0); stroke-width:1.0px;"/>
<text transform="translate(218.0,102.0), rotate(-0.0)" x="0px" y="0px" textLength="53.0px"
 style="font-family:Arial; font-style:italic;font-size:10.0px; fill:rgb(0,0,0); stroke:none; baseline-shift:-10.0px; ">
   Beneficiary
</text>
<ellipse cx="132.5px" cy="293.5px" rx="75.0px" ry="35.0px" style="fill:rgb(255,255,255); stroke:rgb(0,0,0); stroke-width:1.0px;"/>
<text transform="translate(93.0,285.0), rotate(-0.0)" x="0px" y="0px" textLength="80.0px"
 style="font-family:Arial; font-size:13.0px; fill:rgb(0,0,0); stroke:none; baseline-shift:-13.0px; ">
   License sales
</text>
<line x1="114.0px" y1="252.0px" x2="125.0px" y2="258.0px" style="stroke:rgb(0,0,0); stroke-width:1.0px;"/>
<line x1="114.0px" y1="263.0px" x2="125.0px" y2="258.0px" style="stroke:rgb(0,0,0); stroke-width:1.0px;"/>
<line x1="156.0px" y1="322.0px" x2="144.0px" y2="328.0px" style="stroke:rgb(0,0,0); stroke-width:1.0px;"/>
<line x1="156.0px" y1="334.0px" x2="144.0px" y2="328.0px" style="stroke:rgb(0,0,0); stroke-width:1.0px;"/>
<rect x="127.5px" y="317.5px" width="12.0px" height="11.0px" rx="0.0px" ry="0.0px" style="fill:rgb(255,255,255); stroke:rgb(0,0,0); stroke-width:1.0px;"/>
<text transform="translate(130.0,314.0), rotate(-0.0)" x="0px" y="0px" textLength="8.0px"
 style="font-family:Arial; font-size:13.0px; fill:rgb(0,0,0); stroke:none; baseline-shift:-13.0px; ">
   +
</text>
<path d="M 138.0 252.0 L 146.0 200.0" style="fill:none; stroke:rgb(0,0,0); stroke-dasharray:5 3; stroke-width:1.0px;"/>
<polyline points=" 139.0,212.0 146.0,200.0 148.0,213.0 " style="fill:none; stroke:rgb(0,0,0); stroke-width:1.0px;"/>
<text transform="translate(124.0,226.0), rotate(-0.0)" x="0px" y="0px" textLength="36.0px"
 style="font-family:Arial; font-style:italic;font-size:10.0px; fill:rgb(0,0,0); stroke:none; baseline-shift:-10.0px; ">
   Acquire
</text>
<path d="M 205.0 528.0 L 147.0 339.0" style="fill:none; stroke:rgb(0,0,0); stroke-width:1.0px;"/>
<polyline points=" 146.0,353.0 147.0,339.0 154.0,350.0 " style="fill:none; stroke:rgb(0,0,0); stroke-width:1.0px;"/>
<text transform="translate(159.0,434.0), rotate(-0.0)" x="0px" y="0px" textLength="34.0px"
 style="font-family:Arial; font-style:italic;font-size:10.0px; fill:rgb(0,0,0); stroke:none; baseline-shift:-10.0px; ">
   Partner
</text>
<path d="M 93.0 466.0 L 123.0 334.0" style="fill:none; stroke:rgb(0,0,0); stroke-width:1.0px;"/>
<polyline points=" 116.0,345.0 123.0,334.0 124.0,347.0 " style="fill:none; stroke:rgb(0,0,0); stroke-width:1.0px;"/>
<text transform="translate(98.0,400.0), rotate(-0.0)" x="0px" y="0px" textLength="20.0px"
 style="font-family:Arial; font-style:italic;font-size:10.0px; fill:rgb(0,0,0); stroke:none; baseline-shift:-10.0px; ">
   EXT
</text>
<ellipse cx="397.5px" cy="520.5px" rx="79.5px" ry="37.0px" style="fill:rgb(255,255,255); stroke:rgb(0,0,0); stroke-width:1.0px;"/>
<text transform="translate(345.0,512.0), rotate(-0.0)" x="0px" y="0px" textLength="103.0px"
 style="font-family:Arial; font-size:13.0px; fill:rgb(0,0,0); stroke:none; baseline-shift:-13.0px; ">
   Customer support
</text>
<line x1="379.0px" y1="477.0px" x2="390.0px" y2="483.0px" style="stroke:rgb(0,0,0); stroke-width:1.0px;"/>
<line x1="379.0px" y1="488.0px" x2="390.0px" y2="483.0px" style="stroke:rgb(0,0,0); stroke-width:1.0px;"/>
<line x1="420.0px" y1="551.0px" x2="409.0px" y2="557.0px" style="stroke:rgb(0,0,0); stroke-width:1.0px;"/>
<line x1="420.0px" y1="562.0px" x2="409.0px" y2="557.0px" style="stroke:rgb(0,0,0); stroke-width:1.0px;"/>
<rect x="392.5px" y="545.5px" width="11.0px" height="12.0px" rx="0.0px" ry="0.0px" style="fill:rgb(255,255,255); stroke:rgb(0,0,0); stroke-width:1.0px;"/>
<text transform="translate(394.0,543.0), rotate(-0.0)" x="0px" y="0px" textLength="8.0px"
 style="font-family:Arial; font-size:13.0px; fill:rgb(0,0,0); stroke:none; baseline-shift:-13.0px; ">
   +
</text>
<path d="M 387.0 471.0 L 387.0 404.0 C 387.0 401.0 384.0 395.0 381.0 393.0 L 271.0 334.0 C 268.0 333.0 262.0 328.0 259.0 325.0 L 166.0 223.0 C 163.0 220.0 161.0 214.0 161.0 210.0 L 161.0 200.0" style="fill:none; stroke:rgb(0,0,0); stroke-dasharray:5 3; stroke-width:1.0px;"/>
<polyline points=" 156.0,212.0 161.0,200.0 165.0,212.0 " style="fill:none; stroke:rgb(0,0,0); stroke-width:1.0px;"/>
<text transform="translate(171.0,251.0), rotate(-0.0)" x="0px" y="0px" textLength="41.0px"
 style="font-family:Arial; font-style:italic;font-size:10.0px; fill:rgb(0,0,0); stroke:none; baseline-shift:-10.0px; ">
   Maintain
</text>
<path d="M 462.0 130.0 L 401.0 92.0" style="fill:none; stroke:rgb(0,0,0); stroke-width:1.0px;"/>
<polyline points=" 410.0,102.0 401.0,92.0 414.0,95.0 " style="fill:none; stroke:rgb(0,0,0); stroke-width:1.0px;"/>
<text transform="translate(409.0,111.0), rotate(-0.0)" x="0px" y="0px" textLength="46.0px"
 style="font-family:Arial; font-style:italic;font-size:10.0px; fill:rgb(0,0,0); stroke:none; baseline-shift:-10.0px; ">
   Workforce
</text>
<path d="M 403.0 588.0 L 401.0 565.0" style="fill:none; stroke:rgb(0,0,0); stroke-width:1.0px;"/>
<polyline points=" 398.0,578.0 401.0,565.0 406.0,577.0 " style="fill:none; stroke:rgb(0,0,0); stroke-width:1.0px;"/>
<text transform="translate(379.0,577.0), rotate(-0.0)" x="0px" y="0px" textLength="46.0px"
 style="font-family:Arial; font-style:italic;font-size:10.0px; fill:rgb(0,0,0); stroke:none; baseline-shift:-10.0px; ">
   Workforce
</text>
</g>
</svg>
