<?xml version="1.0" encoding="UTF-8" standalone="no"?>
<svg width="1067.0px" height="1049.0px" version="1.1" xmlns="http://www.w3.org/2000/svg" xmlns:xlink="http://www.w3.org/1999/xlink">
<g>
<rect x="0.0px" y="0.0px" width="1067.0px" height="1049.0px" rx="0.0px" ry="0.0px" style="fill:rgb(255,255,255);"/>
<rect x="310.5px" y="165.5px" width="149.0px" height="55.0px" rx="0.0px" ry="0.0px" style="fill:rgb(134,195,244); stroke:rgb(0,0,0); stroke-dasharray:5 3 2 3; stroke-width:1.0px;"/>
<text transform="translate(327.0,177.0), rotate(-0.0)" x="0px" y="0px" textLength="116.0px"
 style="font-family:Arial; font-size:13.0px; fill:rgb(0,0,0); stroke:none; baseline-shift:-13.0px; ">
   Reputation of having
</text>
<text transform="translate(336.0,193.0), rotate(-0.0)" x="0px" y="0px" textLength="96.0px"
 style="font-family:Arial; font-size:13.0px; fill:rgb(0,0,0); stroke:none; baseline-shift:-13.0px; ">
   well equiped site
</text>
<rect x="379.5px" y="209.5px" width="12.0px" height="11.0px" rx="0.0px" ry="0.0px" style="fill:rgb(255,255,255); stroke:rgb(0,0,0); stroke-width:1.0px;"/>
<text transform="translate(382.0,207.0), rotate(-0.0)" x="0px" y="0px" textLength="8.0px"
 style="font-family:Arial; font-size:13.0px; fill:rgb(0,0,0); stroke:none; baseline-shift:-13.0px; ">
   +
</text>
<rect x="136.5px" y="133.5px" width="150.0px" height="56.0px" rx="0.0px" ry="0.0px" style="fill:rgb(255,255,255); stroke:rgb(0,0,0); stroke-width:1.0px;"/>
<text transform="translate(150.0,145.0), rotate(-0.0)" x="0px" y="0px" textLength="122.0px"
 style="font-family:Arial; font-size:13.0px; fill:rgb(0,0,0); stroke:none; baseline-shift:-13.0px; ">
   Private customers on
</text>
<text transform="translate(177.0,161.0), rotate(-0.0)" x="0px" y="0px" textLength="70.0px"
 style="font-family:Arial; font-size:13.0px; fill:rgb(0,0,0); stroke:none; baseline-shift:-13.0px; ">
   subscription
</text>
<rect x="206.5px" y="178.5px" width="12.0px" height="11.0px" rx="0.0px" ry="0.0px" style="fill:rgb(255,255,255); stroke:rgb(0,0,0); stroke-width:1.0px;"/>
<text transform="translate(209.0,176.0), rotate(-0.0)" x="0px" y="0px" textLength="8.0px"
 style="font-family:Arial; font-size:13.0px; fill:rgb(0,0,0); stroke:none; baseline-shift:-13.0px; ">
   +
</text>
<rect x="537.5px" y="164.5px" width="150.0px" height="53.0px" rx="0.0px" ry="0.0px" style="fill:rgb(255,255,255); stroke:rgb(0,0,0); stroke-width:1.0px;"/>
<text transform="translate(562.0,174.0), rotate(-0.0)" x="0px" y="0px" textLength="102.0px"
 style="font-family:Arial; font-size:13.0px; fill:rgb(0,0,0); stroke:none; baseline-shift:-13.0px; ">
   Site with installed
</text>
<text transform="translate(582.0,190.0), rotate(-0.0)" x="0px" y="0px" textLength="60.0px"
 style="font-family:Arial; font-size:13.0px; fill:rgb(0,0,0); stroke:none; baseline-shift:-13.0px; ">
   equipment
</text>
<rect x="607.5px" y="205.5px" width="12.0px" height="12.0px" rx="0.0px" ry="0.0px" style="fill:rgb(255,255,255); stroke:rgb(0,0,0); stroke-width:1.0px;"/>
<text transform="translate(610.0,203.0), rotate(-0.0)" x="0px" y="0px" textLength="8.0px"
 style="font-family:Arial; font-size:13.0px; fill:rgb(0,0,0); stroke:none; baseline-shift:-13.0px; ">
   +
</text>
<rect x="298.5px" y="399.5px" width="131.0px" height="54.0px" rx="0.0px" ry="0.0px" style="fill:rgb(255,255,255); stroke:rgb(0,0,0); stroke-width:1.0px;"/>
<text transform="translate(308.0,418.0), rotate(-0.0)" x="0px" y="0px" textLength="112.0px"
 style="font-family:Arial; font-size:13.0px; fill:rgb(0,0,0); stroke:none; baseline-shift:-13.0px; ">
   Site (phisical room)
</text>
<rect x="359.5px" y="442.5px" width="11.0px" height="11.0px" rx="0.0px" ry="0.0px" style="fill:rgb(255,255,255); stroke:rgb(0,0,0); stroke-width:1.0px;"/>
<text transform="translate(361.0,440.0), rotate(-0.0)" x="0px" y="0px" textLength="8.0px"
 style="font-family:Arial; font-size:13.0px; fill:rgb(0,0,0); stroke:none; baseline-shift:-13.0px; ">
   +
</text>
<rect x="802.5px" y="395.5px" width="130.0px" height="56.0px" rx="0.0px" ry="0.0px" style="fill:rgb(134,195,244); stroke:rgb(0,0,0); stroke-width:1.0px;"/>
<text transform="translate(812.0,407.0), rotate(-0.0)" x="0px" y="0px" textLength="110.0px"
 style="font-family:Arial; font-size:13.0px; fill:rgb(0,0,0); stroke:none; baseline-shift:-13.0px; ">
   Equipment vendors
</text>
<text transform="translate(826.0,423.0), rotate(-0.0)" x="0px" y="0px" textLength="82.0px"
 style="font-family:Arial; font-size:13.0px; fill:rgb(0,0,0); stroke:none; baseline-shift:-13.0px; ">
   for a large site
</text>
<rect x="862.5px" y="440.5px" width="11.0px" height="11.0px" rx="0.0px" ry="0.0px" style="fill:rgb(255,255,255); stroke:rgb(0,0,0); stroke-width:1.0px;"/>
<text transform="translate(864.0,437.0), rotate(-0.0)" x="0px" y="0px" textLength="8.0px"
 style="font-family:Arial; font-size:13.0px; fill:rgb(0,0,0); stroke:none; baseline-shift:-13.0px; ">
   +
</text>
<rect x="458.5px" y="398.5px" width="112.0px" height="56.0px" rx="0.0px" ry="0.0px" style="fill:rgb(134,195,244); stroke:rgb(0,0,0); stroke-width:1.0px;"/>
<text transform="translate(474.0,410.0), rotate(-0.0)" x="0px" y="0px" textLength="80.0px"
 style="font-family:Arial; font-size:13.0px; fill:rgb(0,0,0); stroke:none; baseline-shift:-13.0px; ">
   Purchase and
</text>
<text transform="translate(469.0,426.0), rotate(-0.0)" x="0px" y="0px" textLength="90.0px"
 style="font-family:Arial; font-size:13.0px; fill:rgb(0,0,0); stroke:none; baseline-shift:-13.0px; ">
   installation staff
</text>
<rect x="509.5px" y="443.5px" width="11.0px" height="11.0px" rx="0.0px" ry="0.0px" style="fill:rgb(255,255,255); stroke:rgb(0,0,0); stroke-width:1.0px;"/>
<text transform="translate(511.0,440.0), rotate(-0.0)" x="0px" y="0px" textLength="8.0px"
 style="font-family:Arial; font-size:13.0px; fill:rgb(0,0,0); stroke:none; baseline-shift:-13.0px; ">
   +
</text>
<rect x="632.5px" y="768.5px" width="114.0px" height="60.0px" rx="0.0px" ry="0.0px" style="fill:rgb(255,255,255); stroke:rgb(0,0,0); stroke-width:1.0px;"/>
<text transform="translate(649.0,782.0), rotate(-0.0)" x="0px" y="0px" textLength="80.0px"
 style="font-family:Arial; font-size:13.0px; fill:rgb(0,0,0); stroke:none; baseline-shift:-13.0px; ">
   Purchase and
</text>
<text transform="translate(644.0,798.0), rotate(-0.0)" x="0px" y="0px" textLength="90.0px"
 style="font-family:Arial; font-size:13.0px; fill:rgb(0,0,0); stroke:none; baseline-shift:-13.0px; ">
   installation staff
</text>
<rect x="684.5px" y="817.5px" width="11.0px" height="11.0px" rx="0.0px" ry="0.0px" style="fill:rgb(255,255,255); stroke:rgb(0,0,0); stroke-width:1.0px;"/>
<text transform="translate(686.0,815.0), rotate(-0.0)" x="0px" y="0px" textLength="8.0px"
 style="font-family:Arial; font-size:13.0px; fill:rgb(0,0,0); stroke:none; baseline-shift:-13.0px; ">
   +
</text>
<rect x="460.5px" y="768.5px" width="150.0px" height="52.0px" rx="0.0px" ry="0.0px" style="fill:rgb(255,255,255); stroke:rgb(0,0,0); stroke-width:1.0px;"/>
<text transform="translate(470.0,777.0), rotate(-0.0)" x="0px" y="0px" textLength="131.0px"
 style="font-family:Arial; font-size:13.0px; fill:rgb(0,0,0); stroke:none; baseline-shift:-13.0px; ">
   Private customers with
</text>
<text transform="translate(511.0,794.0), rotate(-0.0)" x="0px" y="0px" textLength="48.0px"
 style="font-family:Arial; font-size:13.0px; fill:rgb(0,0,0); stroke:none; baseline-shift:-13.0px; ">
   own site
</text>
<rect x="530.5px" y="808.5px" width="12.0px" height="12.0px" rx="0.0px" ry="0.0px" style="fill:rgb(255,255,255); stroke:rgb(0,0,0); stroke-width:1.0px;"/>
<text transform="translate(533.0,806.0), rotate(-0.0)" x="0px" y="0px" textLength="8.0px"
 style="font-family:Arial; font-size:13.0px; fill:rgb(0,0,0); stroke:none; baseline-shift:-13.0px; ">
   +
</text>
<rect x="932.5px" y="767.5px" width="131.0px" height="56.0px" rx="0.0px" ry="0.0px" style="fill:rgb(255,255,255); stroke:rgb(0,0,0); stroke-width:1.0px;"/>
<text transform="translate(943.0,779.0), rotate(-0.0)" x="0px" y="0px" textLength="110.0px"
 style="font-family:Arial; font-size:13.0px; fill:rgb(0,0,0); stroke:none; baseline-shift:-13.0px; ">
   Equipment vendors
</text>
<text transform="translate(957.0,795.0), rotate(-0.0)" x="0px" y="0px" textLength="81.0px"
 style="font-family:Arial; font-size:13.0px; fill:rgb(0,0,0); stroke:none; baseline-shift:-13.0px; ">
   for small sites
</text>
<rect x="993.5px" y="811.5px" width="11.0px" height="12.0px" rx="0.0px" ry="0.0px" style="fill:rgb(255,255,255); stroke:rgb(0,0,0); stroke-width:1.0px;"/>
<text transform="translate(995.0,809.0), rotate(-0.0)" x="0px" y="0px" textLength="8.0px"
 style="font-family:Arial; font-size:13.0px; fill:rgb(0,0,0); stroke:none; baseline-shift:-13.0px; ">
   +
</text>
<rect x="343.5px" y="702.5px" width="129.0px" height="61.0px" rx="0.0px" ry="0.0px" style="fill:rgb(255,255,255); stroke:rgb(0,0,0); stroke-width:1.0px;"/>
<text transform="translate(351.0,716.0), rotate(-0.0)" x="0px" y="0px" textLength="114.0px"
 style="font-family:Arial; font-size:13.0px; fill:rgb(0,0,0); stroke:none; baseline-shift:-13.0px; ">
   Stock of installation
</text>
<text transform="translate(390.0,732.0), rotate(-0.0)" x="0px" y="0px" textLength="36.0px"
 style="font-family:Arial; font-size:13.0px; fill:rgb(0,0,0); stroke:none; baseline-shift:-13.0px; ">
   orders
</text>
<rect x="403.5px" y="752.5px" width="11.0px" height="11.0px" rx="0.0px" ry="0.0px" style="fill:rgb(255,255,255); stroke:rgb(0,0,0); stroke-width:1.0px;"/>
<text transform="translate(405.0,749.0), rotate(-0.0)" x="0px" y="0px" textLength="8.0px"
 style="font-family:Arial; font-size:13.0px; fill:rgb(0,0,0); stroke:none; baseline-shift:-13.0px; ">
   +
</text>
<rect x="572.5px" y="869.5px" width="150.0px" height="58.0px" rx="0.0px" ry="0.0px" style="fill:rgb(255,255,255); stroke:rgb(0,0,0); stroke-width:1.0px;"/>
<text transform="translate(588.0,882.0), rotate(-0.0)" x="0px" y="0px" textLength="119.0px"
 style="font-family:Arial; font-size:13.0px; fill:rgb(0,0,0); stroke:none; baseline-shift:-13.0px; ">
   Reputation of a good
</text>
<text transform="translate(627.0,898.0), rotate(-0.0)" x="0px" y="0px" textLength="40.0px"
 style="font-family:Arial; font-size:13.0px; fill:rgb(0,0,0); stroke:none; baseline-shift:-13.0px; ">
   service
</text>
<rect x="642.5px" y="916.5px" width="11.0px" height="11.0px" rx="0.0px" ry="0.0px" style="fill:rgb(255,255,255); stroke:rgb(0,0,0); stroke-width:1.0px;"/>
<text transform="translate(644.0,914.0), rotate(-0.0)" x="0px" y="0px" textLength="8.0px"
 style="font-family:Arial; font-size:13.0px; fill:rgb(0,0,0); stroke:none; baseline-shift:-13.0px; ">
   +
</text>
<rect x="598.5px" y="400.5px" width="150.0px" height="57.0px" rx="0.0px" ry="0.0px" style="fill:rgb(134,195,244); stroke:rgb(0,0,0); stroke-width:1.0px;"/>
<text transform="translate(610.0,412.0), rotate(-0.0)" x="0px" y="0px" textLength="127.0px"
 style="font-family:Arial; font-size:13.0px; fill:rgb(0,0,0); stroke:none; baseline-shift:-13.0px; ">
   Rutines &amp; Procedures
</text>
<text transform="translate(603.0,429.0), rotate(-0.0)" x="0px" y="0px" textLength="141.0px"
 style="font-family:Arial; font-size:13.0px; fill:rgb(0,0,0); stroke:none; baseline-shift:-13.0px; ">
   for equipping a large site
</text>
<rect x="668.5px" y="446.5px" width="12.0px" height="11.0px" rx="0.0px" ry="0.0px" style="fill:rgb(255,255,255); stroke:rgb(0,0,0); stroke-width:1.0px;"/>
<text transform="translate(670.0,444.0), rotate(-0.0)" x="0px" y="0px" textLength="8.0px"
 style="font-family:Arial; font-size:13.0px; fill:rgb(0,0,0); stroke:none; baseline-shift:-13.0px; ">
   +
</text>
<rect x="765.5px" y="766.5px" width="150.0px" height="59.0px" rx="0.0px" ry="0.0px" style="fill:rgb(255,255,255); stroke:rgb(0,0,0); stroke-width:1.0px;"/>
<text transform="translate(776.0,779.0), rotate(-0.0)" x="0px" y="0px" textLength="127.0px"
 style="font-family:Arial; font-size:13.0px; fill:rgb(0,0,0); stroke:none; baseline-shift:-13.0px; ">
   Rutines &amp; Procedures
</text>
<text transform="translate(768.0,796.0), rotate(-0.0)" x="0px" y="0px" textLength="144.0px"
 style="font-family:Arial; font-size:13.0px; fill:rgb(0,0,0); stroke:none; baseline-shift:-13.0px; ">
   for equipping a small site
</text>
<rect x="835.5px" y="813.5px" width="11.0px" height="12.0px" rx="0.0px" ry="0.0px" style="fill:rgb(255,255,255); stroke:rgb(0,0,0); stroke-width:1.0px;"/>
<text transform="translate(837.0,811.0), rotate(-0.0)" x="0px" y="0px" textLength="8.0px"
 style="font-family:Arial; font-size:13.0px; fill:rgb(0,0,0); stroke:none; baseline-shift:-13.0px; ">
   +
</text>
<rect x="487.5px" y="967.5px" width="151.0px" height="64.0px" rx="0.0px" ry="0.0px" style="fill:rgb(134,195,244); stroke:rgb(0,0,0); stroke-width:1.0px;"/>
<text transform="translate(491.0,983.0), rotate(-0.0)" x="0px" y="0px" textLength="143.0px"
 style="font-family:Arial; font-size:13.0px; fill:rgb(0,0,0); stroke:none; baseline-shift:-13.0px; ">
   Used in creating the new
</text>
<text transform="translate(537.0,999.0), rotate(-0.0)" x="0px" y="0px" textLength="52.0px"
 style="font-family:Arial; font-size:13.0px; fill:rgb(0,0,0); stroke:none; baseline-shift:-13.0px; ">
   business
</text>
<rect x="558.5px" y="1020.5px" width="11.0px" height="11.0px" rx="0.0px" ry="0.0px" style="fill:rgb(255,255,255); stroke:rgb(0,0,0); stroke-width:1.0px;"/>
<text transform="translate(560.0,1017.0), rotate(-0.0)" x="0px" y="0px" textLength="8.0px"
 style="font-family:Arial; font-size:13.0px; fill:rgb(0,0,0); stroke:none; baseline-shift:-13.0px; ">
   +
</text>
<polygon points=" 476.0,0.0 489.0,13.0 489.0,41.0 345.0,41.0 345.0,0.0 " style="fill:rgb(255,255,239); stroke:rgb(0,0,0); stroke-width:1.0px;"/>
<text transform="translate(351.0,13.0), rotate(-0.0)" x="0px" y="0px" textLength="100.0px"
 style="font-family:Arial; font-size:13.0px; fill:rgb(0,0,0); stroke:none; baseline-shift:-13.0px; ">
   Original business
</text>
<polygon points=" 554.0,528.0 568.0,541.0 568.0,563.0 435.0,563.0 435.0,528.0 " style="fill:rgb(255,255,239); stroke:rgb(255,0,0); stroke-width:3.0px;"/>
<text transform="translate(441.0,541.0), rotate(-0.0)" x="0px" y="0px" textLength="81.0px"
 style="font-family:Arial; font-size:13.0px; fill:rgb(0,0,0); stroke:none; baseline-shift:-13.0px; ">
   New business
</text>
<polygon points=" 109.0,974.0 122.0,988.0 122.0,1012.0 28.0,1012.0 28.0,974.0 " style="fill:rgb(255,255,239); stroke:rgb(255,0,0); stroke-width:3.0px;"/>
<text transform="translate(33.0,988.0), rotate(-0.0)" x="0px" y="0px" textLength="61.0px"
 style="font-family:Arial; font-size:18.0px; fill:rgb(0,0,0); stroke:none; baseline-shift:-17.0px; ">
   Agenda
</text>
<ellipse cx="652.5px" cy="532.5px" rx="61.0px" ry="32.5px" style="fill:rgb(255,0,0); stroke:rgb(0,0,0); stroke-width:1.0px;"/>
<text transform="translate(632.0,524.0), rotate(-0.0)" x="0px" y="0px" textLength="41.0px"
 style="font-family:Arial; font-size:13.0px; fill:rgb(0,0,0); stroke:none; baseline-shift:-13.0px; ">
   Retrain
</text>
<line x1="634.0px" y1="493.0px" x2="645.0px" y2="499.0px" style="stroke:rgb(0,0,0); stroke-width:1.0px;"/>
<line x1="634.0px" y1="505.0px" x2="645.0px" y2="499.0px" style="stroke:rgb(0,0,0); stroke-width:1.0px;"/>
<line x1="675.0px" y1="559.0px" x2="664.0px" y2="565.0px" style="stroke:rgb(0,0,0); stroke-width:1.0px;"/>
<line x1="675.0px" y1="570.0px" x2="664.0px" y2="565.0px" style="stroke:rgb(0,0,0); stroke-width:1.0px;"/>
<rect x="647.5px" y="553.5px" width="11.0px" height="12.0px" rx="0.0px" ry="0.0px" style="fill:rgb(255,255,255); stroke:rgb(0,0,0); stroke-width:1.0px;"/>
<text transform="translate(649.0,551.0), rotate(-0.0)" x="0px" y="0px" textLength="8.0px"
 style="font-family:Arial; font-size:13.0px; fill:rgb(0,0,0); stroke:none; baseline-shift:-13.0px; ">
   +
</text>
<path d="M 537.0 268.0 L 581.0 222.0" style="fill:none; stroke:rgb(0,0,0); stroke-dasharray:5 3; stroke-width:1.0px;"/>
<polyline points=" 570.0,228.0 581.0,222.0 576.0,234.0 " style="fill:none; stroke:rgb(0,0,0); stroke-width:1.0px;"/>
<text transform="translate(538.0,249.0), rotate(-0.0)" x="0px" y="0px" textLength="36.0px"
 style="font-family:Arial; font-style:italic;font-size:10.0px; fill:rgb(0,0,0); stroke:none; baseline-shift:-10.0px; ">
   Acquire
</text>
<path d="M 666.0 259.0 L 637.0 222.0" style="fill:none; stroke:rgb(0,0,0); stroke-dasharray:5 3; stroke-width:1.0px;"/>
<polyline points=" 641.0,235.0 637.0,222.0 648.0,229.0 " style="fill:none; stroke:rgb(0,0,0); stroke-width:1.0px;"/>
<text transform="translate(631.0,241.0), rotate(-0.0)" x="0px" y="0px" textLength="41.0px"
 style="font-family:Arial; font-style:italic;font-size:10.0px; fill:rgb(0,0,0); stroke:none; baseline-shift:-10.0px; ">
   Maintain
</text>
<ellipse cx="495.5px" cy="313.5px" rx="84.5px" ry="38.5px" style="fill:rgb(251,224,70); stroke:rgb(0,0,0); stroke-width:1.0px;"/>
<text transform="translate(452.0,296.0), rotate(-0.0)" x="0px" y="0px" textLength="86.0px"
 style="font-family:Arial; font-size:13.0px; fill:rgb(0,0,0); stroke:none; baseline-shift:-13.0px; ">
   Acquire+install
</text>
<text transform="translate(430.0,313.0), rotate(-0.0)" x="0px" y="0px" textLength="130.0px"
 style="font-family:Arial; font-size:13.0px; fill:rgb(0,0,0); stroke:none; baseline-shift:-13.0px; ">
   equipment on own site
</text>
<line x1="477.0px" y1="268.0px" x2="488.0px" y2="274.0px" style="stroke:rgb(0,0,0); stroke-width:1.0px;"/>
<line x1="477.0px" y1="279.0px" x2="488.0px" y2="274.0px" style="stroke:rgb(0,0,0); stroke-width:1.0px;"/>
<line x1="518.0px" y1="346.0px" x2="507.0px" y2="351.0px" style="stroke:rgb(0,0,0); stroke-width:1.0px;"/>
<line x1="518.0px" y1="357.0px" x2="507.0px" y2="351.0px" style="stroke:rgb(0,0,0); stroke-width:1.0px;"/>
<rect x="490.5px" y="340.5px" width="11.0px" height="11.0px" rx="0.0px" ry="0.0px" style="fill:rgb(255,255,255); stroke:rgb(0,0,0); stroke-width:1.0px;"/>
<text transform="translate(492.0,338.0), rotate(-0.0)" x="0px" y="0px" textLength="8.0px"
 style="font-family:Arial; font-size:13.0px; fill:rgb(0,0,0); stroke:none; baseline-shift:-13.0px; ">
   +
</text>
<path d="M 851.0 254.0 L 851.0 245.0 C 851.0 241.0 847.0 236.0 844.0 235.0 L 694.0 206.0" style="fill:none; stroke:rgb(0,0,0); stroke-dasharray:5 3; stroke-width:1.0px;"/>
<polyline points=" 706.0,213.0 694.0,206.0 707.0,205.0 " style="fill:none; stroke:rgb(0,0,0); stroke-width:1.0px;"/>
<text transform="translate(683.0,207.0), rotate(-0.0)" x="0px" y="0px" textLength="28.0px"
 style="font-family:Arial; font-style:italic;font-size:10.0px; fill:rgb(0,0,0); stroke:none; baseline-shift:-10.0px; ">
   Retire
</text>
<ellipse cx="400.5px" cy="86.5px" rx="94.0px" ry="38.5px" style="fill:rgb(253,205,172); stroke:rgb(0,0,0); stroke-width:1.0px;"/>
<ellipse cx="400.5px" cy="86.5px" rx="90.0px" ry="35.0px" style="fill:rgb(253,205,172); stroke:rgb(0,0,0); stroke-width:1.0px;"/>
<text transform="translate(327.0,70.0), rotate(-0.0)" x="0px" y="0px" textLength="146.0px"
 style="font-family:Arial; font-size:13.0px; fill:rgb(0,0,0); stroke:none; baseline-shift:-13.0px; ">
   Leasing site + equipment
</text>
<text transform="translate(355.0,86.0), rotate(-0.0)" x="0px" y="0px" textLength="92.0px"
 style="font-family:Arial; font-size:13.0px; fill:rgb(0,0,0); stroke:none; baseline-shift:-13.0px; ">
   for pesronal use
</text>
<line x1="382.0px" y1="41.0px" x2="394.0px" y2="47.0px" style="stroke:rgb(0,0,0); stroke-width:1.0px;"/>
<line x1="382.0px" y1="53.0px" x2="394.0px" y2="47.0px" style="stroke:rgb(0,0,0); stroke-width:1.0px;"/>
<line x1="424.0px" y1="119.0px" x2="413.0px" y2="125.0px" style="stroke:rgb(0,0,0); stroke-width:1.0px;"/>
<line x1="424.0px" y1="130.0px" x2="413.0px" y2="125.0px" style="stroke:rgb(0,0,0); stroke-width:1.0px;"/>
<rect x="396.5px" y="113.5px" width="11.0px" height="12.0px" rx="0.0px" ry="0.0px" style="fill:rgb(255,255,255); stroke:rgb(0,0,0); stroke-width:1.0px;"/>
<text transform="translate(398.0,111.0), rotate(-0.0)" x="0px" y="0px" textLength="8.0px"
 style="font-family:Arial; font-size:13.0px; fill:rgb(0,0,0); stroke:none; baseline-shift:-13.0px; ">
   +
</text>
<ellipse cx="700.5px" cy="303.5px" rx="75.0px" ry="38.5px" style="fill:rgb(255,255,255); stroke:rgb(0,0,0); stroke-width:1.0px;"/>
<text transform="translate(649.0,287.0), rotate(-0.0)" x="0px" y="0px" textLength="103.0px"
 style="font-family:Arial; font-size:13.0px; fill:rgb(0,0,0); stroke:none; baseline-shift:-13.0px; ">
   Service and repair
</text>
<text transform="translate(670.0,303.0), rotate(-0.0)" x="0px" y="0px" textLength="60.0px"
 style="font-family:Arial; font-size:13.0px; fill:rgb(0,0,0); stroke:none; baseline-shift:-13.0px; ">
   equipment
</text>
<line x1="682.0px" y1="259.0px" x2="694.0px" y2="265.0px" style="stroke:rgb(0,0,0); stroke-width:1.0px;"/>
<line x1="682.0px" y1="270.0px" x2="694.0px" y2="265.0px" style="stroke:rgb(0,0,0); stroke-width:1.0px;"/>
<line x1="724.0px" y1="337.0px" x2="712.0px" y2="342.0px" style="stroke:rgb(0,0,0); stroke-width:1.0px;"/>
<line x1="724.0px" y1="348.0px" x2="712.0px" y2="342.0px" style="stroke:rgb(0,0,0); stroke-width:1.0px;"/>
<rect x="695.5px" y="331.5px" width="12.0px" height="11.0px" rx="0.0px" ry="0.0px" style="fill:rgb(255,255,255); stroke:rgb(0,0,0); stroke-width:1.0px;"/>
<text transform="translate(698.0,329.0), rotate(-0.0)" x="0px" y="0px" textLength="8.0px"
 style="font-family:Arial; font-size:13.0px; fill:rgb(0,0,0); stroke:none; baseline-shift:-13.0px; ">
   +
</text>
<ellipse cx="870.5px" cy="304.5px" rx="75.0px" ry="38.5px" style="fill:rgb(255,255,255); stroke:rgb(0,0,0); stroke-width:1.0px;"/>
<text transform="translate(837.0,288.0), rotate(-0.0)" x="0px" y="0px" textLength="67.0px"
 style="font-family:Arial; font-size:13.0px; fill:rgb(0,0,0); stroke:none; baseline-shift:-13.0px; ">
   Remove old
</text>
<text transform="translate(840.0,304.0), rotate(-0.0)" x="0px" y="0px" textLength="60.0px"
 style="font-family:Arial; font-size:13.0px; fill:rgb(0,0,0); stroke:none; baseline-shift:-13.0px; ">
   equipment
</text>
<line x1="852.0px" y1="260.0px" x2="863.0px" y2="265.0px" style="stroke:rgb(0,0,0); stroke-width:1.0px;"/>
<line x1="852.0px" y1="271.0px" x2="863.0px" y2="265.0px" style="stroke:rgb(0,0,0); stroke-width:1.0px;"/>
<line x1="893.0px" y1="338.0px" x2="882.0px" y2="343.0px" style="stroke:rgb(0,0,0); stroke-width:1.0px;"/>
<line x1="893.0px" y1="349.0px" x2="882.0px" y2="343.0px" style="stroke:rgb(0,0,0); stroke-width:1.0px;"/>
<rect x="865.5px" y="332.5px" width="11.0px" height="11.0px" rx="0.0px" ry="0.0px" style="fill:rgb(255,255,255); stroke:rgb(0,0,0); stroke-width:1.0px;"/>
<text transform="translate(867.0,330.0), rotate(-0.0)" x="0px" y="0px" textLength="8.0px"
 style="font-family:Arial; font-size:13.0px; fill:rgb(0,0,0); stroke:none; baseline-shift:-13.0px; ">
   +
</text>
<path d="M 211.0 128.0 L 211.0 93.0 C 211.0 90.0 215.0 86.0 219.0 86.0 L 300.0 86.0" style="fill:none; stroke:rgb(0,0,0); stroke-width:1.0px;"/>
<polyline points=" 288.0,82.0 300.0,86.0 288.0,90.0 " style="fill:none; stroke:rgb(0,0,0); stroke-width:1.0px;"/>
<text transform="translate(212.0,86.0), rotate(-0.0)" x="0px" y="0px" textLength="53.0px"
 style="font-family:Arial; font-style:italic;font-size:10.0px; fill:rgb(0,0,0); stroke:none; baseline-shift:-10.0px; ">
   Beneficiary
</text>
<path d="M 597.0 158.0 L 597.0 153.0 C 597.0 150.0 593.0 146.0 589.0 146.0 L 443.0 147.0 C 439.0 147.0 435.0 143.0 435.0 139.0 L 435.0 130.0" style="fill:none; stroke:rgb(0,0,0); stroke-width:1.0px;"/>
<polyline points=" 431.0,143.0 435.0,130.0 440.0,143.0 " style="fill:none; stroke:rgb(0,0,0); stroke-width:1.0px;"/>
<text transform="translate(474.0,147.0), rotate(-0.0)" x="0px" y="0px" textLength="53.0px"
 style="font-family:Arial; font-style:italic;font-size:10.0px; fill:rgb(0,0,0); stroke:none; baseline-shift:-10.0px; ">
   Tech &amp; Info
</text>
<text transform="translate(471.0,160.0), rotate(-0.0)" x="0px" y="0px" textLength="60.0px"
 style="font-family:Arial; font-style:italic;font-size:10.0px; fill:rgb(0,0,0); stroke:none; baseline-shift:-10.0px; ">
   Infrastructure
</text>
<path d="M 402.0 393.0 L 443.0 357.0" style="fill:none; stroke:rgb(0,0,0); stroke-width:1.0px;"/>
<polyline points=" 431.0,362.0 443.0,357.0 437.0,369.0 " style="fill:none; stroke:rgb(0,0,0); stroke-width:1.0px;"/>
<text transform="translate(376.0,393.0), rotate(-0.0)" x="0px" y="0px" textLength="53.0px"
 style="font-family:Arial; font-style:italic;font-size:10.0px; fill:rgb(0,0,0); stroke:none; baseline-shift:-10.0px; ">
   Tech &amp; Info
</text>
<text transform="translate(372.0,406.0), rotate(-0.0)" x="0px" y="0px" textLength="60.0px"
 style="font-family:Arial; font-style:italic;font-size:10.0px; fill:rgb(0,0,0); stroke:none; baseline-shift:-10.0px; ">
   Infrastructure
</text>
<path d="M 796.0 402.0 L 586.0 340.0" style="fill:none; stroke:rgb(0,0,0); stroke-width:1.0px;"/>
<polyline points=" 597.0,347.0 586.0,340.0 599.0,339.0 " style="fill:none; stroke:rgb(0,0,0); stroke-width:1.0px;"/>
<text transform="translate(675.0,371.0), rotate(-0.0)" x="0px" y="0px" textLength="34.0px"
 style="font-family:Arial; font-style:italic;font-size:10.0px; fill:rgb(0,0,0); stroke:none; baseline-shift:-10.0px; ">
   Partner
</text>
<path d="M 508.0 392.0 L 503.0 363.0" style="fill:none; stroke:rgb(0,0,0); stroke-width:1.0px;"/>
<polyline points=" 502.0,376.0 503.0,363.0 509.0,375.0 " style="fill:none; stroke:rgb(0,0,0); stroke-width:1.0px;"/>
<text transform="translate(483.0,378.0), rotate(-0.0)" x="0px" y="0px" textLength="46.0px"
 style="font-family:Arial; font-style:italic;font-size:10.0px; fill:rgb(0,0,0); stroke:none; baseline-shift:-10.0px; ">
   Workforce
</text>
<path d="M 820.0 389.0 L 763.0 348.0" style="fill:none; stroke:rgb(0,0,0); stroke-width:1.0px;"/>
<polyline points=" 770.0,359.0 763.0,348.0 775.0,352.0 " style="fill:none; stroke:rgb(0,0,0); stroke-width:1.0px;"/>
<text transform="translate(775.0,369.0), rotate(-0.0)" x="0px" y="0px" textLength="34.0px"
 style="font-family:Arial; font-style:italic;font-size:10.0px; fill:rgb(0,0,0); stroke:none; baseline-shift:-10.0px; ">
   Partner
</text>
<ellipse cx="528.5px" cy="622.5px" rx="103.0px" ry="38.5px" style="fill:rgb(253,205,172); stroke:rgb(0,0,0); stroke-width:1.0px;"/>
<ellipse cx="528.5px" cy="622.5px" rx="99.0px" ry="35.0px" style="fill:rgb(253,205,172); stroke:rgb(0,0,0); stroke-width:1.0px;"/>
<text transform="translate(453.0,606.0), rotate(-0.0)" x="0px" y="0px" textLength="150.0px"
 style="font-family:Arial; font-size:13.0px; fill:rgb(0,0,0); stroke:none; baseline-shift:-13.0px; ">
   Acquire+install equipment
</text>
<text transform="translate(480.0,622.0), rotate(-0.0)" x="0px" y="0px" textLength="97.0px"
 style="font-family:Arial; font-size:13.0px; fill:rgb(0,0,0); stroke:none; baseline-shift:-13.0px; ">
   on customer site
</text>
<line x1="510.0px" y1="578.0px" x2="522.0px" y2="584.0px" style="stroke:rgb(0,0,0); stroke-width:1.0px;"/>
<line x1="510.0px" y1="589.0px" x2="522.0px" y2="584.0px" style="stroke:rgb(0,0,0); stroke-width:1.0px;"/>
<line x1="552.0px" y1="656.0px" x2="540.0px" y2="661.0px" style="stroke:rgb(0,0,0); stroke-width:1.0px;"/>
<line x1="552.0px" y1="667.0px" x2="540.0px" y2="661.0px" style="stroke:rgb(0,0,0); stroke-width:1.0px;"/>
<rect x="523.5px" y="650.5px" width="12.0px" height="11.0px" rx="0.0px" ry="0.0px" style="fill:rgb(255,255,255); stroke:rgb(0,0,0); stroke-width:1.0px;"/>
<text transform="translate(526.0,648.0), rotate(-0.0)" x="0px" y="0px" textLength="8.0px"
 style="font-family:Arial; font-size:13.0px; fill:rgb(0,0,0); stroke:none; baseline-shift:-13.0px; ">
   +
</text>
<ellipse cx="290.5px" cy="532.5px" rx="103.0px" ry="38.5px" style="fill:rgb(255,0,0); stroke:rgb(0,0,0); stroke-width:1.0px;"/>
<text transform="translate(226.0,516.0), rotate(-0.0)" x="0px" y="0px" textLength="130.0px"
 style="font-family:Arial; font-size:13.0px; fill:rgb(0,0,0); stroke:none; baseline-shift:-13.0px; ">
   Promoting new service
</text>
<text transform="translate(214.0,532.0), rotate(-0.0)" x="0px" y="0px" textLength="153.0px"
 style="font-family:Arial; font-size:13.0px; fill:rgb(0,0,0); stroke:none; baseline-shift:-13.0px; ">
   among existing customers
</text>
<line x1="273.0px" y1="487.0px" x2="284.0px" y2="493.0px" style="stroke:rgb(0,0,0); stroke-width:1.0px;"/>
<line x1="273.0px" y1="499.0px" x2="284.0px" y2="493.0px" style="stroke:rgb(0,0,0); stroke-width:1.0px;"/>
<line x1="314.0px" y1="565.0px" x2="303.0px" y2="571.0px" style="stroke:rgb(0,0,0); stroke-width:1.0px;"/>
<line x1="314.0px" y1="576.0px" x2="303.0px" y2="571.0px" style="stroke:rgb(0,0,0); stroke-width:1.0px;"/>
<rect x="286.5px" y="559.5px" width="11.0px" height="12.0px" rx="0.0px" ry="0.0px" style="fill:rgb(255,255,255); stroke:rgb(0,0,0); stroke-width:1.0px;"/>
<text transform="translate(288.0,557.0), rotate(-0.0)" x="0px" y="0px" textLength="8.0px"
 style="font-family:Arial; font-size:13.0px; fill:rgb(0,0,0); stroke:none; baseline-shift:-13.0px; ">
   +
</text>
<path d="M 293.0 579.0 L 293.0 788.0 C 293.0 792.0 296.0 796.0 300.0 796.0 L 381.0 796.0 L 392.0 796.0 L 454.0 796.0" style="fill:none; stroke:rgb(0,0,0); stroke-dasharray:5 3; stroke-width:1.0px;"/>
<polyline points=" 442.0,791.0 454.0,796.0 442.0,800.0 " style="fill:none; stroke:rgb(0,0,0); stroke-width:1.0px;"/>
<text transform="translate(275.0,667.0), rotate(-0.0)" x="0px" y="0px" textLength="36.0px"
 style="font-family:Arial; font-style:italic;font-size:10.0px; fill:rgb(0,0,0); stroke:none; baseline-shift:-10.0px; ">
   Acquire
</text>
<path d="M 656.0 762.0 L 569.0 667.0" style="fill:none; stroke:rgb(0,0,0); stroke-width:1.0px;"/>
<polyline points=" 574.0,679.0 569.0,667.0 580.0,674.0 " style="fill:none; stroke:rgb(0,0,0); stroke-width:1.0px;"/>
<text transform="translate(590.0,715.0), rotate(-0.0)" x="0px" y="0px" textLength="46.0px"
 style="font-family:Arial; font-style:italic;font-size:10.0px; fill:rgb(0,0,0); stroke:none; baseline-shift:-10.0px; ">
   Workforce
</text>
<path d="M 977.0 761.0 L 977.0 736.0 C 977.0 732.0 973.0 728.0 969.0 726.0 L 824.0 692.0 L 813.0 690.0 L 675.0 657.0 L 663.0 655.0 L 638.0 649.0" style="fill:none; stroke:rgb(0,0,0); stroke-width:1.0px;"/>
<polyline points=" 650.0,655.0 638.0,649.0 652.0,647.0 " style="fill:none; stroke:rgb(0,0,0); stroke-width:1.0px;"/>
<text transform="translate(960.0,728.0), rotate(-0.0)" x="0px" y="0px" textLength="34.0px"
 style="font-family:Arial; font-style:italic;font-size:10.0px; fill:rgb(0,0,0); stroke:none; baseline-shift:-10.0px; ">
   Partner
</text>
<path d="M 534.0 762.0 L 530.0 669.0" style="fill:none; stroke:rgb(0,0,0); stroke-width:1.0px;"/>
<polyline points=" 526.0,682.0 530.0,669.0 534.0,682.0 " style="fill:none; stroke:rgb(0,0,0); stroke-width:1.0px;"/>
<text transform="translate(505.0,716.0), rotate(-0.0)" x="0px" y="0px" textLength="53.0px"
 style="font-family:Arial; font-style:italic;font-size:10.0px; fill:rgb(0,0,0); stroke:none; baseline-shift:-10.0px; ">
   Beneficiary
</text>
<path d="M 393.0 133.0 L 389.0 159.0" style="fill:none; stroke:rgb(0,0,0); stroke-dasharray:5 3; stroke-width:1.0px;"/>
<polyline points=" 395.0,148.0 389.0,159.0 387.0,147.0 " style="fill:none; stroke:rgb(0,0,0); stroke-width:1.0px;"/>
<text transform="translate(376.0,133.0), rotate(-0.0)" x="0px" y="0px" textLength="36.0px"
 style="font-family:Arial; font-style:italic;font-size:10.0px; fill:rgb(0,0,0); stroke:none; baseline-shift:-10.0px; ">
   Acquire
</text>
<ellipse cx="294.5px" cy="294.5px" rx="84.5px" ry="38.5px" style="fill:rgb(255,255,255); stroke:rgb(0,0,0); stroke-width:1.0px;"/>
<text transform="translate(234.0,277.0), rotate(-0.0)" x="0px" y="0px" textLength="119.0px"
 style="font-family:Arial; font-size:13.0px; fill:rgb(0,0,0); stroke:none; baseline-shift:-13.0px; ">
   Sales and marketing
</text>
<text transform="translate(244.0,294.0), rotate(-0.0)" x="0px" y="0px" textLength="100.0px"
 style="font-family:Arial; font-size:13.0px; fill:rgb(0,0,0); stroke:none; baseline-shift:-13.0px; ">
   of the shared site
</text>
<line x1="276.0px" y1="249.0px" x2="287.0px" y2="255.0px" style="stroke:rgb(0,0,0); stroke-width:1.0px;"/>
<line x1="276.0px" y1="260.0px" x2="287.0px" y2="255.0px" style="stroke:rgb(0,0,0); stroke-width:1.0px;"/>
<line x1="317.0px" y1="327.0px" x2="306.0px" y2="333.0px" style="stroke:rgb(0,0,0); stroke-width:1.0px;"/>
<line x1="317.0px" y1="338.0px" x2="306.0px" y2="333.0px" style="stroke:rgb(0,0,0); stroke-width:1.0px;"/>
<rect x="289.5px" y="321.5px" width="11.0px" height="12.0px" rx="0.0px" ry="0.0px" style="fill:rgb(255,255,255); stroke:rgb(0,0,0); stroke-width:1.0px;"/>
<text transform="translate(291.0,319.0), rotate(-0.0)" x="0px" y="0px" textLength="8.0px"
 style="font-family:Arial; font-size:13.0px; fill:rgb(0,0,0); stroke:none; baseline-shift:-13.0px; ">
   +
</text>
<path d="M 277.0 243.0 L 277.0 195.0" style="fill:none; stroke:rgb(0,0,0); stroke-dasharray:5 3; stroke-width:1.0px;"/>
<polyline points=" 273.0,207.0 277.0,195.0 281.0,207.0 " style="fill:none; stroke:rgb(0,0,0); stroke-width:1.0px;"/>
<text transform="translate(259.0,219.0), rotate(-0.0)" x="0px" y="0px" textLength="36.0px"
 style="font-family:Arial; font-style:italic;font-size:10.0px; fill:rgb(0,0,0); stroke:none; baseline-shift:-10.0px; ">
   Acquire
</text>
<line x1="196.0px" y1="203.0px" x2="196.0px" y2="195.0px" style="stroke:rgb(0,0,0); stroke-width:3.0px;"/>
<line x1="205.0px" y1="203.0px" x2="205.0px" y2="195.0px" style="stroke:rgb(0,0,0); stroke-width:3.0px;"/>
<path d="M 201.0 195.0 L 201.0 342.0 C 201.0 346.0 203.0 353.0 204.0 356.0 L 258.0 452.0 C 260.0 455.0 262.0 462.0 262.0 466.0 L 262.0 487.0" style="fill:none; stroke:rgb(0,0,0); stroke-width:1.0px;"/>
<polyline points=" 266.0,475.0 262.0,487.0 257.0,475.0 " style="fill:none; stroke:rgb(0,0,0); stroke-width:1.0px;"/>
<text transform="translate(223.0,413.0), rotate(-0.0)" x="0px" y="0px" textLength="26.0px"
 style="font-family:Arial; font-style:italic;font-size:10.0px; fill:rgb(0,0,0); stroke:none; baseline-shift:-10.0px; ">
   Stock
</text>
<path d="M 355.0 226.0 L 334.0 249.0" style="fill:none; stroke:rgb(0,0,0); stroke-width:1.0px;"/>
<polyline points=" 345.0,243.0 334.0,249.0 339.0,237.0 " style="fill:none; stroke:rgb(0,0,0); stroke-width:1.0px;"/>
<text transform="translate(333.0,226.0), rotate(-0.0)" x="0px" y="0px" textLength="45.0px"
 style="font-family:Arial; font-style:italic;font-size:10.0px; fill:rgb(0,0,0); stroke:none; baseline-shift:-10.0px; ">
   Attraction
</text>
<line x1="456.0px" y1="694.0px" x2="451.0px" y2="700.0px" style="stroke:rgb(0,0,0); stroke-width:3.0px;"/>
<line x1="450.0px" y1="688.0px" x2="444.0px" y2="693.0px" style="stroke:rgb(0,0,0); stroke-width:3.0px;"/>
<path d="M 447.0 696.0 L 479.0 667.0" style="fill:none; stroke:rgb(0,0,0); stroke-width:1.0px;"/>
<polyline points=" 467.0,672.0 479.0,667.0 473.0,678.0 " style="fill:none; stroke:rgb(0,0,0); stroke-width:1.0px;"/>
<text transform="translate(466.0,667.0), rotate(-0.0)" x="0px" y="0px" textLength="26.0px"
 style="font-family:Arial; font-style:italic;font-size:10.0px; fill:rgb(0,0,0); stroke:none; baseline-shift:-10.0px; ">
   Stock
</text>
<path d="M 320.0 582.0 L 387.0 696.0" style="fill:none; stroke:rgb(0,0,0); stroke-dasharray:5 3; stroke-width:1.0px;"/>
<polyline points=" 384.0,683.0 387.0,696.0 377.0,687.0 " style="fill:none; stroke:rgb(0,0,0); stroke-width:1.0px;"/>
<text transform="translate(336.0,639.0), rotate(-0.0)" x="0px" y="0px" textLength="36.0px"
 style="font-family:Arial; font-style:italic;font-size:10.0px; fill:rgb(0,0,0); stroke:none; baseline-shift:-10.0px; ">
   Acquire
</text>
<ellipse cx="353.5px" cy="898.5px" rx="87.0px" ry="38.5px" style="fill:rgb(255,255,255); stroke:rgb(0,0,0); stroke-width:1.0px;"/>
<text transform="translate(287.0,882.0), rotate(-0.0)" x="0px" y="0px" textLength="133.0px"
 style="font-family:Arial; font-size:13.0px; fill:rgb(0,0,0); stroke:none; baseline-shift:-13.0px; ">
   Sales and marketing of
</text>
<text transform="translate(300.0,898.0), rotate(-0.0)" x="0px" y="0px" textLength="106.0px"
 style="font-family:Arial; font-size:13.0px; fill:rgb(0,0,0); stroke:none; baseline-shift:-13.0px; ">
   installation srevice
</text>
<line x1="335.0px" y1="853.0px" x2="347.0px" y2="859.0px" style="stroke:rgb(0,0,0); stroke-width:1.0px;"/>
<line x1="335.0px" y1="865.0px" x2="347.0px" y2="859.0px" style="stroke:rgb(0,0,0); stroke-width:1.0px;"/>
<line x1="377.0px" y1="931.0px" x2="365.0px" y2="937.0px" style="stroke:rgb(0,0,0); stroke-width:1.0px;"/>
<line x1="377.0px" y1="943.0px" x2="365.0px" y2="937.0px" style="stroke:rgb(0,0,0); stroke-width:1.0px;"/>
<rect x="348.5px" y="926.5px" width="12.0px" height="11.0px" rx="0.0px" ry="0.0px" style="fill:rgb(255,255,255); stroke:rgb(0,0,0); stroke-width:1.0px;"/>
<text transform="translate(351.0,923.0), rotate(-0.0)" x="0px" y="0px" textLength="8.0px"
 style="font-family:Arial; font-size:13.0px; fill:rgb(0,0,0); stroke:none; baseline-shift:-13.0px; ">
   +
</text>
<path d="M 368.0 853.0 L 385.0 801.0 C 382.0 800.0 381.0 796.0 381.0 794.0 382.0 791.0 386.0 790.0 389.0 790.0 L 396.0 769.0" style="fill:none; stroke:rgb(0,0,0); stroke-dasharray:5 3; stroke-width:1.0px;"/>
<polyline points=" 388.0,779.0 396.0,769.0 396.0,782.0 " style="fill:none; stroke:rgb(0,0,0); stroke-width:1.0px;"/>
<text transform="translate(364.0,811.0), rotate(-0.0)" x="0px" y="0px" textLength="36.0px"
 style="font-family:Arial; font-style:italic;font-size:10.0px; fill:rgb(0,0,0); stroke:none; baseline-shift:-10.0px; ">
   Acquire
</text>
<path d="M 431.0 853.0 L 480.0 825.0" style="fill:none; stroke:rgb(0,0,0); stroke-dasharray:5 3; stroke-width:1.0px;"/>
<polyline points=" 467.0,828.0 480.0,825.0 471.0,835.0 " style="fill:none; stroke:rgb(0,0,0); stroke-width:1.0px;"/>
<text transform="translate(438.0,839.0), rotate(-0.0)" x="0px" y="0px" textLength="36.0px"
 style="font-family:Arial; font-style:italic;font-size:10.0px; fill:rgb(0,0,0); stroke:none; baseline-shift:-10.0px; ">
   Acquire
</text>
<path d="M 561.0 667.0 L 561.0 692.0 C 561.0 696.0 564.0 702.0 566.0 705.0 L 618.0 758.0 C 620.0 760.0 623.0 767.0 623.0 771.0 L 623.0 864.0" style="fill:none; stroke:rgb(0,0,0); stroke-dasharray:5 3; stroke-width:1.0px;"/>
<polyline points=" 627.0,851.0 623.0,864.0 619.0,851.0 " style="fill:none; stroke:rgb(0,0,0); stroke-width:1.0px;"/>
<text transform="translate(605.0,834.0), rotate(-0.0)" x="0px" y="0px" textLength="36.0px"
 style="font-family:Arial; font-style:italic;font-size:10.0px; fill:rgb(0,0,0); stroke:none; baseline-shift:-10.0px; ">
   Acquire
</text>
<text transform="translate(602.0,847.0), rotate(-0.0)" x="0px" y="0px" textLength="41.0px"
 style="font-family:Arial; font-style:italic;font-size:10.0px; fill:rgb(0,0,0); stroke:none; baseline-shift:-10.0px; ">
   Maintain
</text>
<path d="M 567.0 898.0 L 447.0 898.0" style="fill:none; stroke:rgb(0,0,0); stroke-width:1.0px;"/>
<polyline points=" 460.0,902.0 447.0,898.0 460.0,894.0 " style="fill:none; stroke:rgb(0,0,0); stroke-width:1.0px;"/>
<text transform="translate(426.0,898.0), rotate(-0.0)" x="0px" y="0px" textLength="45.0px"
 style="font-family:Arial; font-style:italic;font-size:10.0px; fill:rgb(0,0,0); stroke:none; baseline-shift:-10.0px; ">
   Attraction
</text>
<path d="M 620.0 394.0 L 563.0 357.0" style="fill:none; stroke:rgb(0,0,0); stroke-width:1.0px;"/>
<polyline points=" 571.0,367.0 563.0,357.0 576.0,361.0 " style="fill:none; stroke:rgb(0,0,0); stroke-width:1.0px;"/>
<text transform="translate(582.0,376.0), rotate(-0.0)" x="0px" y="0px" textLength="20.0px"
 style="font-family:Arial; font-style:italic;font-size:10.0px; fill:rgb(0,0,0); stroke:none; baseline-shift:-10.0px; ">
   EXT
</text>
<ellipse cx="809.5px" cy="532.5px" rx="61.5px" ry="31.0px" style="fill:rgb(255,0,0); stroke:rgb(0,0,0); stroke-width:1.0px;"/>
<text transform="translate(791.0,524.0), rotate(-0.0)" x="0px" y="0px" textLength="37.0px"
 style="font-family:Arial; font-size:13.0px; fill:rgb(0,0,0); stroke:none; baseline-shift:-13.0px; ">
   Adjust
</text>
<line x1="791.0px" y1="495.0px" x2="802.0px" y2="500.0px" style="stroke:rgb(0,0,0); stroke-width:1.0px;"/>
<line x1="791.0px" y1="506.0px" x2="802.0px" y2="500.0px" style="stroke:rgb(0,0,0); stroke-width:1.0px;"/>
<line x1="832.0px" y1="557.0px" x2="821.0px" y2="563.0px" style="stroke:rgb(0,0,0); stroke-width:1.0px;"/>
<line x1="832.0px" y1="569.0px" x2="821.0px" y2="563.0px" style="stroke:rgb(0,0,0); stroke-width:1.0px;"/>
<rect x="804.5px" y="552.5px" width="11.0px" height="11.0px" rx="0.0px" ry="0.0px" style="fill:rgb(255,255,255); stroke:rgb(0,0,0); stroke-width:1.0px;"/>
<text transform="translate(806.0,550.0), rotate(-0.0)" x="0px" y="0px" textLength="8.0px"
 style="font-family:Arial; font-size:13.0px; fill:rgb(0,0,0); stroke:none; baseline-shift:-13.0px; ">
   +
</text>
<path d="M 709.0 463.0 L 709.0 458.0 C 709.0 462.0 712.0 466.0 716.0 466.0 L 796.0 467.0 C 800.0 467.0 804.0 471.0 804.0 474.0 L 804.0 489.0" style="fill:none; stroke:rgb(0,0,0); stroke-width:1.0px;"/>
<polyline points=" 808.0,477.0 804.0,489.0 800.0,477.0 " style="fill:none; stroke:rgb(0,0,0); stroke-width:1.0px;"/>
<text transform="translate(721.0,466.0), rotate(-0.0)" x="0px" y="0px" textLength="53.0px"
 style="font-family:Arial; font-style:italic;font-size:10.0px; fill:rgb(0,0,0); stroke:none; baseline-shift:-10.0px; ">
   Tech &amp; Info
</text>
<text transform="translate(718.0,480.0), rotate(-0.0)" x="0px" y="0px" textLength="60.0px"
 style="font-family:Arial; font-style:italic;font-size:10.0px; fill:rgb(0,0,0); stroke:none; baseline-shift:-10.0px; ">
   Infrastructure
</text>
<path d="M 818.0 574.0 L 818.0 685.0 C 821.0 685.0 824.0 688.0 824.0 691.0 824.0 694.0 821.0 697.0 818.0 697.0 L 818.0 761.0" style="fill:none; stroke:rgb(0,0,0); stroke-dasharray:5 3; stroke-width:1.0px;"/>
<polyline points=" 822.0,748.0 818.0,761.0 814.0,748.0 " style="fill:none; stroke:rgb(0,0,0); stroke-width:1.0px;"/>
<text transform="translate(801.0,625.0), rotate(-0.0)" x="0px" y="0px" textLength="36.0px"
 style="font-family:Arial; font-style:italic;font-size:10.0px; fill:rgb(0,0,0); stroke:none; baseline-shift:-10.0px; ">
   Acquire
</text>
<path d="M 777.0 761.0 L 681.0 707.0 L 671.0 702.0 L 609.0 667.0" style="fill:none; stroke:rgb(0,0,0); stroke-width:1.0px;"/>
<polyline points=" 617.0,677.0 609.0,667.0 621.0,669.0 " style="fill:none; stroke:rgb(0,0,0); stroke-width:1.0px;"/>
<text transform="translate(683.0,714.0), rotate(-0.0)" x="0px" y="0px" textLength="20.0px"
 style="font-family:Arial; font-style:italic;font-size:10.0px; fill:rgb(0,0,0); stroke:none; baseline-shift:-10.0px; ">
   EXT
</text>
<line x1="503.0px" y1="469.0px" x2="503.0px" y2="462.0px" style="stroke:rgb(0,0,0); stroke-width:3.0px;"/>
<line x1="513.0px" y1="469.0px" x2="513.0px" y2="462.0px" style="stroke:rgb(0,0,0); stroke-width:3.0px;"/>
<path d="M 508.0 462.0 L 508.0 465.0 C 508.0 469.0 512.0 473.0 516.0 473.0 L 641.0 472.0 C 645.0 472.0 649.0 475.0 649.0 479.0 L 649.0 488.0" style="fill:none; stroke:rgb(0,0,0); stroke-width:1.0px;"/>
<polyline points=" 653.0,475.0 649.0,488.0 645.0,475.0 " style="fill:none; stroke:rgb(0,0,0); stroke-width:1.0px;"/>
<text transform="translate(553.0,472.0), rotate(-0.0)" x="0px" y="0px" textLength="26.0px"
 style="font-family:Arial; font-style:italic;font-size:10.0px; fill:rgb(0,0,0); stroke:none; baseline-shift:-10.0px; ">
   Stock
</text>
<path d="M 658.0 573.0 L 668.0 650.0 C 671.0 650.0 674.0 652.0 675.0 655.0 675.0 658.0 673.0 661.0 670.0 661.0 L 675.0 699.0 C 678.0 698.0 681.0 701.0 681.0 704.0 682.0 707.0 680.0 710.0 677.0 710.0 L 684.0 762.0" style="fill:none; stroke:rgb(0,0,0); stroke-dasharray:5 3; stroke-width:1.0px;"/>
<polyline points=" 686.0,749.0 684.0,762.0 678.0,751.0 " style="fill:none; stroke:rgb(0,0,0); stroke-width:1.0px;"/>
<text transform="translate(645.0,606.0), rotate(-0.0)" x="0px" y="0px" textLength="36.0px"
 style="font-family:Arial; font-style:italic;font-size:10.0px; fill:rgb(0,0,0); stroke:none; baseline-shift:-10.0px; ">
   Acquire
</text>
<path d="M 392.0 228.0 L 392.0 331.0 C 392.0 335.0 389.0 341.0 385.0 342.0 L 292.0 384.0 C 288.0 386.0 285.0 391.0 285.0 395.0 L 285.0 482.0" style="fill:none; stroke:rgb(0,0,0); stroke-width:1.0px;"/>
<polyline points=" 289.0,469.0 285.0,482.0 281.0,469.0 " style="fill:none; stroke:rgb(0,0,0); stroke-width:1.0px;"/>
<text transform="translate(298.0,371.0), rotate(-0.0)" x="0px" y="0px" textLength="45.0px"
 style="font-family:Arial; font-style:italic;font-size:10.0px; fill:rgb(0,0,0); stroke:none; baseline-shift:-10.0px; ">
   Attraction
</text>
<ellipse cx="213.5px" cy="994.5px" rx="76.0px" ry="31.0px" style="fill:rgb(253,205,172); stroke:rgb(0,0,0); stroke-width:1.0px;"/>
<text transform="translate(166.0,986.0), rotate(-0.0)" x="0px" y="0px" textLength="95.0px"
 style="font-family:Arial; font-size:13.0px; fill:rgb(0,0,0); stroke:none; baseline-shift:-13.0px; ">
   Primary process
</text>
<line x1="195.0px" y1="957.0px" x2="206.0px" y2="963.0px" style="stroke:rgb(0,0,0); stroke-width:1.0px;"/>
<line x1="195.0px" y1="969.0px" x2="206.0px" y2="963.0px" style="stroke:rgb(0,0,0); stroke-width:1.0px;"/>
<line x1="237.0px" y1="1020.0px" x2="225.0px" y2="1026.0px" style="stroke:rgb(0,0,0); stroke-width:1.0px;"/>
<line x1="237.0px" y1="1031.0px" x2="225.0px" y2="1026.0px" style="stroke:rgb(0,0,0); stroke-width:1.0px;"/>
<rect x="208.5px" y="1014.5px" width="12.0px" height="12.0px" rx="0.0px" ry="0.0px" style="fill:rgb(255,255,255); stroke:rgb(0,0,0); stroke-width:1.0px;"/>
<text transform="translate(211.0,1012.0), rotate(-0.0)" x="0px" y="0px" textLength="8.0px"
 style="font-family:Arial; font-size:13.0px; fill:rgb(0,0,0); stroke:none; baseline-shift:-13.0px; ">
   +
</text>
<ellipse cx="746.5px" cy="1001.5px" rx="75.0px" ry="38.5px" style="fill:rgb(255,0,0); stroke:rgb(0,0,0); stroke-width:1.0px;"/>
<text transform="translate(713.0,985.0), rotate(-0.0)" x="0px" y="0px" textLength="66.0px"
 style="font-family:Arial; font-size:13.0px; fill:rgb(0,0,0); stroke:none; baseline-shift:-13.0px; ">
   Transitional
</text>
<text transform="translate(723.0,1001.0), rotate(-0.0)" x="0px" y="0px" textLength="46.0px"
 style="font-family:Arial; font-size:13.0px; fill:rgb(0,0,0); stroke:none; baseline-shift:-13.0px; ">
   process
</text>
<line x1="728.0px" y1="957.0px" x2="739.0px" y2="962.0px" style="stroke:rgb(0,0,0); stroke-width:1.0px;"/>
<line x1="728.0px" y1="968.0px" x2="739.0px" y2="962.0px" style="stroke:rgb(0,0,0); stroke-width:1.0px;"/>
<line x1="769.0px" y1="1034.0px" x2="758.0px" y2="1040.0px" style="stroke:rgb(0,0,0); stroke-width:1.0px;"/>
<line x1="769.0px" y1="1046.0px" x2="758.0px" y2="1040.0px" style="stroke:rgb(0,0,0); stroke-width:1.0px;"/>
<rect x="741.5px" y="1029.5px" width="11.0px" height="11.0px" rx="0.0px" ry="0.0px" style="fill:rgb(255,255,255); stroke:rgb(0,0,0); stroke-width:1.0px;"/>
<text transform="translate(743.0,1027.0), rotate(-0.0)" x="0px" y="0px" textLength="8.0px"
 style="font-family:Arial; font-size:13.0px; fill:rgb(0,0,0); stroke:none; baseline-shift:-13.0px; ">
   +
</text>
<ellipse cx="386.5px" cy="997.5px" rx="75.0px" ry="38.5px" style="fill:rgb(251,224,70); stroke:rgb(0,0,0); stroke-width:1.0px;"/>
<text transform="translate(338.0,981.0), rotate(-0.0)" x="0px" y="0px" textLength="97.0px"
 style="font-family:Arial; font-size:13.0px; fill:rgb(0,0,0); stroke:none; baseline-shift:-13.0px; ">
   A base for a new
</text>
<text transform="translate(365.0,997.0), rotate(-0.0)" x="0px" y="0px" textLength="43.0px"
 style="font-family:Arial; font-size:13.0px; fill:rgb(0,0,0); stroke:none; baseline-shift:-13.0px; ">
   primary
</text>
<line x1="368.0px" y1="953.0px" x2="379.0px" y2="958.0px" style="stroke:rgb(0,0,0); stroke-width:1.0px;"/>
<line x1="368.0px" y1="964.0px" x2="379.0px" y2="958.0px" style="stroke:rgb(0,0,0); stroke-width:1.0px;"/>
<line x1="409.0px" y1="1031.0px" x2="398.0px" y2="1036.0px" style="stroke:rgb(0,0,0); stroke-width:1.0px;"/>
<line x1="409.0px" y1="1042.0px" x2="398.0px" y2="1036.0px" style="stroke:rgb(0,0,0); stroke-width:1.0px;"/>
<rect x="381.5px" y="1025.5px" width="11.0px" height="11.0px" rx="0.0px" ry="0.0px" style="fill:rgb(255,255,255); stroke:rgb(0,0,0); stroke-width:1.0px;"/>
<text transform="translate(383.0,1023.0), rotate(-0.0)" x="0px" y="0px" textLength="8.0px"
 style="font-family:Arial; font-size:13.0px; fill:rgb(0,0,0); stroke:none; baseline-shift:-13.0px; ">
   +
</text>
</g>
</svg>
