<?xml version="1.0" encoding="UTF-8" standalone="no"?>
<svg width="1518.0px" height="1089.0px" version="1.1" xmlns="http://www.w3.org/2000/svg" xmlns:xlink="http://www.w3.org/1999/xlink">
<g>
<rect x="0.0px" y="0.0px" width="1518.0px" height="1089.0px" rx="0.0px" ry="0.0px" style="fill:rgb(255,255,255);"/>
<rect x="171.5px" y="161.5px" width="150.0px" height="56.0px" rx="0.0px" ry="0.0px" style="fill:rgb(255,255,255); stroke:rgb(0,0,0); stroke-width:1.0px;"/>
<text transform="translate(201.0,165.0), rotate(-0.0)" x="0px" y="0px" textLength="90.0px"
 style="font-family:Arial; font-size:13.0px; fill:rgb(0,0,0); stroke:none; baseline-shift:-13.0px; ">
   Customers who
</text>
<text transform="translate(179.0,181.0), rotate(-0.0)" x="0px" y="0px" textLength="134.0px"
 style="font-family:Arial; font-size:13.0px; fill:rgb(0,0,0); stroke:none; baseline-shift:-13.0px; ">
   acquires manufacturing
</text>
<text transform="translate(221.0,197.0), rotate(-0.0)" x="0px" y="0px" textLength="50.0px"
 style="font-family:Arial; font-size:13.0px; fill:rgb(0,0,0); stroke:none; baseline-shift:-13.0px; ">
   oroducts
</text>
<rect x="241.5px" y="206.5px" width="11.0px" height="11.0px" rx="0.0px" ry="0.0px" style="fill:rgb(255,255,255); stroke:rgb(0,0,0); stroke-width:1.0px;"/>
<text transform="translate(243.0,204.0), rotate(-0.0)" x="0px" y="0px" textLength="8.0px"
 style="font-family:Arial; font-size:13.0px; fill:rgb(0,0,0); stroke:none; baseline-shift:-13.0px; ">
   +
</text>
<rect x="350.5px" y="160.5px" width="131.0px" height="58.0px" rx="0.0px" ry="0.0px" style="fill:rgb(255,255,255); stroke:rgb(0,0,0); stroke-width:1.0px;"/>
<text transform="translate(392.0,173.0), rotate(-0.0)" x="0px" y="0px" textLength="48.0px"
 style="font-family:Arial; font-size:13.0px; fill:rgb(0,0,0); stroke:none; baseline-shift:-13.0px; ">
   Stock of
</text>
<text transform="translate(355.0,189.0), rotate(-0.0)" x="0px" y="0px" textLength="121.0px"
 style="font-family:Arial; font-size:13.0px; fill:rgb(0,0,0); stroke:none; baseline-shift:-13.0px; ">
   manufacturing orders
</text>
<rect x="411.5px" y="206.5px" width="11.0px" height="12.0px" rx="0.0px" ry="0.0px" style="fill:rgb(255,255,255); stroke:rgb(0,0,0); stroke-width:1.0px;"/>
<text transform="translate(413.0,204.0), rotate(-0.0)" x="0px" y="0px" textLength="8.0px"
 style="font-family:Arial; font-size:13.0px; fill:rgb(0,0,0); stroke:none; baseline-shift:-13.0px; ">
   +
</text>
<rect x="540.5px" y="151.5px" width="168.0px" height="56.0px" rx="0.0px" ry="0.0px" style="fill:rgb(255,255,255); stroke:rgb(0,0,0); stroke-width:1.0px;"/>
<text transform="translate(547.0,163.0), rotate(-0.0)" x="0px" y="0px" textLength="153.0px"
 style="font-family:Arial; font-size:13.0px; fill:rgb(0,0,0); stroke:none; baseline-shift:-13.0px; ">
   Sofisticated manufacturing
</text>
<text transform="translate(590.0,179.0), rotate(-0.0)" x="0px" y="0px" textLength="67.0px"
 style="font-family:Arial; font-size:13.0px; fill:rgb(0,0,0); stroke:none; baseline-shift:-13.0px; ">
   equipments
</text>
<rect x="619.5px" y="196.5px" width="11.0px" height="11.0px" rx="0.0px" ry="0.0px" style="fill:rgb(255,255,255); stroke:rgb(0,0,0); stroke-width:1.0px;"/>
<text transform="translate(621.0,194.0), rotate(-0.0)" x="0px" y="0px" textLength="8.0px"
 style="font-family:Arial; font-size:13.0px; fill:rgb(0,0,0); stroke:none; baseline-shift:-13.0px; ">
   +
</text>
<rect x="426.5px" y="434.5px" width="112.0px" height="39.0px" rx="0.0px" ry="0.0px" style="fill:rgb(134,195,244); stroke:rgb(0,0,0); stroke-width:1.0px;"/>
<text transform="translate(430.0,446.0), rotate(-0.0)" x="0px" y="0px" textLength="103.0px"
 style="font-family:Arial; font-size:13.0px; fill:rgb(0,0,0); stroke:none; baseline-shift:-13.0px; ">
   Equipment vendor
</text>
<rect x="477.5px" y="462.5px" width="11.0px" height="11.0px" rx="0.0px" ry="0.0px" style="fill:rgb(255,255,255); stroke:rgb(0,0,0); stroke-width:1.0px;"/>
<text transform="translate(479.0,460.0), rotate(-0.0)" x="0px" y="0px" textLength="8.0px"
 style="font-family:Arial; font-size:13.0px; fill:rgb(0,0,0); stroke:none; baseline-shift:-13.0px; ">
   +
</text>
<rect x="634.5px" y="589.5px" width="131.0px" height="50.0px" rx="0.0px" ry="0.0px" style="fill:rgb(134,195,244); stroke:rgb(0,0,0); stroke-width:1.0px;"/>
<text transform="translate(663.0,598.0), rotate(-0.0)" x="0px" y="0px" textLength="74.0px"
 style="font-family:Arial; font-size:13.0px; fill:rgb(0,0,0); stroke:none; baseline-shift:-13.0px; ">
   Diagnostic &amp;
</text>
<text transform="translate(646.0,614.0), rotate(-0.0)" x="0px" y="0px" textLength="108.0px"
 style="font-family:Arial; font-size:13.0px; fill:rgb(0,0,0); stroke:none; baseline-shift:-13.0px; ">
   Predictive software
</text>
<rect x="694.5px" y="628.5px" width="12.0px" height="11.0px" rx="0.0px" ry="0.0px" style="fill:rgb(255,255,255); stroke:rgb(0,0,0); stroke-width:1.0px;"/>
<text transform="translate(697.0,626.0), rotate(-0.0)" x="0px" y="0px" textLength="8.0px"
 style="font-family:Arial; font-size:13.0px; fill:rgb(0,0,0); stroke:none; baseline-shift:-13.0px; ">
   +
</text>
<rect x="445.5px" y="590.5px" width="131.0px" height="48.0px" rx="0.0px" ry="0.0px" style="fill:rgb(134,195,244); stroke:rgb(0,0,0); stroke-width:1.0px;"/>
<text transform="translate(456.0,606.0), rotate(-0.0)" x="0px" y="0px" textLength="109.0px"
 style="font-family:Arial; font-size:13.0px; fill:rgb(0,0,0); stroke:none; baseline-shift:-13.0px; ">
   Service technitians
</text>
<rect x="505.5px" y="627.5px" width="12.0px" height="11.0px" rx="0.0px" ry="0.0px" style="fill:rgb(255,255,255); stroke:rgb(0,0,0); stroke-width:1.0px;"/>
<text transform="translate(508.0,624.0), rotate(-0.0)" x="0px" y="0px" textLength="8.0px"
 style="font-family:Arial; font-size:13.0px; fill:rgb(0,0,0); stroke:none; baseline-shift:-13.0px; ">
   +
</text>
<rect x="246.5px" y="590.5px" width="131.0px" height="49.0px" rx="0.0px" ry="0.0px" style="fill:rgb(134,195,244); stroke:rgb(0,0,0); stroke-width:1.0px;"/>
<text transform="translate(265.0,606.0), rotate(-0.0)" x="0px" y="0px" textLength="95.0px"
 style="font-family:Arial; font-size:13.0px; fill:rgb(0,0,0); stroke:none; baseline-shift:-13.0px; ">
   Process experts
</text>
<rect x="307.5px" y="627.5px" width="11.0px" height="12.0px" rx="0.0px" ry="0.0px" style="fill:rgb(255,255,255); stroke:rgb(0,0,0); stroke-width:1.0px;"/>
<text transform="translate(309.0,625.0), rotate(-0.0)" x="0px" y="0px" textLength="8.0px"
 style="font-family:Arial; font-size:13.0px; fill:rgb(0,0,0); stroke:none; baseline-shift:-13.0px; ">
   +
</text>
<rect x="445.5px" y="860.5px" width="131.0px" height="56.0px" rx="0.0px" ry="0.0px" style="fill:rgb(134,195,244); stroke:rgb(0,0,0); stroke-width:1.0px;"/>
<text transform="translate(467.0,880.0), rotate(-0.0)" x="0px" y="0px" textLength="87.0px"
 style="font-family:Arial; font-size:13.0px; fill:rgb(0,0,0); stroke:none; baseline-shift:-13.0px; ">
   Data scientists
</text>
<rect x="505.5px" y="905.5px" width="12.0px" height="11.0px" rx="0.0px" ry="0.0px" style="fill:rgb(255,255,255); stroke:rgb(0,0,0); stroke-width:1.0px;"/>
<text transform="translate(508.0,903.0), rotate(-0.0)" x="0px" y="0px" textLength="8.0px"
 style="font-family:Arial; font-size:13.0px; fill:rgb(0,0,0); stroke:none; baseline-shift:-13.0px; ">
   +
</text>
<rect x="558.5px" y="424.5px" width="93.0px" height="59.0px" rx="0.0px" ry="0.0px" style="fill:rgb(255,255,255); stroke:rgb(0,0,0); stroke-width:1.0px;"/>
<text transform="translate(567.0,437.0), rotate(-0.0)" x="0px" y="0px" textLength="76.0px"
 style="font-family:Arial; font-size:13.0px; fill:rgb(0,0,0); stroke:none; baseline-shift:-13.0px; ">
   Contract with
</text>
<text transform="translate(575.0,454.0), rotate(-0.0)" x="0px" y="0px" textLength="59.0px"
 style="font-family:Arial; font-size:13.0px; fill:rgb(0,0,0); stroke:none; baseline-shift:-13.0px; ">
   the vendor
</text>
<rect x="600.5px" y="471.5px" width="11.0px" height="12.0px" rx="0.0px" ry="0.0px" style="fill:rgb(255,255,255); stroke:rgb(0,0,0); stroke-width:1.0px;"/>
<text transform="translate(602.0,469.0), rotate(-0.0)" x="0px" y="0px" textLength="8.0px"
 style="font-family:Arial; font-size:13.0px; fill:rgb(0,0,0); stroke:none; baseline-shift:-13.0px; ">
   +
</text>
<rect x="587.5px" y="66.5px" width="149.0px" height="57.0px" rx="0.0px" ry="0.0px" style="fill:rgb(134,195,244); stroke:rgb(0,0,0); stroke-dasharray:5 3 2 3; stroke-width:1.0px;"/>
<text transform="translate(598.0,78.0), rotate(-0.0)" x="0px" y="0px" textLength="127.0px"
 style="font-family:Arial; font-size:13.0px; fill:rgb(0,0,0); stroke:none; baseline-shift:-13.0px; ">
   Reputation as a tough
</text>
<text transform="translate(631.0,94.0), rotate(-0.0)" x="0px" y="0px" textLength="61.0px"
 style="font-family:Arial; font-size:13.0px; fill:rgb(0,0,0); stroke:none; baseline-shift:-13.0px; ">
   competitor
</text>
<rect x="657.5px" y="112.5px" width="11.0px" height="11.0px" rx="0.0px" ry="0.0px" style="fill:rgb(255,255,255); stroke:rgb(0,0,0); stroke-width:1.0px;"/>
<text transform="translate(659.0,110.0), rotate(-0.0)" x="0px" y="0px" textLength="8.0px"
 style="font-family:Arial; font-size:13.0px; fill:rgb(0,0,0); stroke:none; baseline-shift:-13.0px; ">
   +
</text>
<rect x="794.5px" y="273.5px" width="131.0px" height="59.0px" rx="0.0px" ry="0.0px" style="fill:rgb(134,195,244); stroke:rgb(0,0,0); stroke-dasharray:5 3 2 3; stroke-width:1.0px;"/>
<text transform="translate(814.0,286.0), rotate(-0.0)" x="0px" y="0px" textLength="91.0px"
 style="font-family:Arial; font-size:13.0px; fill:rgb(0,0,0); stroke:none; baseline-shift:-13.0px; ">
   Reputation as a
</text>
<text transform="translate(806.0,302.0), rotate(-0.0)" x="0px" y="0px" textLength="108.0px"
 style="font-family:Arial; font-size:13.0px; fill:rgb(0,0,0); stroke:none; baseline-shift:-13.0px; ">
   trustworthy partner
</text>
<rect x="855.5px" y="321.5px" width="11.0px" height="11.0px" rx="0.0px" ry="0.0px" style="fill:rgb(255,255,255); stroke:rgb(0,0,0); stroke-width:1.0px;"/>
<text transform="translate(857.0,319.0), rotate(-0.0)" x="0px" y="0px" textLength="8.0px"
 style="font-family:Arial; font-size:13.0px; fill:rgb(0,0,0); stroke:none; baseline-shift:-13.0px; ">
   +
</text>
<rect x="775.5px" y="979.5px" width="151.0px" height="64.0px" rx="0.0px" ry="0.0px" style="fill:rgb(134,195,244); stroke:rgb(0,0,0); stroke-width:1.0px;"/>
<text transform="translate(779.0,995.0), rotate(-0.0)" x="0px" y="0px" textLength="143.0px"
 style="font-family:Arial; font-size:13.0px; fill:rgb(0,0,0); stroke:none; baseline-shift:-13.0px; ">
   Used in creating the new
</text>
<text transform="translate(825.0,1011.0), rotate(-0.0)" x="0px" y="0px" textLength="52.0px"
 style="font-family:Arial; font-size:13.0px; fill:rgb(0,0,0); stroke:none; baseline-shift:-13.0px; ">
   business
</text>
<rect x="845.5px" y="1032.5px" width="12.0px" height="11.0px" rx="0.0px" ry="0.0px" style="fill:rgb(255,255,255); stroke:rgb(0,0,0); stroke-width:1.0px;"/>
<text transform="translate(848.0,1030.0), rotate(-0.0)" x="0px" y="0px" textLength="8.0px"
 style="font-family:Arial; font-size:13.0px; fill:rgb(0,0,0); stroke:none; baseline-shift:-13.0px; ">
   +
</text>
<polygon points=" 138.0,907.0 151.0,920.0 151.0,945.0 57.0,945.0 57.0,907.0 " style="fill:rgb(255,255,239); stroke:rgb(255,0,0); stroke-width:3.0px;"/>
<text transform="translate(62.0,920.0), rotate(-0.0)" x="0px" y="0px" textLength="61.0px"
 style="font-family:Arial; font-size:18.0px; fill:rgb(0,0,0); stroke:none; baseline-shift:-17.0px; ">
   Agenda
</text>
<ellipse cx="454.5px" cy="76.5px" rx="76.0px" ry="27.5px" style="fill:rgb(253,205,172); stroke:rgb(0,0,0); stroke-width:1.0px;"/>
<ellipse cx="454.5px" cy="76.5px" rx="72.5px" ry="24.0px" style="fill:rgb(253,205,172); stroke:rgb(0,0,0); stroke-width:1.0px;"/>
<text transform="translate(413.0,68.0), rotate(-0.0)" x="0px" y="0px" textLength="81.0px"
 style="font-family:Arial; font-size:13.0px; fill:rgb(0,0,0); stroke:none; baseline-shift:-13.0px; ">
   Manufacturing
</text>
<line x1="435.0px" y1="42.0px" x2="447.0px" y2="48.0px" style="stroke:rgb(0,0,0); stroke-width:1.0px;"/>
<line x1="435.0px" y1="53.0px" x2="447.0px" y2="48.0px" style="stroke:rgb(0,0,0); stroke-width:1.0px;"/>
<line x1="477.0px" y1="98.0px" x2="466.0px" y2="104.0px" style="stroke:rgb(0,0,0); stroke-width:1.0px;"/>
<line x1="477.0px" y1="109.0px" x2="466.0px" y2="104.0px" style="stroke:rgb(0,0,0); stroke-width:1.0px;"/>
<rect x="449.5px" y="92.5px" width="11.0px" height="12.0px" rx="0.0px" ry="0.0px" style="fill:rgb(255,255,255); stroke:rgb(0,0,0); stroke-width:1.0px;"/>
<text transform="translate(451.0,90.0), rotate(-0.0)" x="0px" y="0px" textLength="8.0px"
 style="font-family:Arial; font-size:13.0px; fill:rgb(0,0,0); stroke:none; baseline-shift:-13.0px; ">
   +
</text>
<ellipse cx="359.5px" cy="321.5px" rx="75.0px" ry="40.0px" style="fill:rgb(255,255,255); stroke:rgb(0,0,0); stroke-width:1.0px;"/>
<text transform="translate(322.0,305.0), rotate(-0.0)" x="0px" y="0px" textLength="75.0px"
 style="font-family:Arial; font-size:13.0px; fill:rgb(0,0,0); stroke:none; baseline-shift:-13.0px; ">
   Sales to new
</text>
<text transform="translate(329.0,321.0), rotate(-0.0)" x="0px" y="0px" textLength="61.0px"
 style="font-family:Arial; font-size:13.0px; fill:rgb(0,0,0); stroke:none; baseline-shift:-13.0px; ">
   customers
</text>
<line x1="341.0px" y1="275.0px" x2="352.0px" y2="281.0px" style="stroke:rgb(0,0,0); stroke-width:1.0px;"/>
<line x1="341.0px" y1="286.0px" x2="352.0px" y2="281.0px" style="stroke:rgb(0,0,0); stroke-width:1.0px;"/>
<line x1="382.0px" y1="356.0px" x2="371.0px" y2="362.0px" style="stroke:rgb(0,0,0); stroke-width:1.0px;"/>
<line x1="382.0px" y1="367.0px" x2="371.0px" y2="362.0px" style="stroke:rgb(0,0,0); stroke-width:1.0px;"/>
<rect x="354.5px" y="350.5px" width="11.0px" height="12.0px" rx="0.0px" ry="0.0px" style="fill:rgb(255,255,255); stroke:rgb(0,0,0); stroke-width:1.0px;"/>
<text transform="translate(356.0,348.0), rotate(-0.0)" x="0px" y="0px" textLength="8.0px"
 style="font-family:Arial; font-size:13.0px; fill:rgb(0,0,0); stroke:none; baseline-shift:-13.0px; ">
   +
</text>
<path d="M 227.0 155.0 L 227.0 102.0 C 227.0 98.0 231.0 94.0 234.0 94.0 L 372.0 94.0" style="fill:none; stroke:rgb(0,0,0); stroke-width:1.0px;"/>
<polyline points=" 359.0,90.0 372.0,94.0 359.0,99.0 " style="fill:none; stroke:rgb(0,0,0); stroke-width:1.0px;"/>
<text transform="translate(243.0,94.0), rotate(-0.0)" x="0px" y="0px" textLength="53.0px"
 style="font-family:Arial; font-style:italic;font-size:10.0px; fill:rgb(0,0,0); stroke:none; baseline-shift:-10.0px; ">
   Beneficiary
</text>
<line x1="434.0px" y1="149.0px" x2="431.0px" y2="156.0px" style="stroke:rgb(0,0,0); stroke-width:3.0px;"/>
<line x1="425.0px" y1="146.0px" x2="423.0px" y2="153.0px" style="stroke:rgb(0,0,0); stroke-width:3.0px;"/>
<path d="M 427.0 155.0 L 442.0 109.0" style="fill:none; stroke:rgb(0,0,0); stroke-width:1.0px;"/>
<polyline points=" 434.0,120.0 442.0,109.0 442.0,122.0 " style="fill:none; stroke:rgb(0,0,0); stroke-width:1.0px;"/>
<text transform="translate(422.0,132.0), rotate(-0.0)" x="0px" y="0px" textLength="26.0px"
 style="font-family:Arial; font-style:italic;font-size:10.0px; fill:rgb(0,0,0); stroke:none; baseline-shift:-10.0px; ">
   Stock
</text>
<ellipse cx="189.5px" cy="321.5px" rx="75.0px" ry="39.5px" style="fill:rgb(255,255,255); stroke:rgb(0,0,0); stroke-width:1.0px;"/>
<text transform="translate(141.0,305.0), rotate(-0.0)" x="0px" y="0px" textLength="97.0px"
 style="font-family:Arial; font-size:13.0px; fill:rgb(0,0,0); stroke:none; baseline-shift:-13.0px; ">
   Sales to existing
</text>
<text transform="translate(159.0,321.0), rotate(-0.0)" x="0px" y="0px" textLength="61.0px"
 style="font-family:Arial; font-size:13.0px; fill:rgb(0,0,0); stroke:none; baseline-shift:-13.0px; ">
   customers
</text>
<line x1="171.0px" y1="276.0px" x2="182.0px" y2="282.0px" style="stroke:rgb(0,0,0); stroke-width:1.0px;"/>
<line x1="171.0px" y1="287.0px" x2="182.0px" y2="282.0px" style="stroke:rgb(0,0,0); stroke-width:1.0px;"/>
<line x1="212.0px" y1="355.0px" x2="201.0px" y2="361.0px" style="stroke:rgb(0,0,0); stroke-width:1.0px;"/>
<line x1="212.0px" y1="367.0px" x2="201.0px" y2="361.0px" style="stroke:rgb(0,0,0); stroke-width:1.0px;"/>
<rect x="184.5px" y="350.5px" width="11.0px" height="11.0px" rx="0.0px" ry="0.0px" style="fill:rgb(255,255,255); stroke:rgb(0,0,0); stroke-width:1.0px;"/>
<text transform="translate(186.0,347.0), rotate(-0.0)" x="0px" y="0px" textLength="8.0px"
 style="font-family:Arial; font-size:13.0px; fill:rgb(0,0,0); stroke:none; baseline-shift:-13.0px; ">
   +
</text>
<path d="M 165.0 189.0 L 159.0 189.0 C 155.0 189.0 151.0 193.0 151.0 197.0 L 151.0 276.0" style="fill:none; stroke:rgb(0,0,0); stroke-width:1.0px;"/>
<polyline points=" 155.0,263.0 151.0,276.0 147.0,263.0 " style="fill:none; stroke:rgb(0,0,0); stroke-width:1.0px;"/>
<text transform="translate(135.0,226.0), rotate(-0.0)" x="0px" y="0px" textLength="34.0px"
 style="font-family:Arial; font-style:italic;font-size:10.0px; fill:rgb(0,0,0); stroke:none; baseline-shift:-10.0px; ">
   Partner
</text>
<path d="M 189.0 276.0 L 189.0 253.0 C 189.0 249.0 193.0 246.0 197.0 246.0 L 263.0 246.0 L 274.0 246.0 L 370.0 246.0 C 374.0 246.0 378.0 242.0 378.0 238.0 L 378.0 223.0" style="fill:none; stroke:rgb(0,0,0); stroke-dasharray:5 3; stroke-width:1.0px;"/>
<polyline points=" 374.0,236.0 378.0,223.0 382.0,236.0 " style="fill:none; stroke:rgb(0,0,0); stroke-width:1.0px;"/>
<text transform="translate(297.0,246.0), rotate(-0.0)" x="0px" y="0px" textLength="36.0px"
 style="font-family:Arial; font-style:italic;font-size:10.0px; fill:rgb(0,0,0); stroke:none; baseline-shift:-10.0px; ">
   Acquire
</text>
<path d="M 304.0 275.0 L 273.0 249.0 C 271.0 252.0 267.0 252.0 265.0 250.0 262.0 248.0 262.0 244.0 264.0 242.0 L 251.0 232.0 C 249.0 229.0 246.0 223.0 246.0 219.0 L 246.0 225.0" style="fill:none; stroke:rgb(0,0,0); stroke-dasharray:5 3; stroke-width:1.0px;"/>
<polyline points=" 242.0,238.0 246.0,225.0 250.0,238.0 " style="fill:none; stroke:rgb(0,0,0); stroke-width:1.0px;"/>
<text transform="translate(286.0,275.0), rotate(-0.0)" x="0px" y="0px" textLength="36.0px"
 style="font-family:Arial; font-style:italic;font-size:10.0px; fill:rgb(0,0,0); stroke:none; baseline-shift:-10.0px; ">
   Acquire
</text>
<path d="M 379.0 275.0 L 401.0 223.0" style="fill:none; stroke:rgb(0,0,0); stroke-dasharray:5 3; stroke-width:1.0px;"/>
<polyline points=" 392.0,233.0 401.0,223.0 400.0,237.0 " style="fill:none; stroke:rgb(0,0,0); stroke-width:1.0px;"/>
<text transform="translate(372.0,249.0), rotate(-0.0)" x="0px" y="0px" textLength="36.0px"
 style="font-family:Arial; font-style:italic;font-size:10.0px; fill:rgb(0,0,0); stroke:none; baseline-shift:-10.0px; ">
   Acquire
</text>
<path d="M 568.0 146.0 L 509.0 109.0" style="fill:none; stroke:rgb(0,0,0); stroke-width:1.0px;"/>
<polyline points=" 517.0,119.0 509.0,109.0 522.0,112.0 " style="fill:none; stroke:rgb(0,0,0); stroke-width:1.0px;"/>
<text transform="translate(508.0,125.0), rotate(-0.0)" x="0px" y="0px" textLength="53.0px"
 style="font-family:Arial; font-style:italic;font-size:10.0px; fill:rgb(0,0,0); stroke:none; baseline-shift:-10.0px; ">
   Tech &amp; Info
</text>
<text transform="translate(505.0,138.0), rotate(-0.0)" x="0px" y="0px" textLength="60.0px"
 style="font-family:Arial; font-style:italic;font-size:10.0px; fill:rgb(0,0,0); stroke:none; baseline-shift:-10.0px; ">
   Infrastructure
</text>
<ellipse cx="547.5px" cy="306.5px" rx="75.0px" ry="40.5px" style="fill:rgb(255,255,255); stroke:rgb(0,0,0); stroke-width:1.0px;"/>
<text transform="translate(515.0,290.0), rotate(-0.0)" x="0px" y="0px" textLength="65.0px"
 style="font-family:Arial; font-size:13.0px; fill:rgb(0,0,0); stroke:none; baseline-shift:-13.0px; ">
   Purchasing
</text>
<text transform="translate(517.0,306.0), rotate(-0.0)" x="0px" y="0px" textLength="60.0px"
 style="font-family:Arial; font-size:13.0px; fill:rgb(0,0,0); stroke:none; baseline-shift:-13.0px; ">
   equipment
</text>
<line x1="529.0px" y1="259.0px" x2="540.0px" y2="265.0px" style="stroke:rgb(0,0,0); stroke-width:1.0px;"/>
<line x1="529.0px" y1="271.0px" x2="540.0px" y2="265.0px" style="stroke:rgb(0,0,0); stroke-width:1.0px;"/>
<line x1="570.0px" y1="341.0px" x2="559.0px" y2="347.0px" style="stroke:rgb(0,0,0); stroke-width:1.0px;"/>
<line x1="570.0px" y1="352.0px" x2="559.0px" y2="347.0px" style="stroke:rgb(0,0,0); stroke-width:1.0px;"/>
<rect x="542.5px" y="335.5px" width="11.0px" height="12.0px" rx="0.0px" ry="0.0px" style="fill:rgb(255,255,255); stroke:rgb(0,0,0); stroke-width:1.0px;"/>
<text transform="translate(544.0,333.0), rotate(-0.0)" x="0px" y="0px" textLength="8.0px"
 style="font-family:Arial; font-size:13.0px; fill:rgb(0,0,0); stroke:none; baseline-shift:-13.0px; ">
   +
</text>
<ellipse cx="699.5px" cy="302.5px" rx="65.5px" ry="40.0px" style="fill:rgb(251,224,70); stroke:rgb(0,0,0); stroke-width:1.0px;"/>
<text transform="translate(674.0,286.0), rotate(-0.0)" x="0px" y="0px" textLength="52.0px"
 style="font-family:Arial; font-size:13.0px; fill:rgb(0,0,0); stroke:none; baseline-shift:-13.0px; ">
   Servicing
</text>
<text transform="translate(669.0,302.0), rotate(-0.0)" x="0px" y="0px" textLength="61.0px"
 style="font-family:Arial; font-size:13.0px; fill:rgb(0,0,0); stroke:none; baseline-shift:-13.0px; ">
   robots XXX
</text>
<line x1="681.0px" y1="256.0px" x2="692.0px" y2="262.0px" style="stroke:rgb(0,0,0); stroke-width:1.0px;"/>
<line x1="681.0px" y1="268.0px" x2="692.0px" y2="262.0px" style="stroke:rgb(0,0,0); stroke-width:1.0px;"/>
<line x1="723.0px" y1="337.0px" x2="711.0px" y2="343.0px" style="stroke:rgb(0,0,0); stroke-width:1.0px;"/>
<line x1="723.0px" y1="348.0px" x2="711.0px" y2="343.0px" style="stroke:rgb(0,0,0); stroke-width:1.0px;"/>
<rect x="694.5px" y="331.5px" width="12.0px" height="12.0px" rx="0.0px" ry="0.0px" style="fill:rgb(255,255,255); stroke:rgb(0,0,0); stroke-width:1.0px;"/>
<text transform="translate(697.0,329.0), rotate(-0.0)" x="0px" y="0px" textLength="8.0px"
 style="font-family:Arial; font-size:13.0px; fill:rgb(0,0,0); stroke:none; baseline-shift:-13.0px; ">
   +
</text>
<ellipse cx="348.5px" cy="438.5px" rx="65.5px" ry="40.5px" style="fill:rgb(255,255,255); stroke:rgb(0,0,0); stroke-width:1.0px;"/>
<text transform="translate(303.0,422.0), rotate(-0.0)" x="0px" y="0px" textLength="90.0px"
 style="font-family:Arial; font-size:13.0px; fill:rgb(0,0,0); stroke:none; baseline-shift:-13.0px; ">
   Phasing out old
</text>
<text transform="translate(319.0,438.0), rotate(-0.0)" x="0px" y="0px" textLength="60.0px"
 style="font-family:Arial; font-size:13.0px; fill:rgb(0,0,0); stroke:none; baseline-shift:-13.0px; ">
   equipment
</text>
<line x1="330.0px" y1="392.0px" x2="342.0px" y2="397.0px" style="stroke:rgb(0,0,0); stroke-width:1.0px;"/>
<line x1="330.0px" y1="403.0px" x2="342.0px" y2="397.0px" style="stroke:rgb(0,0,0); stroke-width:1.0px;"/>
<line x1="372.0px" y1="473.0px" x2="361.0px" y2="479.0px" style="stroke:rgb(0,0,0); stroke-width:1.0px;"/>
<line x1="372.0px" y1="485.0px" x2="361.0px" y2="479.0px" style="stroke:rgb(0,0,0); stroke-width:1.0px;"/>
<rect x="344.5px" y="468.5px" width="11.0px" height="11.0px" rx="0.0px" ry="0.0px" style="fill:rgb(255,255,255); stroke:rgb(0,0,0); stroke-width:1.0px;"/>
<text transform="translate(346.0,465.0), rotate(-0.0)" x="0px" y="0px" textLength="8.0px"
 style="font-family:Arial; font-size:13.0px; fill:rgb(0,0,0); stroke:none; baseline-shift:-13.0px; ">
   +
</text>
<path d="M 493.0 428.0 L 526.0 352.0" style="fill:none; stroke:rgb(0,0,0); stroke-width:1.0px;"/>
<polyline points=" 518.0,362.0 526.0,352.0 525.0,365.0 " style="fill:none; stroke:rgb(0,0,0); stroke-width:1.0px;"/>
<text transform="translate(503.0,369.0), rotate(-0.0)" x="0px" y="0px" textLength="34.0px"
 style="font-family:Arial; font-style:italic;font-size:10.0px; fill:rgb(0,0,0); stroke:none; baseline-shift:-10.0px; ">
   Partner
</text>
<path d="M 518.0 428.0 L 574.0 390.0 L 583.0 383.0 L 633.0 348.0" style="fill:none; stroke:rgb(0,0,0); stroke-width:1.0px;"/>
<polyline points=" 621.0,352.0 633.0,348.0 625.0,359.0 " style="fill:none; stroke:rgb(0,0,0); stroke-width:1.0px;"/>
<text transform="translate(588.0,368.0), rotate(-0.0)" x="0px" y="0px" textLength="34.0px"
 style="font-family:Arial; font-style:italic;font-size:10.0px; fill:rgb(0,0,0); stroke:none; baseline-shift:-10.0px; ">
   Partner
</text>
<path d="M 399.0 392.0 L 429.0 364.0 C 432.0 362.0 436.0 356.0 437.0 352.0 L 471.0 234.0 C 472.0 231.0 476.0 226.0 480.0 225.0 L 534.0 207.0" style="fill:none; stroke:rgb(0,0,0); stroke-dasharray:5 3; stroke-width:1.0px;"/>
<polyline points=" 521.0,207.0 534.0,207.0 523.0,215.0 " style="fill:none; stroke:rgb(0,0,0); stroke-width:1.0px;"/>
<text transform="translate(442.0,285.0), rotate(-0.0)" x="0px" y="0px" textLength="28.0px"
 style="font-family:Arial; font-style:italic;font-size:10.0px; fill:rgb(0,0,0); stroke:none; baseline-shift:-10.0px; ">
   Retire
</text>
<path d="M 567.0 259.0 L 567.0 213.0" style="fill:none; stroke:rgb(0,0,0); stroke-dasharray:5 3; stroke-width:1.0px;"/>
<polyline points=" 563.0,225.0 567.0,213.0 571.0,225.0 " style="fill:none; stroke:rgb(0,0,0); stroke-width:1.0px;"/>
<text transform="translate(549.0,237.0), rotate(-0.0)" x="0px" y="0px" textLength="36.0px"
 style="font-family:Arial; font-style:italic;font-size:10.0px; fill:rgb(0,0,0); stroke:none; baseline-shift:-10.0px; ">
   Acquire
</text>
<path d="M 671.0 256.0 L 661.0 241.0 L 655.0 231.0 L 644.0 213.0" style="fill:none; stroke:rgb(0,0,0); stroke-dasharray:5 3; stroke-width:1.0px;"/>
<polyline points=" 647.0,226.0 644.0,213.0 655.0,221.0 " style="fill:none; stroke:rgb(0,0,0); stroke-width:1.0px;"/>
<text transform="translate(644.0,246.0), rotate(-0.0)" x="0px" y="0px" textLength="41.0px"
 style="font-family:Arial; font-style:italic;font-size:10.0px; fill:rgb(0,0,0); stroke:none; baseline-shift:-10.0px; ">
   Maintain
</text>
<path d="M 718.0 583.0 L 718.0 354.0" style="fill:none; stroke:rgb(0,0,0); stroke-width:1.0px;"/>
<polyline points=" 714.0,367.0 718.0,354.0 722.0,367.0 " style="fill:none; stroke:rgb(0,0,0); stroke-width:1.0px;"/>
<text transform="translate(692.0,525.0), rotate(-0.0)" x="0px" y="0px" textLength="53.0px"
 style="font-family:Arial; font-style:italic;font-size:10.0px; fill:rgb(0,0,0); stroke:none; baseline-shift:-10.0px; ">
   Tech &amp; Info
</text>
<text transform="translate(688.0,538.0), rotate(-0.0)" x="0px" y="0px" textLength="60.0px"
 style="font-family:Arial; font-style:italic;font-size:10.0px; fill:rgb(0,0,0); stroke:none; baseline-shift:-10.0px; ">
   Infrastructure
</text>
<path d="M 550.0 585.0 L 693.0 477.0 C 696.0 475.0 699.0 469.0 699.0 465.0 L 699.0 351.0" style="fill:none; stroke:rgb(0,0,0); stroke-width:1.0px;"/>
<polyline points=" 695.0,363.0 699.0,351.0 703.0,363.0 " style="fill:none; stroke:rgb(0,0,0); stroke-width:1.0px;"/>
<text transform="translate(616.0,517.0), rotate(-0.0)" x="0px" y="0px" textLength="46.0px"
 style="font-family:Arial; font-style:italic;font-size:10.0px; fill:rgb(0,0,0); stroke:none; baseline-shift:-10.0px; ">
   Workforce
</text>
<path d="M 350.0 601.0 L 350.0 593.0 C 350.0 590.0 353.0 585.0 357.0 584.0 L 654.0 494.0 C 658.0 492.0 663.0 488.0 665.0 485.0 L 677.0 460.0 C 679.0 457.0 680.0 450.0 680.0 446.0 L 680.0 348.0" style="fill:none; stroke:rgb(0,0,0); stroke-width:1.0px;"/>
<polyline points=" 676.0,361.0 680.0,348.0 684.0,361.0 " style="fill:none; stroke:rgb(0,0,0); stroke-width:1.0px;"/>
<text transform="translate(553.0,517.0), rotate(-0.0)" x="0px" y="0px" textLength="46.0px"
 style="font-family:Arial; font-style:italic;font-size:10.0px; fill:rgb(0,0,0); stroke:none; baseline-shift:-10.0px; ">
   Workforce
</text>
<ellipse cx="454.5px" cy="756.5px" rx="84.5px" ry="36.5px" style="fill:rgb(134,195,244); stroke:rgb(0,0,0); stroke-width:1.0px;"/>
<text transform="translate(391.0,748.0), rotate(-0.0)" x="0px" y="0px" textLength="126.0px"
 style="font-family:Arial; font-size:13.0px; fill:rgb(0,0,0); stroke:none; baseline-shift:-13.0px; ">
   Software development
</text>
<line x1="435.0px" y1="714.0px" x2="447.0px" y2="719.0px" style="stroke:rgb(0,0,0); stroke-width:1.0px;"/>
<line x1="435.0px" y1="725.0px" x2="447.0px" y2="719.0px" style="stroke:rgb(0,0,0); stroke-width:1.0px;"/>
<line x1="477.0px" y1="787.0px" x2="466.0px" y2="793.0px" style="stroke:rgb(0,0,0); stroke-width:1.0px;"/>
<line x1="477.0px" y1="798.0px" x2="466.0px" y2="793.0px" style="stroke:rgb(0,0,0); stroke-width:1.0px;"/>
<rect x="449.5px" y="781.5px" width="11.0px" height="12.0px" rx="0.0px" ry="0.0px" style="fill:rgb(255,255,255); stroke:rgb(0,0,0); stroke-width:1.0px;"/>
<text transform="translate(451.0,779.0), rotate(-0.0)" x="0px" y="0px" textLength="8.0px"
 style="font-family:Arial; font-size:13.0px; fill:rgb(0,0,0); stroke:none; baseline-shift:-13.0px; ">
   +
</text>
<path d="M 496.0 855.0 L 474.0 804.0" style="fill:none; stroke:rgb(0,0,0); stroke-width:1.0px;"/>
<polyline points=" 475.0,817.0 474.0,804.0 483.0,814.0 " style="fill:none; stroke:rgb(0,0,0); stroke-width:1.0px;"/>
<text transform="translate(462.0,829.0), rotate(-0.0)" x="0px" y="0px" textLength="46.0px"
 style="font-family:Arial; font-style:italic;font-size:10.0px; fill:rgb(0,0,0); stroke:none; baseline-shift:-10.0px; ">
   Workforce
</text>
<path d="M 527.0 714.0 L 646.0 645.0" style="fill:none; stroke:rgb(0,0,0); stroke-dasharray:5 3; stroke-width:1.0px;"/>
<polyline points=" 633.0,648.0 646.0,645.0 637.0,655.0 " style="fill:none; stroke:rgb(0,0,0); stroke-width:1.0px;"/>
<text transform="translate(598.0,663.0), rotate(-0.0)" x="0px" y="0px" textLength="36.0px"
 style="font-family:Arial; font-style:italic;font-size:10.0px; fill:rgb(0,0,0); stroke:none; baseline-shift:-10.0px; ">
   Acquire
</text>
<ellipse cx="680.5px" cy="756.5px" rx="84.5px" ry="36.5px" style="fill:rgb(134,195,244); stroke:rgb(0,0,0); stroke-width:1.0px;"/>
<text transform="translate(616.0,748.0), rotate(-0.0)" x="0px" y="0px" textLength="128.0px"
 style="font-family:Arial; font-size:13.0px; fill:rgb(0,0,0); stroke:none; baseline-shift:-13.0px; ">
   Software maintanance
</text>
<line x1="662.0px" y1="714.0px" x2="674.0px" y2="719.0px" style="stroke:rgb(0,0,0); stroke-width:1.0px;"/>
<line x1="662.0px" y1="725.0px" x2="674.0px" y2="719.0px" style="stroke:rgb(0,0,0); stroke-width:1.0px;"/>
<line x1="704.0px" y1="787.0px" x2="692.0px" y2="793.0px" style="stroke:rgb(0,0,0); stroke-width:1.0px;"/>
<line x1="704.0px" y1="798.0px" x2="692.0px" y2="793.0px" style="stroke:rgb(0,0,0); stroke-width:1.0px;"/>
<rect x="675.5px" y="781.5px" width="12.0px" height="12.0px" rx="0.0px" ry="0.0px" style="fill:rgb(255,255,255); stroke:rgb(0,0,0); stroke-width:1.0px;"/>
<text transform="translate(678.0,779.0), rotate(-0.0)" x="0px" y="0px" textLength="8.0px"
 style="font-family:Arial; font-size:13.0px; fill:rgb(0,0,0); stroke:none; baseline-shift:-13.0px; ">
   +
</text>
<path d="M 686.0 714.0 L 695.0 647.0" style="fill:none; stroke:rgb(0,0,0); stroke-dasharray:5 3; stroke-width:1.0px;"/>
<polyline points=" 689.0,659.0 695.0,647.0 697.0,660.0 " style="fill:none; stroke:rgb(0,0,0); stroke-width:1.0px;"/>
<text transform="translate(670.0,681.0), rotate(-0.0)" x="0px" y="0px" textLength="41.0px"
 style="font-family:Arial; font-style:italic;font-size:10.0px; fill:rgb(0,0,0); stroke:none; baseline-shift:-10.0px; ">
   Maintain
</text>
<path d="M 553.0 855.0 L 626.0 798.0" style="fill:none; stroke:rgb(0,0,0); stroke-width:1.0px;"/>
<polyline points=" 613.0,803.0 626.0,798.0 619.0,809.0 " style="fill:none; stroke:rgb(0,0,0); stroke-width:1.0px;"/>
<text transform="translate(567.0,827.0), rotate(-0.0)" x="0px" y="0px" textLength="46.0px"
 style="font-family:Arial; font-style:italic;font-size:10.0px; fill:rgb(0,0,0); stroke:none; baseline-shift:-10.0px; ">
   Workforce
</text>
<path d="M 591.0 419.0 L 580.0 392.0 C 578.0 393.0 574.0 391.0 573.0 388.0 572.0 386.0 574.0 382.0 576.0 381.0 L 567.0 358.0" style="fill:none; stroke:rgb(0,0,0); stroke-width:1.0px;"/>
<polyline points=" 568.0,371.0 567.0,358.0 576.0,368.0 " style="fill:none; stroke:rgb(0,0,0); stroke-width:1.0px;"/>
<text transform="translate(562.0,370.0), rotate(-0.0)" x="0px" y="0px" textLength="20.0px"
 style="font-family:Arial; font-style:italic;font-size:10.0px; fill:rgb(0,0,0); stroke:none; baseline-shift:-10.0px; ">
   EXT
</text>
<path d="M 627.0 419.0 L 670.0 348.0" style="fill:none; stroke:rgb(0,0,0); stroke-width:1.0px;"/>
<polyline points=" 660.0,357.0 670.0,348.0 667.0,361.0 " style="fill:none; stroke:rgb(0,0,0); stroke-width:1.0px;"/>
<text transform="translate(639.0,384.0), rotate(-0.0)" x="0px" y="0px" textLength="20.0px"
 style="font-family:Arial; font-style:italic;font-size:10.0px; fill:rgb(0,0,0); stroke:none; baseline-shift:-10.0px; ">
   EXT
</text>
<path d="M 537.0 83.0 L 581.0 87.0" style="fill:none; stroke:rgb(0,0,0); stroke-dasharray:5 3; stroke-width:1.0px;"/>
<polyline points=" 569.0,82.0 581.0,87.0 568.0,90.0 " style="fill:none; stroke:rgb(0,0,0); stroke-width:1.0px;"/>
<text transform="translate(541.0,85.0), rotate(-0.0)" x="0px" y="0px" textLength="36.0px"
 style="font-family:Arial; font-style:italic;font-size:10.0px; fill:rgb(0,0,0); stroke:none; baseline-shift:-10.0px; ">
   Acquire
</text>
<text transform="translate(539.0,99.0), rotate(-0.0)" x="0px" y="0px" textLength="41.0px"
 style="font-family:Arial; font-style:italic;font-size:10.0px; fill:rgb(0,0,0); stroke:none; baseline-shift:-10.0px; ">
   Maintain
</text>
<path d="M 737.0 348.0 L 737.0 351.0 C 737.0 355.0 741.0 359.0 745.0 359.0 L 814.0 359.0 C 818.0 359.0 822.0 355.0 822.0 351.0 L 822.0 338.0" style="fill:none; stroke:rgb(0,0,0); stroke-dasharray:5 3; stroke-width:1.0px;"/>
<polyline points=" 818.0,350.0 822.0,338.0 826.0,350.0 " style="fill:none; stroke:rgb(0,0,0); stroke-width:1.0px;"/>
<text transform="translate(752.0,359.0), rotate(-0.0)" x="0px" y="0px" textLength="36.0px"
 style="font-family:Arial; font-style:italic;font-size:10.0px; fill:rgb(0,0,0); stroke:none; baseline-shift:-10.0px; ">
   Acquire
</text>
<text transform="translate(749.0,372.0), rotate(-0.0)" x="0px" y="0px" textLength="41.0px"
 style="font-family:Arial; font-style:italic;font-size:10.0px; fill:rgb(0,0,0); stroke:none; baseline-shift:-10.0px; ">
   Maintain
</text>
<path d="M 586.0 259.0 L 586.0 244.0 C 586.0 240.0 590.0 236.0 593.0 236.0 L 653.0 236.0 C 653.0 234.0 656.0 231.0 658.0 231.0 661.0 231.0 664.0 234.0 664.0 236.0 L 767.0 236.0 C 771.0 236.0 778.0 238.0 781.0 241.0 L 814.0 267.0" style="fill:none; stroke:rgb(0,0,0); stroke-dasharray:5 3; stroke-width:1.0px;"/>
<polyline points=" 807.0,256.0 814.0,267.0 802.0,262.0 " style="fill:none; stroke:rgb(0,0,0); stroke-width:1.0px;"/>
<text transform="translate(750.0,236.0), rotate(-0.0)" x="0px" y="0px" textLength="36.0px"
 style="font-family:Arial; font-style:italic;font-size:10.0px; fill:rgb(0,0,0); stroke:none; baseline-shift:-10.0px; ">
   Acquire
</text>
<text transform="translate(748.0,249.0), rotate(-0.0)" x="0px" y="0px" textLength="41.0px"
 style="font-family:Arial; font-style:italic;font-size:10.0px; fill:rgb(0,0,0); stroke:none; baseline-shift:-10.0px; ">
   Maintain
</text>
<ellipse cx="123.5px" cy="1011.5px" rx="76.0px" ry="29.0px" style="fill:rgb(253,205,172); stroke:rgb(0,0,0); stroke-width:1.0px;"/>
<text transform="translate(76.0,1003.0), rotate(-0.0)" x="0px" y="0px" textLength="95.0px"
 style="font-family:Arial; font-size:13.0px; fill:rgb(0,0,0); stroke:none; baseline-shift:-13.0px; ">
   Primary process
</text>
<line x1="105.0px" y1="976.0px" x2="116.0px" y2="982.0px" style="stroke:rgb(0,0,0); stroke-width:1.0px;"/>
<line x1="105.0px" y1="988.0px" x2="116.0px" y2="982.0px" style="stroke:rgb(0,0,0); stroke-width:1.0px;"/>
<line x1="146.0px" y1="1034.0px" x2="135.0px" y2="1040.0px" style="stroke:rgb(0,0,0); stroke-width:1.0px;"/>
<line x1="146.0px" y1="1046.0px" x2="135.0px" y2="1040.0px" style="stroke:rgb(0,0,0); stroke-width:1.0px;"/>
<rect x="118.5px" y="1029.5px" width="11.0px" height="11.0px" rx="0.0px" ry="0.0px" style="fill:rgb(255,255,255); stroke:rgb(0,0,0); stroke-width:1.0px;"/>
<text transform="translate(120.0,1027.0), rotate(-0.0)" x="0px" y="0px" textLength="8.0px"
 style="font-family:Arial; font-size:13.0px; fill:rgb(0,0,0); stroke:none; baseline-shift:-13.0px; ">
   +
</text>
<ellipse cx="491.5px" cy="1011.5px" rx="76.0px" ry="39.5px" style="fill:rgb(134,195,244); stroke:rgb(0,0,0); stroke-width:1.0px;"/>
<text transform="translate(445.0,995.0), rotate(-0.0)" x="0px" y="0px" textLength="93.0px"
 style="font-family:Arial; font-size:13.0px; fill:rgb(0,0,0); stroke:none; baseline-shift:-13.0px; ">
   Used in the new
</text>
<text transform="translate(469.0,1011.0), rotate(-0.0)" x="0px" y="0px" textLength="45.0px"
 style="font-family:Arial; font-size:13.0px; fill:rgb(0,0,0); stroke:none; baseline-shift:-13.0px; ">
   businee
</text>
<line x1="473.0px" y1="966.0px" x2="485.0px" y2="971.0px" style="stroke:rgb(0,0,0); stroke-width:1.0px;"/>
<line x1="473.0px" y1="977.0px" x2="485.0px" y2="971.0px" style="stroke:rgb(0,0,0); stroke-width:1.0px;"/>
<line x1="515.0px" y1="1045.0px" x2="503.0px" y2="1051.0px" style="stroke:rgb(0,0,0); stroke-width:1.0px;"/>
<line x1="515.0px" y1="1056.0px" x2="503.0px" y2="1051.0px" style="stroke:rgb(0,0,0); stroke-width:1.0px;"/>
<rect x="486.5px" y="1039.5px" width="12.0px" height="12.0px" rx="0.0px" ry="0.0px" style="fill:rgb(255,255,255); stroke:rgb(0,0,0); stroke-width:1.0px;"/>
<text transform="translate(489.0,1037.0), rotate(-0.0)" x="0px" y="0px" textLength="8.0px"
 style="font-family:Arial; font-size:13.0px; fill:rgb(0,0,0); stroke:none; baseline-shift:-13.0px; ">
   +
</text>
<ellipse cx="661.5px" cy="1011.5px" rx="75.0px" ry="40.0px" style="fill:rgb(255,0,0); stroke:rgb(0,0,0); stroke-width:1.0px;"/>
<text transform="translate(629.0,995.0), rotate(-0.0)" x="0px" y="0px" textLength="66.0px"
 style="font-family:Arial; font-size:13.0px; fill:rgb(0,0,0); stroke:none; baseline-shift:-13.0px; ">
   Transitional
</text>
<text transform="translate(639.0,1011.0), rotate(-0.0)" x="0px" y="0px" textLength="46.0px"
 style="font-family:Arial; font-size:13.0px; fill:rgb(0,0,0); stroke:none; baseline-shift:-13.0px; ">
   process
</text>
<line x1="643.0px" y1="965.0px" x2="655.0px" y2="971.0px" style="stroke:rgb(0,0,0); stroke-width:1.0px;"/>
<line x1="643.0px" y1="977.0px" x2="655.0px" y2="971.0px" style="stroke:rgb(0,0,0); stroke-width:1.0px;"/>
<line x1="685.0px" y1="1045.0px" x2="674.0px" y2="1051.0px" style="stroke:rgb(0,0,0); stroke-width:1.0px;"/>
<line x1="685.0px" y1="1057.0px" x2="674.0px" y2="1051.0px" style="stroke:rgb(0,0,0); stroke-width:1.0px;"/>
<rect x="657.5px" y="1040.5px" width="11.0px" height="11.0px" rx="0.0px" ry="0.0px" style="fill:rgb(255,255,255); stroke:rgb(0,0,0); stroke-width:1.0px;"/>
<text transform="translate(659.0,1037.0), rotate(-0.0)" x="0px" y="0px" textLength="8.0px"
 style="font-family:Arial; font-size:13.0px; fill:rgb(0,0,0); stroke:none; baseline-shift:-13.0px; ">
   +
</text>
<ellipse cx="311.5px" cy="1014.5px" rx="75.0px" ry="40.0px" style="fill:rgb(251,224,70); stroke:rgb(0,0,0); stroke-width:1.0px;"/>
<text transform="translate(259.0,998.0), rotate(-0.0)" x="0px" y="0px" textLength="104.0px"
 style="font-family:Arial; font-size:13.0px; fill:rgb(0,0,0); stroke:none; baseline-shift:-13.0px; ">
   A bease for a new
</text>
<text transform="translate(290.0,1014.0), rotate(-0.0)" x="0px" y="0px" textLength="43.0px"
 style="font-family:Arial; font-size:13.0px; fill:rgb(0,0,0); stroke:none; baseline-shift:-13.0px; ">
   primary
</text>
<line x1="293.0px" y1="969.0px" x2="304.0px" y2="974.0px" style="stroke:rgb(0,0,0); stroke-width:1.0px;"/>
<line x1="293.0px" y1="980.0px" x2="304.0px" y2="974.0px" style="stroke:rgb(0,0,0); stroke-width:1.0px;"/>
<line x1="334.0px" y1="1049.0px" x2="323.0px" y2="1054.0px" style="stroke:rgb(0,0,0); stroke-width:1.0px;"/>
<line x1="334.0px" y1="1060.0px" x2="323.0px" y2="1054.0px" style="stroke:rgb(0,0,0); stroke-width:1.0px;"/>
<rect x="306.5px" y="1043.5px" width="11.0px" height="11.0px" rx="0.0px" ry="0.0px" style="fill:rgb(255,255,255); stroke:rgb(0,0,0); stroke-width:1.0px;"/>
<text transform="translate(308.0,1041.0), rotate(-0.0)" x="0px" y="0px" textLength="8.0px"
 style="font-family:Arial; font-size:13.0px; fill:rgb(0,0,0); stroke:none; baseline-shift:-13.0px; ">
   +
</text>
</g>
</svg>
